<?xml version="1.0" standalone="no"?><!DOCTYPE svg PUBLIC "-//W3C//DTD SVG 1.1//EN" "http://www.w3.org/Graphics/SVG/1.1/DTD/svg11.dtd" ><svg version="1.1" xmlns="http://www.w3.org/2000/svg"><defs><font horiz-adv-x="0" id="font"><font-face ascent="750" bbox="-90.0423 -0 1500 750" cap-height="750" descent="-50" font-family="Hyper Scrypt" font-stretch="semi-expanded" units-per-em="800" x-height="500" /><missing-glyph d="M375 251C307 251 251 307 251 375C251 443 307 500 375 500C443 500 500 443 500 375C500 307 443 251 375 251ZM0 350V0C40 0 52 24 102 149L162 300C172 324 159 350 132 350ZM0 400H132C159 400 172 426 162 450L102 601C52 726 40 750 0 750ZM750 400V750C710 750 698 726 648 601L588 450C578 426 591 400 618 400ZM750 350H618C591 350 578 324 588 300L648 149C698 24 710 -0 750 -0ZM0 0C13 0 22 38 22 175C22 312 13 350 0 350C-13 350 -22 312 -22 175C-22 38 -13 0 0 0ZM0 400C13 400 22 438 22 575C22 712 13 750 0 750C-13 750 -22 712 -22 575C-22 438 -13 400 0 400Z" horiz-adv-x="750" /><glyph d="M722 0H750V350H679C650 350 629.7161 325.958 634 298L672 50C676.4339 21.0632 694 0 722 0ZM0 750V400H88C118 400 138.3664 416.9412 143 447L182 700C186.46 728.9328 170 750 132 750ZM75 350H0V0H32C60 0 77.5661 21.0632 82 50L120 298C124.2839 325.958 104 350 75 350ZM666 400H750V750H622C584 750 567.54 728.9328 572 700L611 447C615.6336 416.9412 636 400 666 400ZM429 281C455 281 473.2556 302.0308 470 328L427 671C422.7415 704.9686 405 731 377 731H374C346 731 328.2585 704.9686 324 671L281 328C277.7444 302.0308 296 281 322 281ZM307 177C278 177 257.8595 160.0184 254 130L245 60C240.6344 26.045 267 0 295 0H455C483 0 509.3656 26.045 505 60L496 130C492.1405 160.0184 472 177 443 177ZM0 0C13 0 22 38 22 175C22 312 13 350 0 350C-13 350 -22 312 -22 175C-22 38 -13 0 0 0ZM0 400C13 400 22 438 22 575C22 712 13 750 0 750C-13 750 -22 712 -22 575C-22 438 -13 400 0 400Z" glyph-name="A" horiz-adv-x="750" unicode="A" /><glyph d="M0 650V400H97C127 400 146 418 152 447L182 600C187 627 199 650 227 650ZM80 350H0V0H31C59 0 76 21 81 50L125 298C130 326 109 350 80 350ZM421 281C447 281 466 302 462 328L422 571C416 605 404 631 375 631C346.8 631 333.6108 605.0855 328 571L288 328C284 302 303 281 329 281ZM750 650H523C551 650 563 627 568 600L598 447C604 418 623 400 653 400H750ZM670 350C641 350 620 326 625 298L669 50C674 21 691 0 719 0H750V350ZM455 0C483 0 510 26 505 60L494 130C489 160 470 177 441 177H309C280 177 261 160 256 130L245 60C240 26 267 0 295 0ZM0 0C13 0 22 38 22 175C22 312 13 350 0 350C-13 350 -22 312 -22 175C-22 38 -13 0 0 0ZM0 400C13 400 22 438 22 575C22 712 13 750 0 750C-13 750 -22 712 -22 575C-22 438 -13 400 0 400ZM375 750Z" glyph-name="A.acc" horiz-adv-x="750" /><glyph d="M0 750V400H88C118 400 138.3664 416.9412 143 447L182 700C186.46 728.9328 170 750 132 750ZM75 350H0V0H32C60 0 77.5661 21.0632 82 50L120 298C124.2839 325.958 104 350 75 350ZM429 281C455 281 473.2556 302.0308 470 328L427 671C422.7415 704.9686 405 731 377 731H374C346 731 328.2585 704.9686 324 671L281 328C277.7444 302.0308 296 281 322 281ZM307 177C278 177 257.8595 160.0184 254 130L245 60C240.6344 26.045 267 0 295 0H455C483 0 509.3656 26.045 505 60L496 130C492.1405 160.0184 472 177 443 177ZM605 489C609 461 627 439 655 439H921C960 439 953 400 1005 400H1125V750H1055C1000 750 1064 631 983 631H641C613 631 587 609 591 581ZM640 261 654 170C658 142 676 120 704 120H1033C1114 120 1050 0 1105 0H1125V350H1005C953 350 960 313 921 313H690C662 313 636 290 640 261ZM0 0C13 0 22 38 22 175C22 312 13 350 0 350C-13 350 -22 312 -22 175C-22 38 -13 0 0 0ZM0 400C13 400 22 438 22 575C22 712 13 750 0 750C-13 750 -22 712 -22 575C-22 438 -13 400 0 400Z" glyph-name="AE" horiz-adv-x="1125" unicode="&#198;" /><glyph d="M750 650V750H562C535 750 519 742 505 724L476 686C462 668 471 650 503 650ZM0 750V650H245C272 650 290 654 295 676L304 714C309 736 294 750 262 750ZM375 750ZM0 650V400H97C127 400 146 418 152 447L182 600C187 627 199 650 227 650ZM80 350H0V0H31C59 0 76 21 81 50L125 298C130 326 109 350 80 350ZM421 281C447 281 466 302 462 328L422 571C416 605 404 631 375 631C346.8 631 333.6108 605.0855 328 571L288 328C284 302 303 281 329 281ZM750 650H523C551 650 563 627 568 600L598 447C604 418 623 400 653 400H750ZM670 350C641 350 620 326 625 298L669 50C674 21 691 0 719 0H750V350ZM455 0C483 0 510 26 505 60L494 130C489 160 470 177 441 177H309C280 177 261 160 256 130L245 60C240 26 267 0 295 0ZM0 0C13 0 22 38 22 175C22 312 13 350 0 350C-13 350 -22 312 -22 175C-22 38 -13 0 0 0ZM0 400C13 400 22 438 22 575C22 712 13 750 0 750C-13 750 -22 712 -22 575C-22 438 -13 400 0 400ZM375 750Z" glyph-name="Aacute" horiz-adv-x="750" unicode="&#193;" /><glyph d="M0 650V400H97C127 400 146 418 152 447L182 600C187 627 199 650 227 650ZM80 350H0V0H31C59 0 76 21 81 50L125 298C130 326 109 350 80 350ZM421 281C447 281 466 302 462 328L422 571C416 605 404 631 375 631C346.8 631 333.6108 605.0855 328 571L288 328C284 302 303 281 329 281ZM750 650H523C551 650 563 627 568 600L598 447C604 418 623 400 653 400H750ZM670 350C641 350 620 326 625 298L669 50C674 21 691 0 719 0H750V350ZM455 0C483 0 510 26 505 60L494 130C489 160 470 177 441 177H309C280 177 261 160 256 130L245 60C240 26 267 0 295 0ZM0 0C13 0 22 38 22 175C22 312 13 350 0 350C-13 350 -22 312 -22 175C-22 38 -13 0 0 0ZM0 400C13 400 22 438 22 575C22 712 13 750 0 750C-13 750 -22 712 -22 575C-22 438 -13 400 0 400ZM375 750ZM0 650H235C258 650 260 666 245 677C231 688 219 706 213 729C208 747 191 750 164 750H0ZM388 750H362C348 750 335 744 340 724L342 716C346 699 363 694 375 694C387 694 404 701 408 717L410 724C416 746 402 750 388 750ZM750 650V750H586C559 750 542 747 537 729C531 706 519 688 505 677C490 666 492 650 515 650ZM375 750Z" glyph-name="Abreve" horiz-adv-x="750" unicode="&#258;" /><glyph d="M388 650C402 650 414 656 410 676L402 719C399 737 387 742 375 742C363 742 351 737 348 720L340 676C336 656 348 650 362 650ZM80 350H0V0H31C59 0 76 21 81 50L125 298C130 326 109 350 80 350ZM421 281C447 281 466 302 462 328L422 571C416 605 404 631 375 631C347 631 334 605 328 571L288 328C284 302 303 281 329 281ZM670 350C641 350 620 326 625 298L669 50C674 21 691 0 719 0H750V350ZM455 0C483 0 510 26 505 60L494 130C489 160 470 177 441 177H309C280 177 261 160 256 130L245 60C240 26 267 0 295 0ZM0 0C11 0 21 20 27 79L29 101C31 123 32 156 32 175C32 195 31 226 29 248L27 270C21 330 11 350 0 350C-11 350 -22 330 -27 270L-30 248C-31 226 -32 195 -32 175C-32 156 -31 123 -30 101L-27 79C-22 20 -11 0 0 0ZM0 400C11 400 21 420 27 479L29 501C31 523 32 556 32 575C32 595 31 626 29 648L27 670C21 730 11 750 0 750C-11 750 -22 730 -27 670L-30 648C-31 626 -32 595 -32 575C-32 556 -31 523 -30 501L-27 479C-22 420 -11 400 0 400ZM0 400H97C127 400 146 418 152 447L182 600C189 635 203 660 215 676L244 714C258 732 249 750 217 750H0ZM750 400V750H533C501 750 492 732 506 714L535 676C547 660 561 635 568 600L598 447C604 418 623 400 653 400Z" glyph-name="Acircumflex" horiz-adv-x="750" unicode="&#194;" /><glyph d="M221 650C231 650 235 653 235 657C235 667 214 668 214 700C214 732 235 733 235 743C235 747 231 750 221 750H0V650ZM529 650H750V750H529C519 750 515 747 515 743C515 733 536 732 536 700C536 668 515 667 515 657C515 653 519 650 529 650ZM411 650C421 650 425 653 425 657C425 667 404 668 404 700C404 732 425 733 425 743C425 747 421 750 411 750H370V650ZM339 650H391V750H339C329 750 325 747 325 743C325 733 346 732 346 700C346 668 325 667 325 657C325 653 329 650 339 650ZM375 750ZM0 650V400H97C127 400 146 418 152 447L182 600C187 627 199 650 227 650ZM80 350H0V0H31C59 0 76 21 81 50L125 298C130 326 109 350 80 350ZM421 281C447 281 466 302 462 328L422 571C416 605 404 631 375 631C346.8 631 333.6108 605.0855 328 571L288 328C284 302 303 281 329 281ZM750 650H523C551 650 563 627 568 600L598 447C604 418 623 400 653 400H750ZM670 350C641 350 620 326 625 298L669 50C674 21 691 0 719 0H750V350ZM455 0C483 0 510 26 505 60L494 130C489 160 470 177 441 177H309C280 177 261 160 256 130L245 60C240 26 267 0 295 0ZM0 0C13 0 22 38 22 175C22 312 13 350 0 350C-13 350 -22 312 -22 175C-22 38 -13 0 0 0ZM0 400C13 400 22 438 22 575C22 712 13 750 0 750C-13 750 -22 712 -22 575C-22 438 -13 400 0 400ZM375 750Z" glyph-name="Adieresis" horiz-adv-x="750" unicode="&#196;" /><glyph d="M0 650H247C279 650 288 668 274 686L245 724C231 742 215 750 188 750H0ZM750 750H488C456 750 441 736 446 714L455 676C460 654 478 650 505 650H750ZM375 750ZM0 650V400H97C127 400 146 418 152 447L182 600C187 627 199 650 227 650ZM80 350H0V0H31C59 0 76 21 81 50L125 298C130 326 109 350 80 350ZM421 281C447 281 466 302 462 328L422 571C416 605 404 631 375 631C346.8 631 333.6108 605.0855 328 571L288 328C284 302 303 281 329 281ZM750 650H523C551 650 563 627 568 600L598 447C604 418 623 400 653 400H750ZM670 350C641 350 620 326 625 298L669 50C674 21 691 0 719 0H750V350ZM455 0C483 0 510 26 505 60L494 130C489 160 470 177 441 177H309C280 177 261 160 256 130L245 60C240 26 267 0 295 0ZM0 0C13 0 22 38 22 175C22 312 13 350 0 350C-13 350 -22 312 -22 175C-22 38 -13 0 0 0ZM0 400C13 400 22 438 22 575C22 712 13 750 0 750C-13 750 -22 712 -22 575C-22 438 -13 400 0 400ZM375 750Z" glyph-name="Agrave" horiz-adv-x="750" unicode="&#192;" /><glyph d="M0 650V400H97C127 400 146 418 152 447L182 600C187 627 199 650 227 650ZM80 350H0V0H31C59 0 76 21 81 50L125 298C130 326 109 350 80 350ZM421 281C447 281 466 302 462 328L422 571C416 605 404 631 375 631C346.8 631 333.6108 605.0855 328 571L288 328C284 302 303 281 329 281ZM750 650H523C551 650 563 627 568 600L598 447C604 418 623 400 653 400H750ZM670 350C641 350 620 326 625 298L669 50C674 21 691 0 719 0H750V350ZM455 0C483 0 510 26 505 60L494 130C489 160 470 177 441 177H309C280 177 261 160 256 130L245 60C240 26 267 0 295 0ZM0 0C13 0 22 38 22 175C22 312 13 350 0 350C-13 350 -22 312 -22 175C-22 38 -13 0 0 0ZM0 400C13 400 22 438 22 575C22 712 13 750 0 750C-13 750 -22 712 -22 575C-22 438 -13 400 0 400ZM375 750ZM750 750H517C485 750 475 737 475 714V682C475 659 486 650 525 650H750ZM0 750V650H225C264 650 275 659 275 682V714C275 737 265 750 233 750ZM375 750Z" glyph-name="Amacron" horiz-adv-x="750" unicode="&#256;" /><glyph d="M652 100H750V350H690C661 350 640 325 645 298L672 150C677.038 122.3844 676 100 652 100ZM0 750V400H80C110 400 129 417 135 447L182 700C187 729 170 750 132 750ZM64 350H0V100H107C80 100 76.9548 122.345 82 150L109 298C114 325 93 350 64 350ZM674 400H750V750H622C584 750 567 729 572 700L619 447C625 417 644 400 674 400ZM419 381C445 381 464 402 460 428L427 671C422 705 405 731 377 731H374C346 731 329 705 324 671L291 428C287 402 306 381 332 381ZM308 277C279 277 259 260 255 230L243 149C239 119 231 100 204 100H532C517 100 512 109 506 148L495 230C491 260 471 277 442 277ZM513 0C523 0 527 3 527 7C527 17 506 18 506 41C506 73 547 83 547 93C547 97 543 100 533 100H0V0ZM661 30H679C714 30 721 0 740 0H750V100H651C621.4 100 611 87 611 65C611 43 624 30 661 30ZM0 0C13 0 22 38 22 175C22 312 13 350 0 350C-13 350 -22 312 -22 175C-22 38 -13 0 0 0ZM0 400C13 400 22 438 22 575C22 712 13 750 0 750C-13 750 -22 712 -22 575C-22 438 -13 400 0 400Z" glyph-name="Aogonek" horiz-adv-x="750" unicode="&#260;" /><glyph d="M0 650V400H97C127 400 146 418 152 447L182 600C187 627 199 650 227 650ZM80 350H0V0H31C59 0 76 21 81 50L125 298C130 326 109 350 80 350ZM421 281C447 281 466 302 462 328L422 571C416 605 404 631 375 631C346.8 631 333.6108 605.0855 328 571L288 328C284 302 303 281 329 281ZM750 650H523C551 650 563 627 568 600L598 447C604 418 623 400 653 400H750ZM670 350C641 350 620 326 625 298L669 50C674 21 691 0 719 0H750V350ZM455 0C483 0 510 26 505 60L494 130C489 160 470 177 441 177H309C280 177 261 160 256 130L245 60C240 26 267 0 295 0ZM0 0C13 0 22 38 22 175C22 312 13 350 0 350C-13 350 -22 312 -22 175C-22 38 -13 0 0 0ZM0 400C13 400 22 438 22 575C22 712 13 750 0 750C-13 750 -22 712 -22 575C-22 438 -13 400 0 400ZM375 750ZM256 650C266 650 270 653 270 657C270 667 249 668 249 700C249 732 270 733 270 743C270 747 266 750 256 750H0V650ZM494 650H750V750H494C484 750 480 747 480 743C480 733 501 732 501 700C501 668 480 667 480 657C480 653 484 650 494 650ZM375 674C416 674 439 683.9048 439 700C439 716.0952 416 726 375 726C335 726 311 716.0952 311 700C311 683.9048 335 674 375 674ZM375 750Z" glyph-name="Aring" horiz-adv-x="750" unicode="&#197;" /><glyph d="M80 350H0V0H31C59 0 76 21 81 50L125 298C130 326 109 350 80 350ZM421 281C447 281 466 302 462 328L422 571C416 605 404 631 375 631C347 631 334 605 328 571L288 328C284 302 303 281 329 281ZM750 650H523C551 650 563 627 568 600L598 447C604 418 623 400 653 400H750ZM670 350C641 350 620 326 625 298L669 50C674 21 691 0 719 0H750V350ZM455 0C483 0 510 26 505 60L494 130C489 160 470 177 441 177H309C280 177 261 160 256 130L245 60C240 26 267 0 295 0ZM291 665C291 674 299 681 308 681C332 681 362 670 362 660C362 654 357 650 345 650C337 650 314 650 307 650C297 650 291 656 291 665ZM750 650V750H568C541 750 519 746 518 724C516 682 471 683 471 665C471 655 479 650 506 650ZM459 735C459 726 451 719 442 719C418 719 388 730 388 740C388 746 393 750 405 750C413 750 436 750 443 750C453 750 459 744 459 735ZM232 676C236 717 279 717 279 735C279 745 271 750 244 750H0V400H97C127 400 146 418 152 447L182 600C190 639 229 649 232 676ZM0 0C13 0 22 38 22 175C22 312 13 350 0 350C-13 350 -22 312 -22 175C-22 38 -13 0 0 0ZM0 400C13 400 22 438 22 575C22 712 13 750 0 750C-13 750 -22 712 -22 575C-22 438 -13 400 0 400Z" glyph-name="Atilde" horiz-adv-x="750" unicode="&#195;" /><glyph d="M0 750V400H62C90 400 112 422 112 450V700C112 728 90 750 62 750ZM267 181V170C267 142 289 120 317 120H362C454.0976 120 480 166 480 248C480 336 409 371 342 329L331 322C278 290 267 255.48 267 181ZM594 596C594 550 579 504 507 453C496 445 497 425 522 418C554 409 628 400 692 400H750V750H532C511 750 485 745 485 731C485 718.3864 514 709 539 694C578 671 594 646.6154 594 596ZM0 350V0H62C90 0 112 22 112 50V300C112 328 90 350 62 350ZM428 573C428 613 396 640 351 640H322C279 640 267 624 267 589V469C267 424 287 411 355 454L369 463C409 489 428 537 428 573ZM601 77C582 50 554 36 535 31C503 22 503 0 533 0H750V350H711C657 350 614 359 596 359C587 359 581 354 581 345C581 319 640 302 640 209C640 141 615 96 601 77ZM0 0C13 0 22 38 22 175C22 312 13 350 0 350C-13 350 -22 312 -22 175C-22 38 -13 0 0 0ZM0 400C13 400 22 438 22 575C22 712 13 750 0 750C-13 750 -22 712 -22 575C-22 438 -13 400 0 400Z" glyph-name="B" horiz-adv-x="750" unicode="B" /><glyph d="M58 479C87 577 174 662 282 695C311 704 323 715 323 730C323 741 315 750 293 750H0V400C23 400 39 415 58 479ZM58 271C39 335 23 350 0 350V0H293C315 0 323 9 323 20C323 35 311 46 282 55C174 88 87 173 58 271ZM621 400H750V750H457C435 750 427 741 427 730C427 715 439 704 468 695C552 669 625 613 664 545C683 513 672 491 650 480L613 462C588 450 581 440 582 430C582 415 595 400 621 400ZM540 375C540 510 469 562 375 562C285 562 189 488 189 375C189 262 285 188 375 188C469 188 540 240 540 375ZM621 350C595 350 582 335 582 320C581 310 588 300 613 288L650 270C672 259 683 237 664 205C625 137 552 81 468 55C439 46 427 35 427 20C427 9 435 0 457 0H750V350ZM0 0C13 0 22 38 22 175C22 312 13 350 0 350C-13 350 -22 312 -22 175C-22 38 -13 0 0 0ZM0 400C13 400 22 438 22 575C22 712 13 750 0 750C-13 750 -22 712 -22 575C-22 438 -13 400 0 400ZM376 750Z" glyph-name="C" horiz-adv-x="750" unicode="C" /><glyph d="M58 271C39 335 23 350 0 350V0H293C315 0 323 9 323 20C323 35 311 46 282 55C174 88 87 173 58 271ZM621 350C595 350 582 335 582 320C581 310 588 300 613 288L650 270C672 259 683 237 664 205C625 137 552 81 468 55C439 46 427 35 427 20C427 9 435 0 457 0H750V350ZM540 375C540 509.8435 479 562 375 562C275 562 189 509.1751 189 375C189 262 285 188 375 188C469 188 540 240 540 375ZM175 650H0V400C23 400 36 415 58 479C95.6299 587.9286 117.9748 650 175 650ZM573 650C616.2475 650 629 615 664 545C680 513 672 491 650 480L613 462C588 450 581 440 582 430C582 415 595 400 621 400H750V650ZM0 0C13 0 22 38 22 175C22 312 13 350 0 350C-13 350 -22 312 -22 175C-22 38 -13 0 0 0ZM0 400C13 400 22 438 22 575C22 712 13 750 0 750C-13 750 -22 712 -22 575C-22 438 -13 400 0 400Z" glyph-name="C.acc" horiz-adv-x="750" /><glyph d="M58 271C39 335 23 350 0 350V0H293C315 0 323 9 323 20C323 35 311 46 282 55C174 88 87 173 58 271ZM621 350C595 350 582 335 582 320C581 310 588 300 613 288L650 270C672 259 683 237 664 205C625 137 552 81 468 55C439 46 427 35 427 20C427 9 435 0 457 0H750V350ZM540 375C540 509.8435 479 562 375 562C275 562 189 509.1751 189 375C189 262 285 188 375 188C469 188 540 240 540 375ZM175 650H0V400C23 400 36 415 58 479C95.6299 587.9286 117.9748 650 175 650ZM573 650C616.2475 650 629 615 664 545C680 513 672 491 650 480L613 462C588 450 581 440 582 430C582 415 595 400 621 400H750V650ZM0 0C13 0 22 38 22 175C22 312 13 350 0 350C-13 350 -22 312 -22 175C-22 38 -13 0 0 0ZM0 400C13 400 22 438 22 575C22 712 13 750 0 750C-13 750 -22 712 -22 575C-22 438 -13 400 0 400ZM750 650V750H562C535 750 519 742 505 724L476 686C462 668 471 650 503 650ZM0 750V650H245C272 650 290 654 295 676L304 714C309 736 294 750 262 750ZM375 750Z" glyph-name="Cacute" horiz-adv-x="750" unicode="&#262;" /><glyph d="M58 271C39 335 23 350 0 350V0H293C315 0 323 9 323 20C323 35 311 46 282 55C174 88 87 173 58 271ZM621 350C595 350 582 335 582 320C581 310 588 300 613 288L650 270C672 259 683 237 664 205C625 137 552 81 468 55C439 46 427 35 427 20C427 9 435 0 457 0H750V350ZM540 375C540 509.8435 479 562 375 562C275 562 189 509.1751 189 375C189 262 285 188 375 188C469 188 540 240 540 375ZM175 650H0V400C23 400 36 415 58 479C95.6299 587.9286 117.9748 650 175 650ZM573 650C616.2475 650 629 615 664 545C680 513 672 491 650 480L613 462C588 450 581 440 582 430C582 415 595 400 621 400H750V650ZM0 0C13 0 22 38 22 175C22 312 13 350 0 350C-13 350 -22 312 -22 175C-22 38 -13 0 0 0ZM0 400C13 400 22 438 22 575C22 712 13 750 0 750C-13 750 -22 712 -22 575C-22 438 -13 400 0 400ZM0 650H217C249 650 258 668 244 686L215 724C201 742 185 750 158 750H0ZM750 650V750H592C565 750 549 742 535 724L506 686C492 668 501 650 533 650ZM388 750H362C348 750 336 744 340 724L348 680C351 663 363 658 375 658C387 658 399 663 402 681L410 724C414 744 402 750 388 750ZM375 750Z" glyph-name="Ccaron" horiz-adv-x="750" unicode="&#268;" /><glyph d="M58 479C87 577 174 662 282 695C311 704 323 715 323 730C323 741 315 750 293 750H0V400C23 400 39 415 58 479ZM621 400H750V750H457C435 750 427 741 427 730C427 715 439 704 468 695C552 669 625 613 664 545C683 513 672 491 650 480L613 462C588 450 581 440 582 430C582 415 595 400 621 400ZM540 375C540 510 469 562 375 562C285 562 189 488 189 375C189 286 285 228 375 228C469 228 540 269 540 375ZM272 99C171 127 82 189 58 271C39 335 23 350 0 350V0H188C215 0 231 8 245 26L274 64C284 77 293 93 272 99ZM476 98C461 93 457 83 455 74L446 36C441 14 456 0 488 0H750V350H621C595 350 582 335 582 320C581 310 588 300 613 288L650 270C672 259 683 237 664 205C633 151 549 123 476 98Z" glyph-name="Ccedilla" horiz-adv-x="750" unicode="&#199;" /><glyph d="M58 271C39 335 23 350 0 350V0H293C315 0 323 9 323 20C323 35 311 46 282 55C174 88 87 173 58 271ZM621 350C595 350 582 335 582 320C581 310 588 300 613 288L650 270C672 259 683 237 664 205C625 137 552 81 468 55C439 46 427 35 427 20C427 9 435 0 457 0H750V350ZM540 375C540 509.8435 479 562 375 562C275 562 189 509.1751 189 375C189 262 285 188 375 188C469 188 540 240 540 375ZM175 650H0V400C23 400 36 415 58 479C95.6299 587.9286 117.9748 650 175 650ZM573 650C616.2475 650 629 615 664 545C680 513 672 491 650 480L613 462C588 450 581 440 582 430C582 415 595 400 621 400H750V650ZM0 0C13 0 22 38 22 175C22 312 13 350 0 350C-13 350 -22 312 -22 175C-22 38 -13 0 0 0ZM0 400C13 400 22 438 22 575C22 712 13 750 0 750C-13 750 -22 712 -22 575C-22 438 -13 400 0 400ZM0 750V650H168C190.2632 650 202.0271 659.001 215 676L244 714C258 732 249 750 217 750ZM750 750H533C501 750 492 732 506 714L535 676C547.9729 659.001 559.7368 650 582 650H750ZM388 650C402 650 413.7251 655.9775 410 676L402 719C399 737 386.6667 742 375 742C363.3333 742 351 737 348 720L340 676C336.3568 655.9624 348 650 362 650ZM375 750Z" glyph-name="Ccircumflex" horiz-adv-x="750" unicode="&#264;" /><glyph d="M58 271C39 335 23 350 0 350V0H293C315 0 323 9 323 20C323 35 311 46 282 55C174 88 87 173 58 271ZM621 350C595 350 582 335 582 320C581 310 588 300 613 288L650 270C672 259 683 237 664 205C625 137 552 81 468 55C439 46 427 35 427 20C427 9 435 0 457 0H750V350ZM540 375C540 509.8435 479 562 375 562C275 562 189 509.1751 189 375C189 262 285 188 375 188C469 188 540 240 540 375ZM175 650H0V400C23 400 36 415 58 479C95.6299 587.9286 117.9748 650 175 650ZM573 650C616.2475 650 629 615 664 545C680 513 672 491 650 480L613 462C588 450 581 440 582 430C582 415 595 400 621 400H750V650ZM0 0C13 0 22 38 22 175C22 312 13 350 0 350C-13 350 -22 312 -22 175C-22 38 -13 0 0 0ZM0 400C13 400 22 438 22 575C22 712 13 750 0 750C-13 750 -22 712 -22 575C-22 438 -13 400 0 400ZM316 650C326 650 330 653 330 657C330 667 309 668 309 700C309 732 330 733 330 743C330 747 326 750 316 750H0V650ZM434 650H750V750H434C424 750 420 747 420 743C420 733 441 732 441 700C441 668 420 667 420 657C420 653 424 650 434 650ZM375 750Z" glyph-name="Cdotaccent" horiz-adv-x="750" unicode="&#266;" /><glyph d="M666 257C626 156 500 48 356 28C337 25 336 17 336 11C336 5 341 0 355 0H750V350C719 350 698 337 666 257ZM265 177C265 150 286 150 303 151C432.0792 161.0061 533 234 533 375C533 515.549 434.078 588.994 303 599C287 600 265 598 265 573ZM0 0H60C88 0 110 22 110 50V300C110 328 88 350 60 350H0ZM0 400H60C88 400 110 422 110 450V700C110 728 88 750 60 750H0ZM666 493C698 413 719 400 750 400V750H355C341 750 336 745 336 739C336 733 337 725 356 722C500 702 626 594 666 493ZM0 0C13 0 22 38 22 175C22 312 13 350 0 350C-13 350 -22 312 -22 175C-22 38 -13 0 0 0ZM0 400C13 400 22 438 22 575C22 712 13 750 0 750C-13 750 -22 712 -22 575C-22 438 -13 400 0 400Z" glyph-name="D" horiz-adv-x="750" unicode="D" /><glyph d="M666 257C626 156 500 48 356 28C337 25 336 17 336 11C336 5 341 0 355 0H750V350C719 350 698 337 666 257ZM265 177C265 150 286 150 303 151C432 161 533 234 533 375C533 501 448 559 303 559C280 559 265 549 265 522ZM0 0H60C88 0 110 22 110 50V300C110 328 88 350 60 350H0ZM0 400H60C88 400 110 422 110 450V600C110 628 132 650 160 650H0ZM666 493C698 413 719 400 750 400V650H523C591 650 637.3065 565.4511 666 493ZM0 650H217C249 650 258 668 244 686L215 724C201 742 185 750 158 750H0ZM750 650V750H592C565 750 549 742 535 724L506 686C492 668 501 650 533 650ZM388 750H362C348 750 336 744 340 724L348 680C351 663 363 658 375 658C387 658 399 663 402 681L410 724C414 744 402 750 388 750ZM375 750ZM0 0C13 0 22 38 22 175C22 312 13 350 0 350C-13 350 -22 312 -22 175C-22 38 -13 0 0 0ZM0 400C13 400 22 438 22 575C22 712 13 750 0 750C-13 750 -22 712 -22 575C-22 438 -13 400 0 400Z" glyph-name="Dcaron" horiz-adv-x="750" unicode="&#270;" /><glyph d="M0 0H60C88 0 110 22 110 50V300C110 328 88 350 60 350H0ZM263 489C263 461 285 439 313 439H546C585 439 578 400 630 400H750V750H730C675 750 739 631 658 631H313C285 631 263 609 263 581ZM0 400H60C88 400 110 423 110 452V700C110 728 88 750 60 750H0ZM263 261V170C263 142 285 120 313 120H658C739 120 675 0 730 0H750V350H630C578 350 585 313 546 313H313C285 313 263 290 263 261ZM0 0C13 0 22 38 22 175C22 312 13 350 0 350C-13 350 -22 312 -22 175C-22 38 -13 0 0 0ZM0 400C13 400 22 438 22 575C22 712 13 750 0 750C-13 750 -22 712 -22 575C-22 438 -13 400 0 400Z" glyph-name="E" horiz-adv-x="750" unicode="E" /><glyph d="M0 0H22C50 0 72 22 72 50V300C72 328 50 350 22 350H0ZM225 489C225 461 247 439 275 439H291C330 439 323 400 375 400V750C320 750 384 631 303 631H275C247 631 225 609 225 581ZM0 400H22C50 400 72 423 72 452V700C72 728 50 750 22 750H0ZM225 261V170C225 142 247 120 275 120H303C384 120 320 0 375 0V350C323 350 330 313 291 313H275C247 313 225 290 225 261ZM0 0C13 0 22 38 22 175C22 312 13 350 0 350C-13 350 -22 312 -22 175C-22 38 -13 0 0 0ZM0 400C13 400 22 438 22 575C22 712 13 750 0 750C-13 750 -22 712 -22 575C-22 438 -13 400 0 400Z" glyph-name="E.2" horiz-adv-x="375" /><glyph d="M0 0H60C88 0 110 22 110 50V300C110 328 88 350 60 350H0ZM263 222V170C263 142 285 120 313 120H658C739 120 675 0 730 0H750V350H630C578 350 585 274 546 274H313C285 274 263 251 263 222ZM0 400H60C88 400 110 422 110 450V600C110 628 120 650 148 650H0ZM704 586C702 558 697 531 658 531H313C285 531 263 509 263 481V450C263 422 285 400 313 400H750V650H666C694 650 704 628 704 600ZM0 0C13 0 22 38 22 175C22 312 13 350 0 350C-13 350 -22 312 -22 175C-22 38 -13 0 0 0ZM0 400C13 400 22 438 22 575C22 712 13 750 0 750C-13 750 -22 712 -22 575C-22 438 -13 400 0 400ZM375 750Z" glyph-name="E.acc" horiz-adv-x="750" /><glyph d="M750 650V750H562C535 750 519 742 505 724L476 686C462 668 471 650 503 650ZM0 750V650H245C272 650 290 654 295 676L304 714C309 736 294 750 262 750ZM375 750ZM0 0H60C88 0 110 22 110 50V300C110 328 88 350 60 350H0ZM263 222V170C263 142 285 120 313 120H658C739 120 675 0 730 0H750V350H630C578 350 585 274 546 274H313C285 274 263 251 263 222ZM0 400H60C88 400 110 422 110 450V600C110 628 120 650 148 650H0ZM704 586C702 558 697 531 658 531H313C285 531 263 509 263 481V450C263 422 285 400 313 400H750V650H666C694 650 704 628 704 600ZM0 0C13 0 22 38 22 175C22 312 13 350 0 350C-13 350 -22 312 -22 175C-22 38 -13 0 0 0ZM0 400C13 400 22 438 22 575C22 712 13 750 0 750C-13 750 -22 712 -22 575C-22 438 -13 400 0 400ZM375 750Z" glyph-name="Eacute" horiz-adv-x="750" unicode="&#201;" /><glyph d="M0 0H60C88 0 110 22 110 50V300C110 328 88 350 60 350H0ZM263 222V170C263 142 285 120 313 120H658C739 120 675 0 730 0H750V350H630C578 350 585 274 546 274H313C285 274 263 251 263 222ZM0 400H60C88 400 110 422 110 450V600C110 628 120 650 148 650H0ZM704 586C702 558 697 531 658 531H313C285 531 263 509 263 481V450C263 422 285 400 313 400H750V650H666C694 650 704 628 704 600ZM0 0C13 0 22 38 22 175C22 312 13 350 0 350C-13 350 -22 312 -22 175C-22 38 -13 0 0 0ZM0 400C13 400 22 438 22 575C22 712 13 750 0 750C-13 750 -22 712 -22 575C-22 438 -13 400 0 400ZM375 750ZM0 650H235C258 650 260 666 245 677C231 688 219 706 213 729C208 747 191 750 164 750H0ZM388 750H362C348 750 335 744 340 724L342 716C346 699 363 694 375 694C387 694 404 701 408 717L410 724C416 746 402 750 388 750ZM750 650V750H586C559 750 542 747 537 729C531 706 519 688 505 677C490 666 492 650 515 650ZM375 750Z" glyph-name="Ebreve" horiz-adv-x="750" unicode="&#276;" /><glyph d="M0 0H60C88 0 110 22 110 50V300C110 328 88 350 60 350H0ZM263 222V170C263 142 285 120 313 120H658C739 120 675 0 730 0H750V350H630C578 350 585 274 546 274H313C285 274 263 251 263 222ZM0 400H60C88 400 110 422 110 450V600C110 628 120 650 148 650H0ZM704 586C702 558 697 531 658 531H313C285 531 263 509 263 481V450C263 422 285 400 313 400H750V650H666C694 650 704 628 704 600ZM0 0C13 0 22 38 22 175C22 312 13 350 0 350C-13 350 -22 312 -22 175C-22 38 -13 0 0 0ZM0 400C13 400 22 438 22 575C22 712 13 750 0 750C-13 750 -22 712 -22 575C-22 438 -13 400 0 400ZM375 750ZM0 650H217C249 650 258 668 244 686L215 724C201 742 185 750 158 750H0ZM750 650V750H592C565 750 549 742 535 724L506 686C492 668 501 650 533 650ZM388 750H362C348 750 336 744 340 724L348 680C351 663 363 658 375 658C387 658 399 663 402 681L410 724C414 744 402 750 388 750ZM375 750Z" glyph-name="Ecaron" horiz-adv-x="750" unicode="&#282;" /><glyph d="M0 750V650H168C190.2632 650 202.0271 659.001 215 676L244 714C258 732 249 750 217 750ZM750 750H533C501 750 492 732 506 714L535 676C547.9729 659.001 559.7368 650 582 650H750ZM388 650C402 650 413.7251 655.9775 410 676L402 719C399 737 386.6667 742 375 742C363.3333 742 351 737 348 720L340 676C336.3568 655.9624 348 650 362 650ZM375 750ZM0 0H60C88 0 110 22 110 50V300C110 328 88 350 60 350H0ZM263 222V170C263 142 285 120 313 120H658C739 120 675 0 730 0H750V350H630C578 350 585 274 546 274H313C285 274 263 251 263 222ZM0 400H60C88 400 110 422 110 450V600C110 628 120 650 148 650H0ZM704 586C702 558 697 531 658 531H313C285 531 263 509 263 481V450C263 422 285 400 313 400H750V650H666C694 650 704 628 704 600ZM0 0C13 0 22 38 22 175C22 312 13 350 0 350C-13 350 -22 312 -22 175C-22 38 -13 0 0 0ZM0 400C13 400 22 438 22 575C22 712 13 750 0 750C-13 750 -22 712 -22 575C-22 438 -13 400 0 400ZM375 750Z" glyph-name="Ecircumflex" horiz-adv-x="750" unicode="&#202;" /><glyph d="M221 650C231 650 235 653 235 657C235 667 214 668 214 700C214 732 235 733 235 743C235 747 231 750 221 750H0V650ZM529 650H750V750H529C519 750 515 747 515 743C515 733 536 732 536 700C536 668 515 667 515 657C515 653 519 650 529 650ZM411 650C421 650 425 653 425 657C425 667 404 668 404 700C404 732 425 733 425 743C425 747 421 750 411 750H370V650ZM339 650H391V750H339C329 750 325 747 325 743C325 733 346 732 346 700C346 668 325 667 325 657C325 653 329 650 339 650ZM375 750ZM0 0H60C88 0 110 22 110 50V300C110 328 88 350 60 350H0ZM263 222V170C263 142 285 120 313 120H658C739 120 675 0 730 0H750V350H630C578 350 585 274 546 274H313C285 274 263 251 263 222ZM0 400H60C88 400 110 422 110 450V600C110 628 120 650 148 650H0ZM704 586C702 558 697 531 658 531H313C285 531 263 509 263 481V450C263 422 285 400 313 400H750V650H666C694 650 704 628 704 600ZM0 0C13 0 22 38 22 175C22 312 13 350 0 350C-13 350 -22 312 -22 175C-22 38 -13 0 0 0ZM0 400C13 400 22 438 22 575C22 712 13 750 0 750C-13 750 -22 712 -22 575C-22 438 -13 400 0 400ZM375 750Z" glyph-name="Edieresis" horiz-adv-x="750" unicode="&#203;" /><glyph d="M0 0H60C88 0 110 22 110 50V300C110 328 88 350 60 350H0ZM263 222V170C263 142 285 120 313 120H658C739 120 675 0 730 0H750V350H630C578 350 585 274 546 274H313C285 274 263 251 263 222ZM0 400H60C88 400 110 422 110 450V600C110 628 120 650 148 650H0ZM704 586C702 558 697 531 658 531H313C285 531 263 509 263 481V450C263 422 285 400 313 400H750V650H666C694 650 704 628 704 600ZM0 0C13 0 22 38 22 175C22 312 13 350 0 350C-13 350 -22 312 -22 175C-22 38 -13 0 0 0ZM0 400C13 400 22 438 22 575C22 712 13 750 0 750C-13 750 -22 712 -22 575C-22 438 -13 400 0 400ZM375 750ZM316 650C326 650 330 653 330 657C330 667 309 668 309 700C309 732 330 733 330 743C330 747 326 750 316 750H0V650ZM434 650H750V750H434C424 750 420 747 420 743C420 733 441 732 441 700C441 668 420 667 420 657C420 653 424 650 434 650ZM375 750Z" glyph-name="Edotaccent" horiz-adv-x="750" unicode="&#278;" /><glyph d="M0 650H247C279 650 288 668 274 686L245 724C231 742 215 750 188 750H0ZM750 750H488C456 750 441 736 446 714L455 676C460 654 478 650 505 650H750ZM375 750ZM0 0H60C88 0 110 22 110 50V300C110 328 88 350 60 350H0ZM263 222V170C263 142 285 120 313 120H658C739 120 675 0 730 0H750V350H630C578 350 585 274 546 274H313C285 274 263 251 263 222ZM0 400H60C88 400 110 422 110 450V600C110 628 120 650 148 650H0ZM704 586C702 558 697 531 658 531H313C285 531 263 509 263 481V450C263 422 285 400 313 400H750V650H666C694 650 704 628 704 600ZM0 0C13 0 22 38 22 175C22 312 13 350 0 350C-13 350 -22 312 -22 175C-22 38 -13 0 0 0ZM0 400C13 400 22 438 22 575C22 712 13 750 0 750C-13 750 -22 712 -22 575C-22 438 -13 400 0 400ZM375 750Z" glyph-name="Egrave" horiz-adv-x="750" unicode="&#200;" /><glyph d="M0 0H60C88 0 110 22 110 50V300C110 328 88 350 60 350H0ZM263 222V170C263 142 285 120 313 120H658C739 120 675 0 730 0H750V350H630C578 350 585 274 546 274H313C285 274 263 251 263 222ZM0 400H60C88 400 110 422 110 450V600C110 628 120 650 148 650H0ZM704 586C702 558 697 531 658 531H313C285 531 263 509 263 481V450C263 422 285 400 313 400H750V650H666C694 650 704 628 704 600ZM0 0C13 0 22 38 22 175C22 312 13 350 0 350C-13 350 -22 312 -22 175C-22 38 -13 0 0 0ZM0 400C13 400 22 438 22 575C22 712 13 750 0 750C-13 750 -22 712 -22 575C-22 438 -13 400 0 400ZM375 750ZM750 750H517C485 750 475 737 475 714V682C475 659 486 650 525 650H750ZM0 750V650H225C264 650 275 659 275 682V714C275 737 265 750 233 750ZM375 750Z" glyph-name="Emacron" horiz-adv-x="750" unicode="&#274;" /><glyph d="M516 0H0V100H536C546 100 550 97 550 93C550 83 509 73 509 41C509 18 530 17 530 7C530 3 526 0 516 0ZM664 30H682C717 30 724 0 743 0H750V100H664C627 100 614 87 614 65C614 43 627 30 664 30ZM0 750H60C88 750 110 728 110 700V450C110 422 88 400 60 400H0ZM263 528V580C263 608 285 630 313 630H658C739 630 675 750 730 750H750V400H630C578 400 585 476 546 476H313C285 476 263 499 263 528ZM0 350H60C88 350 110 328 110 300V150C110 122 120 100 148 100H0ZM704 164C702 192 697 219 658 219H313C285 219 263 241 263 269V300C263 328 285 350 313 350H750V100H666C694 100 704 122 704 150ZM0 750C13 750 22 712 22 575C22 438 13 400 0 400C-13 400 -22 438 -22 575C-22 712 -13 750 0 750ZM0 350C13 350 22 312 22 175C22 38 13 0 0 0C-13 0 -22 38 -22 175C-22 312 -13 350 0 350ZM375 0Z" glyph-name="Eogonek" horiz-adv-x="750" unicode="&#280;" /><glyph d="M666 257C626 156 500 48 356 28C337 25 336 17 336 11C336 5 341 0 355 0H750V350C719 350 698 337 666 257ZM666 493C698 413 719 400 750 400V750H355C341 750 336 745 336 739C336 733 337 725 356 722C500 702 626 594 666 493ZM84 302C46.4657 312.8652 42 350 0 350V0H60C88 0 110 22 110 50V257C110 282 102 297 84 302ZM303 302H376C415 302 408 350 460 350H502C523 350 531 333 526 313C500 212 412 159 303 151C286 150 265 150 265 177V261C265 288 282 302 303 302ZM84 448C102 453 110 468 110 493V700C110 728 88 750 60 750H0V400C42 400 46.4657 437.1348 84 448ZM303 448C282 448 265 462 265 489V573C265 600 286 600 303 599C412 591 500 538 526 437C531 417 523 400 502 400H460C408 400 415 448 376 448ZM0 0C13 0 22 38 22 175C22 312 13 350 0 350C-13 350 -22 312 -22 175C-22 38 -13 0 0 0ZM0 400C13 400 22 438 22 575C22 712 13 750 0 750C-13 750 -22 712 -22 575C-22 438 -13 400 0 400Z" glyph-name="Eth" horiz-adv-x="750" unicode="&#208;" /><glyph d="M58 479C87 577 174 662 282 695C311 704 323 715 323 730C323 741 315 750 293 750H0V400C23 400 39 415 58 479ZM58 271C39 335 23 350 0 350V0H293C315 0 323 9 323 20C323 35 311 46 282 55C174 88 87 173 58 271ZM493 519C464 545 422 562 375 562C310 562 260 531 228 490C217 475 223 458 249 458H454C492 458 512 466 512 482C512 494 508 505 493 519ZM493 231C508 245 512 256 512 268C512 284 492 292 454 292H249C223 292 217 275 228 260C260 219 310 188 375 188C422 188 464 205 493 231ZM621 400H750V750H457C435 750 427 741 427 730C427 715 439 704 468 695C552 669 625 613 664 545C683 513 672 491 650 480L613 462C588 450 581 440 582 430C582 415 595 400 621 400ZM621 350C595 350 582 335 582 320C581 310 588 300 613 288L650 270C672 259 683 237 664 205C625 137 552 81 468 55C439 46 427 35 427 20C427 9 435 0 457 0H750V350ZM548 375C548 393.6429 541 404 519 404H214C196 404 187 390.5357 187 375C187 359.5333 196 346 214 346H519C541 346 548 356.6333 548 375ZM0 0C13 0 22 38 22 175C22 312 13 350 0 350C-13 350 -22 312 -22 175C-22 38 -13 0 0 0ZM0 400C13 400 22 438 22 575C22 712 13 750 0 750C-13 750 -22 712 -22 575C-22 438 -13 400 0 400ZM0 0C13 0 22 38 22 175C22 312 13 350 0 350C-13 350 -22 312 -22 175C-22 38 -13 0 0 0ZM0 400C13 400 22 438 22 575C22 712 13 750 0 750C-13 750 -22 712 -22 575C-22 438 -13 400 0 400ZM376 750Z" glyph-name="Euro" horiz-adv-x="750" unicode="&#8364;" /><glyph d="M0 0H60C88 0 110 22 110 50V300C110 328 88 350 60 350H0ZM263 450C263 422 285 400 313 400H750V750H730C675 750 739 631 658 631H313C285 631 263 609 263 581ZM0 400H60C88 400 110 423 110 452V700C110 728 88 750 60 750H0ZM263 222V50C263 22 285 0 313 0H750V350H650C598 350 605 274 566 274H313C285 274 263 251 263 222ZM0 0C13 0 22 38 22 175C22 312 13 350 0 350C-13 350 -22 312 -22 175C-22 38 -13 0 0 0ZM0 400C13 400 22 438 22 575C22 712 13 750 0 750C-13 750 -22 712 -22 575C-22 438 -13 400 0 400Z" glyph-name="F" horiz-adv-x="750" unicode="F" /><glyph d="M58 479C87 577 174 662 282 695C311 704 323 715 323 730C323 741 315 750 293 750H0V400C23 400 39 415 58 479ZM58 271C39 335 23 350 0 350V0H293C315 0 323 9 323 20C323 35 311 46 282 55C174 88 87 173 58 271ZM699 258V50C699 25 708 0 750 0V350C719 350 699 325 699 258ZM581 140C574 140 567 135 561 126C538 94 495.3282 62.6886 457 49C438 42 427 34 427 20C427 9 435 0 457 0H634C657 0 664 4 656 34C632.114 123.5726 600 140 581 140ZM315 347C315 330 332 309 362 309H525C542 309 548 298 542 283C521 226 466 187 375 187C272 187 187 272 187 375C187 478 272 564 375 564C422 564 472 545 503 509C530 473 503 435 465 435H362C334 435 315 419 315 392ZM591 435H628C686 435 701 400 750 400V750H457C435 750 427 741 427 730C427 715 439 704 468 695C540 673 600 633 637 578C658 547 645 524 623 513L583 493C558 480 551 471 552 461C552 448 565 435 591 435ZM0 0C13 0 22 38 22 175C22 312 13 350 0 350C-13 350 -22 312 -22 175C-22 38 -13 0 0 0ZM0 400C13 400 22 438 22 575C22 712 13 750 0 750C-13 750 -22 712 -22 575C-22 438 -13 400 0 400Z" glyph-name="G" horiz-adv-x="750" unicode="G" /><glyph d="M58 271C39 335 23 350 0 350V0H293C315 0 323 9 323 20C323 35 311 46 282 55C174 88 87 173 58 271ZM699 258V50C699 25 708 0 750 0V350C719 350 699 325 699 258ZM581 140C574 140 567 135 561 126C538 94 495 63 457 49C438 42 427 34 427 20C427 9 435 0 457 0H634C657 0 664 4 656 34C632 124 600 140 581 140ZM315 347C315 330 332 309 362 309H525C542 309 548 298 542 283C521 226 466 187 375 187C272 187 187 272 187 375C187 488 262 564 375 564C422 564 472 545 503 509C530 473 503 435 465 435H362C334 435 315 419 315 392ZM175 650H0V400C23 400 36 415 58 479C96 588 118 650 175 650ZM647 578C667 546 663 533 623 513L583 493C558 480 551 471 552 461C552 448 565 435 591 435H628C686 435 701 400 750 400V650H573C600 650 613 633 647 578ZM0 0C13 0 22 38 22 175C22 312 13 350 0 350C-13 350 -22 312 -22 175C-22 38 -13 0 0 0ZM0 400C13 400 22 438 22 575C22 712 13 750 0 750C-13 750 -22 712 -22 575C-22 438 -13 400 0 400Z" glyph-name="G.acc" horiz-adv-x="750" /><glyph d="M0 750V650H168C190.2632 650 202.0271 659.001 215 676L244 714C258 732 249 750 217 750ZM750 750H533C501 750 492 732 506 714L535 676C547.9729 659.001 559.7368 650 582 650H750ZM388 650C402 650 413.7251 655.9775 410 676L402 719C399 737 386.6667 742 375 742C363.3333 742 351 737 348 720L340 676C336.3568 655.9624 348 650 362 650ZM375 750ZM58 271C39 335 23 350 0 350V0H293C315 0 323 9 323 20C323 35 311 46 282 55C174 88 87 173 58 271ZM699 258V50C699 25 708 0 750 0V350C719 350 699 325 699 258ZM581 140C574 140 567 135 561 126C538 94 495 63 457 49C438 42 427 34 427 20C427 9 435 0 457 0H634C657 0 664 4 656 34C632 124 600 140 581 140ZM315 347C315 330 332 309 362 309H525C542 309 548 298 542 283C521 226 466 187 375 187C272 187 187 272 187 375C187 488 262 564 375 564C422 564 472 545 503 509C530 473 503 435 465 435H362C334 435 315 419 315 392ZM175 650H0V400C23 400 36 415 58 479C96 588 118 650 175 650ZM647 578C667 546 663 533 623 513L583 493C558 480 551 471 552 461C552 448 565 435 591 435H628C686 435 701 400 750 400V650H573C600 650 613 633 647 578ZM0 0C13 0 22 38 22 175C22 312 13 350 0 350C-13 350 -22 312 -22 175C-22 38 -13 0 0 0ZM0 400C13 400 22 438 22 575C22 712 13 750 0 750C-13 750 -22 712 -22 575C-22 438 -13 400 0 400Z" glyph-name="Gcircumflex" horiz-adv-x="750" unicode="&#284;" /><glyph d="M0 0C13 0 22 38 22 175C22 312 13 350 0 350C-13 350 -22 312 -22 175C-22 38 -13 0 0 0ZM0 400C13 400 22 438 22 575C22 712 13 750 0 750C-13 750 -22 712 -22 575C-22 438 -13 400 0 400ZM316 650C326 650 330 653 330 657C330 667 309 668 309 700C309 732 330 733 330 743C330 747 326 750 316 750H0V650ZM434 650H750V750H434C424 750 420 747 420 743C420 733 441 732 441 700C441 668 420 667 420 657C420 653 424 650 434 650ZM375 750ZM58 271C39 335 23 350 0 350V0H293C315 0 323 9 323 20C323 35 311 46 282 55C174 88 87 173 58 271ZM699 258V50C699 25 708 0 750 0V350C719 350 699 325 699 258ZM581 140C574 140 567 135 561 126C538 94 495 63 457 49C438 42 427 34 427 20C427 9 435 0 457 0H634C657 0 664 4 656 34C632 124 600 140 581 140ZM315 347C315 330 332 309 362 309H525C542 309 548 298 542 283C521 226 466 187 375 187C272 187 187 272 187 375C187 488 262 564 375 564C422 564 472 545 503 509C530 473 503 435 465 435H362C334 435 315 419 315 392ZM175 650H0V400C23 400 36 415 58 479C96 588 118 650 175 650ZM647 578C667 546 663 533 623 513L583 493C558 480 551 471 552 461C552 448 565 435 591 435H628C686 435 701 400 750 400V650H573C600 650 613 633 647 578ZM0 0C13 0 22 38 22 175C22 312 13 350 0 350C-13 350 -22 312 -22 175C-22 38 -13 0 0 0ZM0 400C13 400 22 438 22 575C22 712 13 750 0 750C-13 750 -22 712 -22 575C-22 438 -13 400 0 400Z" glyph-name="Gdotaccent" horiz-adv-x="750" unicode="&#288;" /><glyph d="M0 0H60C88 0 110 22 110 50V300C110 328 88 350 60 350H0ZM265 489C265 461 287 439 315 439H435C463 439 485 461 485 489V700C485 728 463 750 435 750H315C287 750 265 728 265 700ZM265 50C265 22 287 0 315 0H435C463 0 485 22 485 50V270C485 298 463 320 435 320H315C287 320 265 298 265 270ZM640 50C640 22 662 0 690 0H750V350H690C662 350 640 328 640 300ZM0 400H60C88 400 110 422 110 450V700C110 728 88 750 60 750H0ZM640 450C640 422 662 400 690 400H750V750H690C662 750 640 728 640 700ZM0 0C13 0 22 38 22 175C22 312 13 350 0 350C-13 350 -22 312 -22 175C-22 38 -13 0 0 0ZM0 400C13 400 22 438 22 575C22 712 13 750 0 750C-13 750 -22 712 -22 575C-22 438 -13 400 0 400Z" glyph-name="H" horiz-adv-x="750" unicode="H" /><glyph d="M0 0H60C88 0 110 22 110 50V300C110 328 88 350 60 350H0ZM265 439C265 411 287 389 315 389H435C463 389 485 411 485 439V570C485 598 463 620 435 620H315C287 620 265 598 265 570ZM265 50C265 22 287 0 315 0H435C463 0 485 22 485 50V220C485 248 463 270 435 270H315C287 270 265 248 265 220ZM640 50C640 22 662 0 690 0H750V350H690C662 350 640 328 640 300ZM110 600C110 627 122.2105 650 148 650H0V400H60C88 400 110 422 110 450ZM640 600V450C640 422 662 400 690 400H750V650H602C630 650 640 628 640 600ZM0 0C13 0 22 38 22 175C22 312 13 350 0 350C-13 350 -22 312 -22 175C-22 38 -13 0 0 0ZM0 400C13 400 22 438 22 575C22 712 13 750 0 750C-13 750 -22 712 -22 575C-22 438 -13 400 0 400ZM0 750V650H168C190.2632 650 202.0271 659.001 215 676L244 714C258 732 249 750 217 750ZM750 750H533C501 750 492 732 506 714L535 676C547.9729 659.001 559.7368 650 582 650H750ZM388 650C402 650 413.7251 655.9775 410 676L402 719C399 737 386.6667 742 375 742C363.3333 742 351 737 348 720L340 676C336.3568 655.9624 348 650 362 650ZM375 750Z" glyph-name="Hcircumflex" horiz-adv-x="750" unicode="&#292;" /><glyph d="M0 0H60C88 0 110 22 110 50V300C110 328 88 350 60 350H0ZM0 400H60C88 400 110 423 110 452V700C110 728 88 750 60 750H0ZM375 0V350H315C287 350 265 328 265 300V50C265 22 287 0 315 0ZM375 400V750H315C287 750 265 728 265 700V452C265 423 287 400 315 400ZM0 0C13 0 22 38 22 175C22 312 13 350 0 350C-13 350 -22 312 -22 175C-22 38 -13 0 0 0ZM0 400C13 400 22 438 22 575C22 712 13 750 0 750C-13 750 -22 712 -22 575C-22 438 -13 400 0 400Z" glyph-name="I" horiz-adv-x="375" unicode="I" /><glyph d="M627 264C599 169 521 85 421 55C392 46 380 35 380 20C380 9 388 0 410 0H750V350H720C683 350 650 339 627 264ZM750 400V750H688C660 750 638 728 638 700V452C638 423 660 400 688 400ZM128 350H0V0H283C305 0 313 9 313 20C313 35 301 46 272 55C193 79 115 154 78 240C66 268 90 283 128 300C169 318 180 323 178 336C176 346 162 350 128 350ZM229 307C238 248 290 193 358 193C425.6471 193 464.011 252.0561 473 298C479 328 465 350 441 350H263C233 350 224 336 229 307ZM440 400C472 400 483 416 483 441V700C483 728 461 750 433 750H340V400ZM0 400H60C88 400 110 423 110 452V700C110 728 88 750 60 750H0ZM375 400V750H315C287 750 265 728 265 700V452C265 423 287 400 315 400ZM0 0C13 0 22 38 22 175C22 312 13 350 0 350C-13 350 -22 312 -22 175C-22 38 -13 0 0 0ZM0 400C13 400 22 438 22 575C22 712 13 750 0 750C-13 750 -22 712 -22 575C-22 438 -13 400 0 400ZM0 0C13 0 22 38 22 175C22 312 13 350 0 350C-13 350 -22 312 -22 175C-22 38 -13 0 0 0ZM0 400C13 400 22 438 22 575C22 712 13 750 0 750C-13 750 -22 712 -22 575C-22 438 -13 400 0 400Z" glyph-name="IJ" horiz-adv-x="750" unicode="&#306;" /><glyph d="M450 300V189C450 161 472 139 500 139H609C724 139 655 0 750 0V350H500C472 350 450 328 450 300ZM300 300C300 328 278 350 250 350H0V0C94 0 26 139 141 139H250C278 139 300 161 300 189ZM658 511H500C472 511 450 489 450 461V450C450 422 472 400 500 400H750V650H666C694 650 704 628 704 600V566C704 538 697 511 658 511ZM92 511C53 511 46 538 46 566V600C46 628 56 650 84 650H0V400H250C278 400 300 422 300 450V461C300 489 278 511 250 511ZM0 0C13 0 22 38 22 175C22 312 13 350 0 350C-13 350 -22 312 -22 175C-22 38 -13 0 0 0ZM0 400C13 400 22 438 22 575C22 712 13 750 0 750C-13 750 -22 712 -22 575C-22 438 -13 400 0 400ZM375 750ZM750 650V750H562C535 750 519 742 505 724L476 686C462 668 471 650 503 650ZM0 750V650H245C272 650 290 654 295 676L304 714C309 736 294 750 262 750ZM375 750Z" glyph-name="Iacute" horiz-adv-x="750" unicode="&#205;" /><glyph d="M450 300V189C450 161 472 139 500 139H609C724 139 655 0 750 0V350H500C472 350 450 328 450 300ZM300 300C300 328 278 350 250 350H0V0C94 0 26 139 141 139H250C278 139 300 161 300 189ZM658 511H500C472 511 450 489 450 461V450C450 422 472 400 500 400H750V650H666C694 650 704 628 704 600V566C704 538 697 511 658 511ZM92 511C53 511 46 538 46 566V600C46 628 56 650 84 650H0V400H250C278 400 300 422 300 450V461C300 489 278 511 250 511ZM0 0C13 0 22 38 22 175C22 312 13 350 0 350C-13 350 -22 312 -22 175C-22 38 -13 0 0 0ZM0 400C13 400 22 438 22 575C22 712 13 750 0 750C-13 750 -22 712 -22 575C-22 438 -13 400 0 400ZM375 750ZM0 650H235C258 650 260 666 245 677C231 688 219 706 213 729C208 747 191 750 164 750H0ZM388 750H362C348 750 335 744 340 724L342 716C346 699 363 694 375 694C387 694 404 701 408 717L410 724C416 746 402 750 388 750ZM750 650V750H586C559 750 542 747 537 729C531 706 519 688 505 677C490 666 492 650 515 650ZM375 750Z" glyph-name="Ibreve" horiz-adv-x="750" unicode="&#300;" /><glyph d="M450 300V189C450 161 472 139 500 139H609C724 139 655 0 750 0V350H500C472 350 450 328 450 300ZM300 300C300 328 278 350 250 350H0V0C94 0 26 139 141 139H250C278 139 300 161 300 189ZM658 511H500C472 511 450 489 450 461V450C450 422 472 400 500 400H750V650H666C694 650 704 628 704 600V566C704 538 697 511 658 511ZM92 511C53 511 46 538 46 566V600C46 628 56 650 84 650H0V400H250C278 400 300 422 300 450V461C300 489 278 511 250 511ZM0 0C13 0 22 38 22 175C22 312 13 350 0 350C-13 350 -22 312 -22 175C-22 38 -13 0 0 0ZM0 400C13 400 22 438 22 575C22 712 13 750 0 750C-13 750 -22 712 -22 575C-22 438 -13 400 0 400ZM375 750ZM0 750V650H168C190.2632 650 202.0271 659.001 215 676L244 714C258 732 249 750 217 750ZM750 750H533C501 750 492 732 506 714L535 676C547.9729 659.001 559.7368 650 582 650H750ZM388 650C402 650 413.7251 655.9775 410 676L402 719C399 737 386.6667 742 375 742C363.3333 742 351 737 348 720L340 676C336.3568 655.9624 348 650 362 650ZM375 750Z" glyph-name="Icircumflex" horiz-adv-x="750" unicode="&#206;" /><glyph d="M450 300V189C450 161 472 139 500 139H609C724 139 655 0 750 0V350H500C472 350 450 328 450 300ZM300 300C300 328 278 350 250 350H0V0C94 0 26 139 141 139H250C278 139 300 161 300 189ZM658 511H500C472 511 450 489 450 461V450C450 422 472 400 500 400H750V650H666C694 650 704 628 704 600V566C704 538 697 511 658 511ZM92 511C53 511 46 538 46 566V600C46 628 56 650 84 650H0V400H250C278 400 300 422 300 450V461C300 489 278 511 250 511ZM0 0C13 0 22 38 22 175C22 312 13 350 0 350C-13 350 -22 312 -22 175C-22 38 -13 0 0 0ZM0 400C13 400 22 438 22 575C22 712 13 750 0 750C-13 750 -22 712 -22 575C-22 438 -13 400 0 400ZM375 750ZM221 650C231 650 235 653 235 657C235 667 214 668 214 700C214 732 235 733 235 743C235 747 231 750 221 750H0V650ZM529 650H750V750H529C519 750 515 747 515 743C515 733 536 732 536 700C536 668 515 667 515 657C515 653 519 650 529 650ZM411 650C421 650 425 653 425 657C425 667 404 668 404 700C404 732 425 733 425 743C425 747 421 750 411 750H370V650ZM339 650H391V750H339C329 750 325 747 325 743C325 733 346 732 346 700C346 668 325 667 325 657C325 653 329 650 339 650ZM375 750Z" glyph-name="Idieresis" horiz-adv-x="750" unicode="&#207;" /><glyph d="M450 300V189C450 161 472 139 500 139H609C724 139 655 0 750 0V350H500C472 350 450 328 450 300ZM300 300C300 328 278 350 250 350H0V0C94 0 26 139 141 139H250C278 139 300 161 300 189ZM658 511H500C472 511 450 489 450 461V450C450 422 472 400 500 400H750V650H666C694 650 704 628 704 600V566C704 538 697 511 658 511ZM92 511C53 511 46 538 46 566V600C46 628 56 650 84 650H0V400H250C278 400 300 422 300 450V461C300 489 278 511 250 511ZM0 0C13 0 22 38 22 175C22 312 13 350 0 350C-13 350 -22 312 -22 175C-22 38 -13 0 0 0ZM0 400C13 400 22 438 22 575C22 712 13 750 0 750C-13 750 -22 712 -22 575C-22 438 -13 400 0 400ZM375 750ZM316 650C326 650 330 653 330 657C330 667 309 668 309 700C309 732 330 733 330 743C330 747 326 750 316 750H0V650ZM434 650H750V750H434C424 750 420 747 420 743C420 733 441 732 441 700C441 668 420 667 420 657C420 653 424 650 434 650ZM375 750Z" glyph-name="Idotaccent" horiz-adv-x="750" unicode="&#304;" /><glyph d="M450 300V189C450 161 472 139 500 139H609C724 139 655 0 750 0V350H500C472 350 450 328 450 300ZM300 300C300 328 278 350 250 350H0V0C94 0 26 139 141 139H250C278 139 300 161 300 189ZM658 511H500C472 511 450 489 450 461V450C450 422 472 400 500 400H750V650H666C694 650 704 628 704 600V566C704 538 697 511 658 511ZM92 511C53 511 46 538 46 566V600C46 628 56 650 84 650H0V400H250C278 400 300 422 300 450V461C300 489 278 511 250 511ZM0 0C13 0 22 38 22 175C22 312 13 350 0 350C-13 350 -22 312 -22 175C-22 38 -13 0 0 0ZM0 400C13 400 22 438 22 575C22 712 13 750 0 750C-13 750 -22 712 -22 575C-22 438 -13 400 0 400ZM375 750ZM0 650H247C279 650 288 668 274 686L245 724C231 742 215 750 188 750H0ZM750 750H488C456 750 441 736 446 714L455 676C460 654 478 650 505 650H750ZM375 750Z" glyph-name="Igrave" horiz-adv-x="750" unicode="&#204;" /><glyph d="M450 300V189C450 161 472 139 500 139H609C724 139 655 0 750 0V350H500C472 350 450 328 450 300ZM300 300C300 328 278 350 250 350H0V0C94 0 26 139 141 139H250C278 139 300 161 300 189ZM658 511H500C472 511 450 489 450 461V450C450 422 472 400 500 400H750V650H666C694 650 704 628 704 600V566C704 538 697 511 658 511ZM92 511C53 511 46 538 46 566V600C46 628 56 650 84 650H0V400H250C278 400 300 422 300 450V461C300 489 278 511 250 511ZM0 0C13 0 22 38 22 175C22 312 13 350 0 350C-13 350 -22 312 -22 175C-22 38 -13 0 0 0ZM0 400C13 400 22 438 22 575C22 712 13 750 0 750C-13 750 -22 712 -22 575C-22 438 -13 400 0 400ZM375 750ZM750 750H517C485 750 475 737 475 714V682C475 659 486 650 525 650H750ZM0 750V650H225C264 650 275 659 275 682V714C275 737 265 750 233 750ZM375 750Z" glyph-name="Imacron" horiz-adv-x="750" unicode="&#298;" /><glyph d="M266 0H0V100H286C296 100 300 97 300 93C300 83 259 73 259 41C259 18 280 17 280 7C280 3 276 0 266 0ZM414 30H432C467 30 474 0 493 0H750V100H414C377 100 364 87 364 65C364 43 377 30 414 30ZM450 450V561C450 589 472 611 500 611H609C724 611 655 750 750 750V400H500C472 400 450 422 450 450ZM300 450C300 422 278 400 250 400H0V750C94 750 26 611 141 611H250C278 611 300 589 300 561ZM658 239H500C472 239 450 261 450 289V300C450 328 472 350 500 350H750V100H666C694 100 704 122 704 150V184C704 212 697 239 658 239ZM92 239C53 239 46 212 46 184V150C46 122 56 100 84 100H0V350H250C278 350 300 328 300 300V289C300 261 278 239 250 239ZM0 750C13 750 22 712 22 575C22 438 13 400 0 400C-13 400 -22 438 -22 575C-22 712 -13 750 0 750ZM0 350C13 350 22 312 22 175C22 38 13 0 0 0C-13 0 -22 38 -22 175C-22 312 -13 350 0 350ZM375 0Z" glyph-name="Iogonek" horiz-adv-x="750" unicode="&#302;" /><glyph d="M450 300V189C450 161 472 139 500 139H609C724 139 655 0 750 0V350H500C472 350 450 328 450 300ZM300 300C300 328 278 350 250 350H0V0C94 0 26 139 141 139H250C278 139 300 161 300 189ZM658 511H500C472 511 450 489 450 461V450C450 422 472 400 500 400H750V650H666C694 650 704 628 704 600V566C704 538 697 511 658 511ZM92 511C53 511 46 538 46 566V600C46 628 56 650 84 650H0V400H250C278 400 300 422 300 450V461C300 489 278 511 250 511ZM0 0C13 0 22 38 22 175C22 312 13 350 0 350C-13 350 -22 312 -22 175C-22 38 -13 0 0 0ZM0 400C13 400 22 438 22 575C22 712 13 750 0 750C-13 750 -22 712 -22 575C-22 438 -13 400 0 400ZM375 750ZM0 750V650H182C209 650 231 654 232 676C234 718 279 717 279 735C279 745 271 750 244 750ZM291 665C291 674 299 681 308 681C332 681 362 670 362 660C362 654 357 650 345 650C337 650 314 650 307 650C297 650 291 656 291 665ZM750 650V750H568C541 750 519 746 518 724C516 682 471 683 471 665C471 655 479 650 506 650ZM459 735C459 726 451 719 442 719C418 719 388 730 388 740C388 746 393 750 405 750C413 750 436 750 443 750C453 750 459 744 459 735ZM375 750Z" glyph-name="Itilde" horiz-adv-x="750" unicode="&#296;" /><glyph d="M627 264C599.0189 169.0642 521.4975 85.3586 421 55C392 46 380 35 380 20C380 9 388 0 410 0H750V350H720C683.1207 350 650 339 627 264ZM750 400V750H688C660 750 638 728 638 700V452C638 423 660 400 688 400ZM128 350H0V0H283C305 0 313 9 313 20C313 35 301 46 272 55C192.7222 78.8788 114.7556 154.237 78 240C66 268 90 283 128 300C169 318 180 323 178 336C176 346 162 350 128 350ZM229 307C238.0459 247.6988 290 193 358 193C425.6471 193 464.011 252.0561 473 298C479 328 465 350 441 350H263C233 350 224 336 229 307ZM440 400C472 400 483 416 483 441V700C483 728 461 750 433 750H0V400ZM0 0C13 0 22 38 22 175C22 312 13 350 0 350C-13 350 -22 312 -22 175C-22 38 -13 0 0 0ZM0 400C13 400 22 438 22 575C22 712 13 750 0 750C-13 750 -22 712 -22 575C-22 438 -13 400 0 400Z" glyph-name="J" horiz-adv-x="750" unicode="J" /><glyph d="M627 264C599 169 521 85 421 55C392 46 380 35 380 20C380 9 388 0 410 0H750V350H720C683 350 650 339 627 264ZM128 350H0V0H283C305 0 313 9 313 20C313 35 301 46 272 55C193 79 115 154 78 240C66 268 90 283 128 300C169 318 180 323 178 336C176 346 162 350 128 350ZM229 307C238 248 290 193 358 193C426 193 464 252 473 298C479 328 465 350 441 350H263C233 350 224 336 229 307ZM0 750V400H440C472 400 483 416 483 441V600C483 628 461 650 433 650H410C383 650 380 662 391 676L420 714C434 732 425 750 393 750ZM564 650C578 650 590 656 586 676L578 719C575 737 563 742 551 742C539 742 527 737 524 720L516 676C512 656 524 650 538 650ZM750 400V750H709C677 750 668 732 682 714L711 676C722 662 721 656 703 650C664.4861 637.162 638 628 638 600V452C638 423 660 400 688 400ZM0 0C13 0 22 38 22 175C22 312 13 350 0 350C-13 350 -22 312 -22 175C-22 38 -13 0 0 0ZM0 400C13 400 22 438 22 575C22 712 13 750 0 750C-13 750 -22 712 -22 575C-22 438 -13 400 0 400Z" glyph-name="Jcircumflex" horiz-adv-x="750" unicode="&#308;" /><glyph d="M0 0H60C88 0 110 22 110 50V300C110 328 88 350 60 350H0ZM265 489C265 461 287 439 315 439H356V750H315C287 750 265 728 265 700ZM265 50C265 22 287 0 315 0H352V320H315C287 320 265 298 265 270ZM0 400H60C88 400 110 422 110 450V700C110 728 88 750 60 750H0ZM750 400V750C702.1569 750 691 725 628 601L551 450C539 426 551 400 578 400ZM750 350H578C551 350 539 324 551 300L628 149C691 25 702.1569 0 750 0ZM340 750 355 439C395 439 407 463 457 588L502 700C512 724 499 750 472 750ZM340 0H472C499 0 512 26 502 50L453 171C402 296 391 320 351 320ZM0 0C13 0 22 38 22 175C22 312 13 350 0 350C-13 350 -22 312 -22 175C-22 38 -13 0 0 0ZM0 400C13 400 22 438 22 575C22 712 13 750 0 750C-13 750 -22 712 -22 575C-22 438 -13 400 0 400Z" glyph-name="K" horiz-adv-x="750" unicode="K" /><glyph d="M0 750V400H60C88 400 110 422 110 450V700C110 728 88 750 60 750ZM263 300V170C263 142 285 120 313 120H658C739 120 675 0 730 0H750V350H313C285 350 263 328 263 300ZM0 350V0H60C88 0 110 22 110 50V298C110 327 88 350 60 350ZM263 452C263 423 285 400 313 400H750V750H313C285 750 263 728 263 700ZM0 0C13 0 22 38 22 175C22 312 13 350 0 350C-13 350 -22 312 -22 175C-22 38 -13 0 0 0ZM0 400C13 400 22 438 22 575C22 712 13 750 0 750C-13 750 -22 712 -22 575C-22 438 -13 400 0 400Z" glyph-name="L" horiz-adv-x="750" unicode="L" /><glyph d="M0 750V400H60C88 400 110 422 110 450V700C110 728 88 750 60 750ZM263 300V170C263 142 285 120 313 120H658C739 120 675 0 730 0H750V260H369L372 350H313C285 350 263 328 263 300ZM0 350V0H60C88 0 110 22 110 50V298C110 327 88 350 60 350ZM750 220V350H730C675 350 739 260 658 260ZM563 452C563 423 585 400 613 400H750V750H613C585 750 563 728 563 700ZM263 452C263 423 285 400 313 400H360C388 400 410 422 410 450V700C410 728 388 750 360 750H313C285 750 263 728 263 700ZM364 220 456 260C375 260 439 350 384 350H364ZM0 0C13 0 22 38 22 175C22 312 13 350 0 350C-13 350 -22 312 -22 175C-22 38 -13 0 0 0ZM0 400C13 400 22 438 22 575C22 712 13 750 0 750C-13 750 -22 712 -22 575C-22 438 -13 400 0 400Z" glyph-name="L_L" horiz-adv-x="750" /><glyph d="M0 750V400H60C88 400 110 422 110 450V700C110 728 88 750 60 750ZM0 350V0H60C88 0 110 22 110 50V298C110 327 88 350 60 350ZM825 450C825 422 847 400 875 400H1125V750C1030 750 1099 611 984 611H875C847 611 825 589 825 561ZM1125 0V350H875C847 350 825 328 825 300V50C825 22 847 0 875 0ZM263 452C263 423 285 400 313 400H625C653 400 675 422 675 450V561C675 589 653 611 625 611H516C401 611 469 750 375 750H313C285 750 263 728 263 700ZM263 300V169C263 141 285 119 313 119H528C609 119 545 0 600 0H625C653 0 675 22 675 50V300C675 328 653 350 625 350H313C285 350 263 328 263 300ZM0 0C13 0 22 38 22 175C22 312 13 350 0 350C-13 350 -22 312 -22 175C-22 38 -13 0 0 0ZM0 400C13 400 22 438 22 575C22 712 13 750 0 750C-13 750 -22 712 -22 575C-22 438 -13 400 0 400Z" glyph-name="L_T" horiz-adv-x="1125" /><glyph d="M263 300V170C263 142 285 120 313 120H658C739 120 675 0 730 0H750V350H313C285 350 263 328 263 300ZM0 350V0H60C88 0 110 22 110 50V298C110 327 88 350 60 350ZM0 400H60C88 400 110 422 110 450V578C110 609 118 644 130 676L144 714C152 736 134 750 102 750H0ZM750 750H402C375 750 359 742 345 724L316 686C288 650 263 616 263 575V452C263 423 285 400 313 400H750ZM0 0C13 0 22 38 22 175C22 312 13 350 0 350C-13 350 -22 312 -22 175C-22 38 -13 0 0 0ZM0 400C13 400 22 438 22 575C22 712 13 750 0 750C-13 750 -22 712 -22 575C-22 438 -13 400 0 400Z" glyph-name="Lacute" horiz-adv-x="750" unicode="&#313;" /><glyph d="M0 750V400H60C88 400 110 422 110 450V700C110 728 88 750 60 750ZM263 300V170C263 142 285 120 313 120H658C739 120 675 0 730 0H750V350H313C285 350 263 328 263 300ZM0 350V0H60C88 0 110 22 110 50V298C110 327 88 350 60 350ZM263 452C263 423 285 400 313 400H350V750H313C285 750 263 728 263 700ZM461 400H750V750H555C534 750 526 746 526 734C526 726 529 721 546 714C595 694 631 646 631 604C631 537 555 475 460 433C444 426 438 421 438 414C438 407 445 400 461 400ZM310 400H361C375 400 382 409 382 421C382 456 364 524 364 590C364 646 400 694 449 714C466 721 469 726 469 734C469 746 461 750 440 750H310ZM0 0C13 0 22 38 22 175C22 312 13 350 0 350C-13 350 -22 312 -22 175C-22 38 -13 0 0 0ZM0 400C13 400 22 438 22 575C22 712 13 750 0 750C-13 750 -22 712 -22 575C-22 438 -13 400 0 400Z" glyph-name="Lcaron" horiz-adv-x="750" unicode="&#317;" /><glyph d="M0 750V400H60C88 400 110 422 110 450V700C110 728 88 750 60 750ZM263 300V170C263 142 285 120 313 120H658C739 120 675 0 730 0H750V350H313C285 350 263 328 263 300ZM0 350V0H60C88 0 110 22 110 50V298C110 327 88 350 60 350ZM263 452C263 423 285 400 313 400H350V750H313C285 750 263 728 263 700ZM325 750V400H455C476 400 484 404 484 416C484 424 481 429 464 436C415 456 379 504 379 560C379 633 439 694 512 694C586 694 646 633 646 560C646 504 610 456 561 436C544 429 541 424 541 416C541 404 549 400 570 400H750V750ZM0 0C13 0 22 38 22 175C22 312 13 350 0 350C-13 350 -22 312 -22 175C-22 38 -13 0 0 0ZM0 400C13 400 22 438 22 575C22 712 13 750 0 750C-13 750 -22 712 -22 575C-22 438 -13 400 0 400Z" glyph-name="Ldot" horiz-adv-x="750" unicode="&#319;" /><glyph d="M0 750V400H60C88 400 110 422 110 450V700C110 728 88 750 60 750ZM76 186C60.041 178.9071 51 184 51 201V303C51 326 78 329 78 343C78 347 75 350 67 350H0V0H60C88 0 110 22 110 50V175C110 192 100.959 197.0929 85 190ZM288 295C262.7968 282.3984 263 282 263 254V170C263 142 285 120 313 120H658C739 120 675 0 730 0H750V350H425C406 350 388 345 372 337ZM263 454C263 437 273 431 288 439L594 595C615 606 635 594 635 574V511C635 483 625 467 600 454L531 419C517 412 520 400 537 400H750V750H313C285 750 263 728 263 700ZM0 0C13 0 22 38 22 175C22 312 13 350 0 350C-13 350 -22 312 -22 175C-22 38 -13 0 0 0ZM0 400C13 400 22 438 22 575C22 712 13 750 0 750C-13 750 -22 712 -22 575C-22 438 -13 400 0 400Z" glyph-name="Lslash" horiz-adv-x="750" unicode="&#321;" /><glyph d="M0 0H60C88 0 110 22 110 50V300C110 328 88 350 60 350H0ZM1390 50C1390 22 1412 0 1440 0H1500V350H1440C1412 350 1390 328 1390 300ZM0 400H60C88 400 110 422 110 450V700C110 728 88 750 60 750H0ZM1390 450C1390 422 1412 400 1440 400H1500V750H1440C1412 750 1390 728 1390 700ZM265 50C265 15 289 0 322 0H620C692 0 721 30 721 66C721 109 700 148 660 198L327 613C315 628 306 638 290 638C271 638 265 624 265 602ZM790 380 1045 700C1061 721 1046 750 1017 750H483C454 750 439 721 455 700L710 380C723 364 733 354 750 354C767 354 777 364 790 380ZM1235 50V602C1235 624 1229 638 1210 638C1194 638 1185 628 1173 613L840 198C800 148 779 109 779 66C779 30 808 0 880 0H1178C1211 0 1235 15 1235 50ZM0 0C13 0 22 38 22 175C22 312 13 350 0 350C-13 350 -22 312 -22 175C-22 38 -13 0 0 0ZM0 400C13 400 22 438 22 575C22 712 13 750 0 750C-13 750 -22 712 -22 575C-22 438 -13 400 0 400Z" glyph-name="M" horiz-adv-x="1500" unicode="M" /><glyph d="M0 0H60C88 0 110 22 110 50V300C110 328 88 350 60 350H0ZM1390 50C1390 22 1412 0 1440 0H1500V350H1440C1412 350 1390 328 1390 300ZM0 400H60C88 400 110 422 110 450V700C110 728 88 750 60 750H0ZM1390 450C1390 422 1412 400 1440 400H1500V750H1440C1412 750 1390 728 1390 700ZM265 42C265 7 291 -9 322 6L586 136C637 161 649 203 608 254L327 608C315 623 306 633 290 633C271 633 265 619 265 597ZM750 150C766 150 779 146 819 127L952 62C1002 38 1018 21 1018 12C1018 5 1010 0 985 0H515C490 0 482 5 482 12C482 21 498 38 548 62L681 127C721 146 734 150 750 150ZM790 380 1045 700C1061 721 1046 750 1017 750H483C454 750 439 721 455 700L710 380C723 364 733 354 750 354C767 354 777 364 790 380ZM1235 42V597C1235 619 1229 633 1210 633C1194 633 1185 623 1173 608L892 254C851 203 863 161 914 136L1178 6C1209 -9 1235 7 1235 42ZM0 0C13 0 22 38 22 175C22 312 13 350 0 350C-13 350 -22 312 -22 175C-22 38 -13 0 0 0ZM0 400C13 400 22 438 22 575C22 712 13 750 0 750C-13 750 -22 712 -22 575C-22 438 -13 400 0 400Z" glyph-name="M.2" horiz-adv-x="1500" /><glyph d="M0 0H60C88 0 110 22 110 50V300C110 328 88 350 60 350H0ZM1015 50C1015 22 1038 0 1067 0H1125V350H1067C1038 350 1015 328 1015 300ZM0 400H60C88 400 110 422 110 450V700C110 728 88 750 60 750H0ZM1015 450C1015 422 1038 400 1067 400H1125V750H1067C1038 750 1015 728 1015 700ZM265 42C265 17 282 0 307 0H602C640 0 656 23 642 50L337 640C323 667 311 680 290 680C271 680 265 659 265 627ZM860 708C860 733 843 750 818 750H523C485 750 469 727 483 700L788 110C802 83 814 70 835 70C854 70 860 91 860 123ZM0 0C13 0 22 38 22 175C22 312 13 350 0 350C-13 350 -22 312 -22 175C-22 38 -13 0 0 0ZM0 400C13 400 22 438 22 575C22 712 13 750 0 750C-13 750 -22 712 -22 575C-22 438 -13 400 0 400ZM522 750Z" glyph-name="N" horiz-adv-x="1125" unicode="N" /><glyph d="M0 0H32C60 0 82 22 82 50V300C82 328 60 350 32 350H0ZM672 50C672 22 694 0 722 0H750V350H722C694 350 672 328 672 300ZM199 42C199 17 216 0 241 0H321C359 0 379 21 371 50L261 450C253 479 245 500 224 500C205 500 199 479 199 447ZM120 650H0V400H32C60 400 82 422 82 450V600C82 628 92 650 120 650ZM634 650C662 650 672 628 672 600V450C672 422 694 400 722 400H750V650ZM433 650C395 650 375 629 383 600L493 200C501 171 509 150 530 150C549 150 555 171 555 203V600C555 628 565 650 593 650ZM0 0C13 0 22 38 22 175C22 312 13 350 0 350C-13 350 -22 312 -22 175C-22 38 -13 0 0 0ZM0 400C13 400 22 438 22 575C22 712 13 750 0 750C-13 750 -22 712 -22 575C-22 438 -13 400 0 400ZM375 750Z" glyph-name="N.acc" horiz-adv-x="750" /><glyph d="M750 650V750H562C535 750 519 742 505 724L476 686C456.6015 660.5813 448.4444 650 428 650ZM0 750V650H245C272 650 290 654 295 676L304 714C309 736 294 750 262 750ZM0 0H32C60 0 82 22 82 50V300C82 328 60 350 32 350H0ZM672 50C672 22 694 0 722 0H750V350H722C694 350 672 328 672 300ZM199 42C199 17 216 0 241 0H321C359 0 379 21 371 50L261 450C253 479 245 500 224 500C205 500 199 479 199 447ZM120 650H0V400H32C60 400 82 422 82 450V600C82 628 92 650 120 650ZM634 650C662 650 672 628 672 600V450C672 422 694 400 722 400H750V650ZM433 650C395 650 375 629 383 600L493 200C501 171 509 150 530 150C549 150 555 171 555 203V600C555 628 565 650 593 650ZM0 0C13 0 22 38 22 175C22 312 13 350 0 350C-13 350 -22 312 -22 175C-22 38 -13 0 0 0ZM0 400C13 400 22 438 22 575C22 712 13 750 0 750C-13 750 -22 712 -22 575C-22 438 -13 400 0 400ZM375 750Z" glyph-name="Nacute" horiz-adv-x="750" unicode="&#323;" /><glyph d="M0 650H217C249 650 258 668 244 686L215 724C201 742 185 750 158 750H0ZM750 650V750H592C565 750 549 742 535 724L506 686C485.4741 659.104 476 650 444 650ZM388 750H362C348 750 336 744 340 724L348 680C351 663 363 658 375 658C387 658 399 663 402 681L410 724C414 744 402 750 388 750ZM0 0H32C60 0 82 22 82 50V300C82 328 60 350 32 350H0ZM672 50C672 22 694 0 722 0H750V350H722C694 350 672 328 672 300ZM199 42C199 17 216 0 241 0H321C359 0 379 21 371 50L261 450C253 479 245 500 224 500C205 500 199 479 199 447ZM120 650H0V400H32C60 400 82 422 82 450V600C82 628 92 650 120 650ZM634 650C662 650 672 628 672 600V450C672 422 694 400 722 400H750V650ZM433 650C395 650 375 629 383 600L493 200C501 171 509 150 530 150C549 150 555 171 555 203V600C555 628 565 650 593 650ZM0 0C13 0 22 38 22 175C22 312 13 350 0 350C-13 350 -22 312 -22 175C-22 38 -13 0 0 0ZM0 400C13 400 22 438 22 575C22 712 13 750 0 750C-13 750 -22 712 -22 575C-22 438 -13 400 0 400ZM375 750Z" glyph-name="Ncaron" horiz-adv-x="750" unicode="&#327;" /><glyph d="M0 750V650H182C209 650 231 654 232 676C234 718 279 717 279 735C279 745 271 750 244 750ZM291 665C291 674 299 681 308 681C332 681 362 670 362 660C362 654 357 650 345 650C337 650 314 650 307 650C297 650 291 656 291 665ZM750 650V750H568C541 750 519 746 518 724C515.4885 671.2586 483 650 434 650ZM459 735C459 726 451 719 442 719C418 719 388 730 388 740C388 746 393 750 405 750C413 750 436 750 443 750C453 750 459 744 459 735ZM0 0H32C60 0 82 22 82 50V300C82 328 60 350 32 350H0ZM672 50C672 22 694 0 722 0H750V350H722C694 350 672 328 672 300ZM199 42C199 17 216 0 241 0H321C359 0 379 21 371 50L261 450C253 479 245 500 224 500C205 500 199 479 199 447ZM120 650H0V400H32C60 400 82 422 82 450V600C82 628 92 650 120 650ZM634 650C662 650 672 628 672 600V450C672 422 694 400 722 400H750V650ZM433 650C395 650 375 629 383 600L493 200C501 171 509 150 530 150C549 150 555 171 555 203V600C555 628 565 650 593 650ZM0 0C13 0 22 38 22 175C22 312 13 350 0 350C-13 350 -22 312 -22 175C-22 38 -13 0 0 0ZM0 400C13 400 22 438 22 575C22 712 13 750 0 750C-13 750 -22 712 -22 575C-22 438 -13 400 0 400ZM375 750Z" glyph-name="Ntilde" horiz-adv-x="750" unicode="&#209;" /><glyph d="M58 479C87 577 174 662 282 695C311 704 323 715 323 730C323 741 315 750 293 750H0V400C23 400 39 415 58 479ZM692 479C711 415 727 400 750 400V750H457C435 750 427 741 427 730C427 715 439 704 468 695C576 662 663 577 692 479ZM58 271C39 335 23 350 0 350V0H293C315 0 323 9 323 20C323 35 311 46 282 55C174 88 87 173 58 271ZM692 271C663 173 576 88 468 55C439 46 427 35 427 20C427 9 435 0 457 0H750V350C727 350 711 335 692 271ZM305 374C305 393 313 411 328 422C333 426 349 434 349 456V529C349 552 331 559 317 554C241 527 187 456 187 375C187 292 242 223 317 197C332 191 349 195 349 221V295C349 314 334 324 328 328C314 339 305 355 305 374ZM445 374C445 355 436 339 422 328C416 324 401 314 401 295V221C401 195 418 191 433 197C508 223 563 292 563 375C563 456 509 527 433 554C419 559 401 552 401 529V456C401 434 417 426 422 422C437 411 445 393 445 374ZM0 0C13 0 22 38 22 175C22 312 13 350 0 350C-13 350 -22 312 -22 175C-22 38 -13 0 0 0ZM0 400C13 400 22 438 22 575C22 712 13 750 0 750C-13 750 -22 712 -22 575C-22 438 -13 400 0 400Z" glyph-name="O" horiz-adv-x="750" unicode="O" /><glyph d="M47 292C40 331 23 350 0 350V0H293C315 0 323 9 323 20C323 31 310 39 282 45C167 69 75 145 47 292ZM703 292C676 145 583 69 468 45C440 39 427 31 427 20C427 9 435 0 457 0H750V350C727 350 710 331 703 292ZM355 569C246 569 190 500.4865 190 374C190 263.163 274 168 375 168C477 168 561 263.163 561 374C561 500.4865 506 569 396 569ZM53 458C73 594 125 650 173 650H0V400C26.0351 400 47 417 53 458ZM697 458C703 417 723.9649 400 750 400V650H577C626 650 677 594 697 458ZM0 0C13 0 22 38 22 175C22 312 13 350 0 350C-13 350 -22 312 -22 175C-22 38 -13 0 0 0ZM0 400C13 400 22 438 22 575C22 712 13 750 0 750C-13 750 -22 712 -22 575C-22 438 -13 400 0 400ZM375 750Z" glyph-name="O.acc" horiz-adv-x="750" /><glyph d="M84 257C52 337 31 350 0 350V0H395C409 0 414 5 414 11C414 17 413 25 394 28C250 48 124 156 84 257ZM485 177V573C485 598 463 600 447 599C316 589 217 516 217 375C217 234 318 161 447 151C464 150 485 150 485 177ZM84 493C124 594 250 702 394 722C413 725 414 733 414 739C414 745 409 750 395 750H0V400C31 400 52 413 84 493ZM640 489C640 461 662 439 690 439H921C960 439 953 400 1005 400H1125V750H1105C1050 750 1114 631 1033 631H690C662 631 640 609 640 581ZM640 261V170C640 142 662 120 690 120H1033C1114 120 1050 0 1105 0H1125V350H1005C953 350 960 313 921 313H690C662 313 640 290 640 261ZM0 0C13 0 22 38 22 175C22 312 13 350 0 350C-13 350 -22 312 -22 175C-22 38 -13 0 0 0ZM0 400C13 400 22 438 22 575C22 712 13 750 0 750C-13 750 -22 712 -22 575C-22 438 -13 400 0 400Z" glyph-name="OE" horiz-adv-x="1125" unicode="&#338;" /><glyph d="M750 650V750H562C535 750 519 742 505 724L476 686C462 668 471 650 503 650ZM0 750V650H245C272 650 290 654 295 676L304 714C309 736 294 750 262 750ZM375 750ZM47 292C40 331 23 350 0 350V0H293C315 0 323 9 323 20C323 31 310 39 282 45C167 69 75 145 47 292ZM703 292C676 145 583 69 468 45C440 39 427 31 427 20C427 9 435 0 457 0H750V350C727 350 710 331 703 292ZM355 569C246 569 190 500.4865 190 374C190 263.163 274 168 375 168C477 168 561 263.163 561 374C561 500.4865 506 569 396 569ZM53 458C73 594 125 650 173 650H0V400C26.0351 400 47 417 53 458ZM697 458C703 417 723.9649 400 750 400V650H577C626 650 677 594 697 458ZM0 0C13 0 22 38 22 175C22 312 13 350 0 350C-13 350 -22 312 -22 175C-22 38 -13 0 0 0ZM0 400C13 400 22 438 22 575C22 712 13 750 0 750C-13 750 -22 712 -22 575C-22 438 -13 400 0 400ZM375 750Z" glyph-name="Oacute" horiz-adv-x="750" unicode="&#211;" /><glyph d="M47 292C40 331 23 350 0 350V0H293C315 0 323 9 323 20C323 31 310 39 282 45C167 69 75 145 47 292ZM703 292C676 145 583 69 468 45C440 39 427 31 427 20C427 9 435 0 457 0H750V350C727 350 710 331 703 292ZM355 569C246 569 190 500.4865 190 374C190 263.163 274 168 375 168C477 168 561 263.163 561 374C561 500.4865 506 569 396 569ZM53 458C73 594 125 650 173 650H0V400C26.0351 400 47 417 53 458ZM697 458C703 417 723.9649 400 750 400V650H577C626 650 677 594 697 458ZM0 0C13 0 22 38 22 175C22 312 13 350 0 350C-13 350 -22 312 -22 175C-22 38 -13 0 0 0ZM0 400C13 400 22 438 22 575C22 712 13 750 0 750C-13 750 -22 712 -22 575C-22 438 -13 400 0 400ZM375 750ZM0 650H235C258 650 260 666 245 677C231 688 219 706 213 729C208 747 191 750 164 750H0ZM388 750H362C348 750 335 744 340 724L342 716C346 699 363 694 375 694C387 694 404 701 408 717L410 724C416 746 402 750 388 750ZM750 650V750H586C559 750 542 747 537 729C531 706 519 688 505 677C490 666 492 650 515 650ZM375 750Z" glyph-name="Obreve" horiz-adv-x="750" unicode="&#334;" /><glyph d="M0 750V650H168C190.2632 650 202.0271 659.001 215 676L244 714C258 732 249 750 217 750ZM750 750H533C501 750 492 732 506 714L535 676C547.9729 659.001 559.7368 650 582 650H750ZM388 650C402 650 413.7251 655.9775 410 676L402 719C399 737 386.6667 742 375 742C363.3333 742 351 737 348 720L340 676C336.3568 655.9624 348 650 362 650ZM375 750ZM47 292C40 331 23 350 0 350V0H293C315 0 323 9 323 20C323 31 310 39 282 45C167 69 75 145 47 292ZM703 292C676 145 583 69 468 45C440 39 427 31 427 20C427 9 435 0 457 0H750V350C727 350 710 331 703 292ZM355 569C246 569 190 500.4865 190 374C190 263.163 274 168 375 168C477 168 561 263.163 561 374C561 500.4865 506 569 396 569ZM53 458C73 594 125 650 173 650H0V400C26.0351 400 47 417 53 458ZM697 458C703 417 723.9649 400 750 400V650H577C626 650 677 594 697 458ZM0 0C13 0 22 38 22 175C22 312 13 350 0 350C-13 350 -22 312 -22 175C-22 38 -13 0 0 0ZM0 400C13 400 22 438 22 575C22 712 13 750 0 750C-13 750 -22 712 -22 575C-22 438 -13 400 0 400ZM375 750Z" glyph-name="Ocircumflex" horiz-adv-x="750" unicode="&#212;" /><glyph d="M221 650C231 650 235 653 235 657C235 667 214 668 214 700C214 732 235 733 235 743C235 747 231 750 221 750H0V650ZM529 650H750V750H529C519 750 515 747 515 743C515 733 536 732 536 700C536 668 515 667 515 657C515 653 519 650 529 650ZM411 650C421 650 425 653 425 657C425 667 404 668 404 700C404 732 425 733 425 743C425 747 421 750 411 750H370V650ZM339 650H391V750H339C329 750 325 747 325 743C325 733 346 732 346 700C346 668 325 667 325 657C325 653 329 650 339 650ZM375 750ZM47 292C40 331 23 350 0 350V0H293C315 0 323 9 323 20C323 31 310 39 282 45C167 69 75 145 47 292ZM703 292C676 145 583 69 468 45C440 39 427 31 427 20C427 9 435 0 457 0H750V350C727 350 710 331 703 292ZM355 569C246 569 190 500.4865 190 374C190 263.163 274 168 375 168C477 168 561 263.163 561 374C561 500.4865 506 569 396 569ZM53 458C73 594 125 650 173 650H0V400C26.0351 400 47 417 53 458ZM697 458C703 417 723.9649 400 750 400V650H577C626 650 677 594 697 458ZM0 0C13 0 22 38 22 175C22 312 13 350 0 350C-13 350 -22 312 -22 175C-22 38 -13 0 0 0ZM0 400C13 400 22 438 22 575C22 712 13 750 0 750C-13 750 -22 712 -22 575C-22 438 -13 400 0 400ZM375 750Z" glyph-name="Odieresis" horiz-adv-x="750" unicode="&#214;" /><glyph d="M0 650H247C279 650 288 668 274 686L245 724C231 742 215 750 188 750H0ZM750 750H488C456 750 441 736 446 714L455 676C460 654 478 650 505 650H750ZM375 750ZM47 292C40 331 23 350 0 350V0H293C315 0 323 9 323 20C323 31 310 39 282 45C167 69 75 145 47 292ZM703 292C676 145 583 69 468 45C440 39 427 31 427 20C427 9 435 0 457 0H750V350C727 350 710 331 703 292ZM355 569C246 569 190 500.4865 190 374C190 263.163 274 168 375 168C477 168 561 263.163 561 374C561 500.4865 506 569 396 569ZM53 458C73 594 125 650 173 650H0V400C26.0351 400 47 417 53 458ZM697 458C703 417 723.9649 400 750 400V650H577C626 650 677 594 697 458ZM0 0C13 0 22 38 22 175C22 312 13 350 0 350C-13 350 -22 312 -22 175C-22 38 -13 0 0 0ZM0 400C13 400 22 438 22 575C22 712 13 750 0 750C-13 750 -22 712 -22 575C-22 438 -13 400 0 400ZM375 750Z" glyph-name="Ograve" horiz-adv-x="750" unicode="&#210;" /><glyph d="M47 292C40 331 23 350 0 350V0H293C315 0 323 9 323 20C323 31 310 39 282 45C167 69 75 145 47 292ZM703 292C676 145 583 69 468 45C440 39 427 31 427 20C427 9 435 0 457 0H750V350C727 350 710 331 703 292ZM355 569C246 569 190 500.4865 190 374C190 263.163 274 168 375 168C477 168 561 263.163 561 374C561 500.4865 506 569 396 569ZM53 458C73 594 125 650 173 650H0V400C26.0351 400 47 417 53 458ZM697 458C703 417 723.9649 400 750 400V650H577C626 650 677 594 697 458ZM0 0C13 0 22 38 22 175C22 312 13 350 0 350C-13 350 -22 312 -22 175C-22 38 -13 0 0 0ZM0 400C13 400 22 438 22 575C22 712 13 750 0 750C-13 750 -22 712 -22 575C-22 438 -13 400 0 400ZM375 750ZM750 650V750H662C635 750 619 742 605 724L576 686C562 668 571 650 603 650ZM0 750V650H145C172 650 190 654 195 676L204 714C209 736 194 750 162 750ZM416 750C390 750 372 740 360 715L346 686C336 666 341 650 373 650C400 650 413 656 423 676L437 703C453 735 449 750 416 750ZM375 750Z" glyph-name="Ohungarumlaut" horiz-adv-x="750" unicode="&#336;" /><glyph d="M47 292C40 331 23 350 0 350V0H293C315 0 323 9 323 20C323 31 310 39 282 45C167 69 75 145 47 292ZM703 292C676 145 583 69 468 45C440 39 427 31 427 20C427 9 435 0 457 0H750V350C727 350 710 331 703 292ZM355 569C246 569 190 500.4865 190 374C190 263.163 274 168 375 168C477 168 561 263.163 561 374C561 500.4865 506 569 396 569ZM53 458C73 594 125 650 173 650H0V400C26.0351 400 47 417 53 458ZM697 458C703 417 723.9649 400 750 400V650H577C626 650 677 594 697 458ZM0 0C13 0 22 38 22 175C22 312 13 350 0 350C-13 350 -22 312 -22 175C-22 38 -13 0 0 0ZM0 400C13 400 22 438 22 575C22 712 13 750 0 750C-13 750 -22 712 -22 575C-22 438 -13 400 0 400ZM375 750ZM750 750H517C485 750 475 737 475 714V682C475 659 486 650 525 650H750ZM0 750V650H225C264 650 275 659 275 682V714C275 737 265 750 233 750ZM375 750Z" glyph-name="Omacron" horiz-adv-x="750" unicode="&#332;" /><glyph d="M58 479C87 577 174 662 282 695C311 704 323 715 323 730C323 741 315 750 293 750H0V400C23 400 39 415 58 479ZM692 271C663 173 576 88 468 55C439 46 427 35 427 20C427 9 435 0 457 0H750V350C727 350 711 335 692 271ZM321 419C333 434 351 442 369 441C376 441 393 437 407 454L454 510C469 527 460 544 446 549C370 578 283 558 231 496C178 432 175 344 216 276C224 262 239 254 256 274L304 330C316 345 311 362 309 369C305 387 309 405 321 419ZM428 329C416 315 399 308 381 309C374 310 356 312 343 297L296 240C279 220 290 206 305 201C379 173 466 191 519 254C571 316 575 405 534 475C527 488 509 494 494 476L447 420C433 403 440 387 441 381C446 363 440 344 428 329ZM692 479C711 415 727 400 750 400V750C731 750 713 735 696 715L641 650C621.8952 627.4216 617.1261 603.043 637 582C664 553 681 516 692 479ZM136 0H293C315 0 323 9 323 20C323 35 311 46 282 55C258 62 235 71 215 83C190 98 173 96 157 77L120 33C105 16 111 0 136 0ZM58 271C39 335 23 350 0 350V0C19 0 37 15 54 35L109 100C128.1048 122.5784 132.8739 146.957 113 168C86 197 69 234 58 271ZM614 750H457C435 750 427 741 427 730C427 715 439 704 468 695C492 688 515 679 535 667C560 652 577 654 593 673L630 717C645 734 639 750 614 750ZM0 0C13 0 22 38 22 175C22 312 13 350 0 350C-13 350 -22 312 -22 175C-22 38 -13 0 0 0ZM0 400C13 400 22 438 22 575C22 712 13 750 0 750C-13 750 -22 712 -22 575C-22 438 -13 400 0 400Z" glyph-name="Oslash" horiz-adv-x="750" unicode="&#216;" /><glyph d="M0 750V650H182C209 650 231 654 232 676C234 718 279 717 279 735C279 745 271 750 244 750ZM291 665C291 674 299 681 308 681C332 681 362 670 362 660C362 654 357 650 345 650C337 650 314 650 307 650C297 650 291 656 291 665ZM750 650V750H568C541 750 519 746 518 724C516 682 471 683 471 665C471 655 479 650 506 650ZM459 735C459 726 451 719 442 719C418 719 388 730 388 740C388 746 393 750 405 750C413 750 436 750 443 750C453 750 459 744 459 735ZM375 750ZM47 292C40 331 23 350 0 350V0H293C315 0 323 9 323 20C323 31 310 39 282 45C167 69 75 145 47 292ZM703 292C676 145 583 69 468 45C440 39 427 31 427 20C427 9 435 0 457 0H750V350C727 350 710 331 703 292ZM355 569C246 569 190 500.4865 190 374C190 263.163 274 168 375 168C477 168 561 263.163 561 374C561 500.4865 506 569 396 569ZM53 458C73 594 125 650 173 650H0V400C26.0351 400 47 417 53 458ZM697 458C703 417 723.9649 400 750 400V650H577C626 650 677 594 697 458ZM0 0C13 0 22 38 22 175C22 312 13 350 0 350C-13 350 -22 312 -22 175C-22 38 -13 0 0 0ZM0 400C13 400 22 438 22 575C22 712 13 750 0 750C-13 750 -22 712 -22 575C-22 438 -13 400 0 400ZM375 750Z" glyph-name="Otilde" horiz-adv-x="750" unicode="&#213;" /><glyph d="M0 0H62C90 0 112 22 112 50V300C112 328 90 350 62 350H0ZM265 499C265 443 283 426 315 399L408 322C457 281 485 303 485 349V484C485 584 458 630 362 630H315C287 630 265 608 265 580ZM569 50C569 22 591 0 619 0H750V350H692C664 350 642 328 642 300V230C642 145 569 149 569 62ZM0 400H62C90 400 112 422 112 450V700C112 728 90 750 62 750H0ZM532 40C532 80 514.4456 104.5207 484 130L343 248C294 289 265 266 265 221V51C265 16 277 0 320 0H483C510.44 0 532 15 532 40ZM601 673C615.3329 653.8894 642 609 642 541V450C642 422 664 400 692 400H750V750H533C503 750 502.6104 728.4034 535 719C554 714 582 700 601 673ZM0 0C13 0 22 38 22 175C22 312 13 350 0 350C-13 350 -22 312 -22 175C-22 38 -13 0 0 0ZM0 400C13 400 22 438 22 575C22 712 13 750 0 750C-13 750 -22 712 -22 575C-22 438 -13 400 0 400Z" glyph-name="P" horiz-adv-x="750" unicode="P" /><glyph d="M0 350V0C0 0 0 0 8 0C31 0 48 12 48 43C48 54 46 71 46 99C46 239 175 225 175 257C175 276 157 286 126 307C85 335 64 350 0 350ZM242 0C215 0 207 4 205 21C203.3283 35.2092 201 57.6667 201 71C201 95 213 103 239 103C266 103 377.2315 42.8249 407 32C428 25 425 0 398 0ZM750 350H706C681 350 666 344 641 319C620 299 634 281 668 281C703 281 716 270 716 238C716 108 693 63 610 27C596 21 590 14 590 11C590 5 593.2857 0 613 0H750ZM324 222C321.884 192.3757 449.641 150 499 150C548 150 563 183.1383 563 239C563 264 546 266 514 253C468.9726 235.3806 416 229 356 229C333 229 325 233 324 222ZM47 458C63.9985 624.9856 166.6353 681.1643 282 705C310 711 323 719 323 730C323 741 315 750 293 750H0V400C22.8286 400 42.9981 418.9816 47 458ZM703 458C707.0155 418.8492 727.1714 400 750 400V750H457C435 750 427 741 427 730C427 719 440 711 468 705C583.3647 681.1643 686.0084 624.9177 703 458ZM375 361C471 361 550 412.5192 550 475C550 537.4286 471 590 375 590C280 590 201 537.4286 201 475C201 412.5192 280 361 375 361ZM0 0C13 0 22 38 22 175C22 312 13 350 0 350C-13 350 -22 312 -22 175C-22 38 -13 0 0 0ZM0 400C13 400 22 438 22 575C22 712 13 750 0 750C-13 750 -22 712 -22 575C-22 438 -13 400 0 400Z" glyph-name="Q" horiz-adv-x="750" unicode="Q" /><glyph d="M0 0H62C90 0 112 22 112 50V300C112 328 90 350 62 350H0ZM267 499C267 443 285 426 317 399L408 322C457 281 485 303 485 349V484C485 584 458 630 362 630H317C289 630 267 608 267 580ZM640 80C699 17 712 0 750 0V350H692C628 350 674 285 521 259C497 255 496 234 506 224ZM0 400H62C90 400 112 422 112 450V700C112 728 90 750 62 750H0ZM482 40C482 67 466.3189 76.1342 444 100L343 208C299.5477 254.4638 267 226 267 181V51C267 16 279 0 322 0H443C464 0 482 15 482 40ZM601 673C615.0852 654.2197 640 609 640 541V450C640 422 663 400 692 400H750V750H533C503 750 502.6104 728.4034 535 719C554 714 582 700 601 673ZM0 0C13 0 22 38 22 175C22 312 13 350 0 350C-13 350 -22 312 -22 175C-22 38 -13 0 0 0ZM0 400C13 400 22 438 22 575C22 712 13 750 0 750C-13 750 -22 712 -22 575C-22 438 -13 400 0 400Z" glyph-name="R" horiz-adv-x="750" unicode="R" /><glyph d="M0 0H62C90 0 112 22 112 50V300C112 328 90 350 62 350H0ZM317 399 408 322C457 281 485 303 485 349V384C485 484 458 530 362 530H317C289 530 267 512 267 480C267 449 285 426 317 399ZM640 80C699 17 712 0 750 0V350H692C628 350 674 285 521 259C497 255 496 234 506 224ZM0 400H62C90 400 112 423 112 450V600C112 627 134 650 162 650H0ZM482 40C482 67 466 76 444 100L343 208C300 254 267 226 267 181V51C267 16 279 0 322 0H443C464 0 482 15 482 40ZM640 450C640 422 663 400 692 400H750V650H508C584 650 640 595 640 450ZM750 650V750H562C535 750 519 742 505 724L476 686C462 668 471 650 503 650ZM0 750V650H245C272 650 290 654 295 676L304 714C309 736 294 750 262 750ZM375 750ZM0 0C13 0 22 38 22 175C22 312 13 350 0 350C-13 350 -22 312 -22 175C-22 38 -13 0 0 0ZM0 400C13 400 22 438 22 575C22 712 13 750 0 750C-13 750 -22 712 -22 575C-22 438 -13 400 0 400Z" glyph-name="Racute" horiz-adv-x="750" unicode="&#340;" /><glyph d="M82 552C82 626 160.172 700.5356 277 715C299 718 307 727 307 735C307 743 302 750 288 750H0V400H146C153 400 158 404 158 412C158 419 157 420 145 427C103 453 82 497 82 552ZM533 473C548 504 549 518 533 537C504.4037 570.8919 451.137 601 367 601C287.2381 601 242 585 242 547C242 495 323.3541 464.6907 425 439C472.5528 426.807 513.1344 431.1778 533 473ZM750 400V750H481C465 750 460 745 460 738C460 729 467 724 506 714C579 695 637 643 673 584C690 556 682 538 654 523C604 496 581 478 567 456C549 428 562 411 593 405C609 401 636 400 679 400ZM688 198C688 124 601.8384 50.4166 473 35C451 32 443 23 443 15C443 7 448 0 462 0H750V350H604C597 350 592 346 592 338C592 331 593 328 605 323C662 298 688 253 688 198ZM217 277C202 246 201 232 217 213C245.5963 179.1081 298.863 149 383 149C475.8 149 528 165 528 203C528 255 436.5159 282.2929 325 311C277.4472 323.193 236.8656 318.8222 217 277ZM0 350V0H273C287 0 291 10 291 15C291 26 284 30 264 36C182.9494 60.4262 114.2191 105.0021 77 166C60 194 68 212 96 227C146 254 169 272 183 294C201 322 188 339 157 345C141 349 114 350 71 350ZM0 0C13 0 22 38 22 175C22 312 13 350 0 350C-13 350 -22 312 -22 175C-22 38 -13 0 0 0ZM0 400C13 400 22 438 22 575C22 712 13 750 0 750C-13 750 -22 712 -22 575C-22 438 -13 400 0 400Z" glyph-name="S" horiz-adv-x="750" unicode="S" /><glyph d="M82 502C82 569 133.5789 650 222 650H0V400H126C133 400 138 404 138 412C138 419 137 420 125 427C95.123 445.8697 82 477 82 502ZM533 423C548 454 549 468 533 487C504 521 451 551 367 551C287 551 242 535 242 497C242 449.8148 323.551 424.8595 425 399C472.2864 387.1784 517.6246 390.7116 533 423ZM750 400V650H527C591.2048 650 641.0321 586.3111 673 534C690 506 682 488 654 473C623 456 602 444 588 430C576 418 581 408 593 405C608 401 636 400 679 400ZM688 198C688 124 601.8384 50.4166 473 35C451 32 443 23 443 15C443 7 448 0 462 0H750V350H604C597 350 592 346 592 338C592 331 593 328 605 323C662 298 688 253 688 198ZM217 277C202 246 201 232 217 213C245.5963 179.1081 298.863 149 383 149C475.8 149 528 165 528 203C528 255 436.5159 282.2929 325 311C277.4472 323.193 236.8656 318.8222 217 277ZM0 350V0H273C287 0 291 10 291 15C291 26 284 30 264 36C183 60 114 105 77 166C60 194 68 212 96 227C146 254 169 272 183 294C201 322 188 339 157 345C141 349 114 350 71 350ZM0 0C13 0 22 38 22 175C22 312 13 350 0 350C-13 350 -22 312 -22 175C-22 38 -13 0 0 0ZM0 400C13 400 22 438 22 575C22 712 13 750 0 750C-13 750 -22 712 -22 575C-22 438 -13 400 0 400Z" glyph-name="S.acc" horiz-adv-x="750" /><glyph d="M750 650V750H562C535 750 519 742 505 724L476 686C462 668 471 650 503 650ZM0 750V650H245C272 650 290 654 295 676L304 714C309 736 294 750 262 750ZM375 750ZM82 502C82 569 133.5789 650 222 650H0V400H126C133 400 138 404 138 412C138 419 137 420 125 427C95.123 445.8697 82 477 82 502ZM533 423C548 454 549 468 533 487C504 521 451 551 367 551C287 551 242 535 242 497C242 449.8148 323.551 424.8595 425 399C472.2864 387.1784 517.6246 390.7116 533 423ZM750 400V650H527C591.2048 650 641.0321 586.3111 673 534C690 506 682 488 654 473C623 456 602 444 588 430C576 418 581 408 593 405C608 401 636 400 679 400ZM688 198C688 124 601.8384 50.4166 473 35C451 32 443 23 443 15C443 7 448 0 462 0H750V350H604C597 350 592 346 592 338C592 331 593 328 605 323C662 298 688 253 688 198ZM217 277C202 246 201 232 217 213C245.5963 179.1081 298.863 149 383 149C475.8 149 528 165 528 203C528 255 436.5159 282.2929 325 311C277.4472 323.193 236.8656 318.8222 217 277ZM0 350V0H273C287 0 291 10 291 15C291 26 284 30 264 36C183 60 114 105 77 166C60 194 68 212 96 227C146 254 169 272 183 294C201 322 188 339 157 345C141 349 114 350 71 350ZM0 0C13 0 22 38 22 175C22 312 13 350 0 350C-13 350 -22 312 -22 175C-22 38 -13 0 0 0ZM0 400C13 400 22 438 22 575C22 712 13 750 0 750C-13 750 -22 712 -22 575C-22 438 -13 400 0 400Z" glyph-name="Sacute" horiz-adv-x="750" unicode="&#346;" /><glyph d="M82 502C82 569 133.5789 650 222 650H0V400H126C133 400 138 404 138 412C138 419 137 420 125 427C95.123 445.8697 82 477 82 502ZM533 423C548 454 549 468 533 487C504 521 451 551 367 551C287 551 242 535 242 497C242 449.8148 323.551 424.8595 425 399C472.2864 387.1784 517.6246 390.7116 533 423ZM750 400V650H527C591.2048 650 641.0321 586.3111 673 534C690 506 682 488 654 473C623 456 602 444 588 430C576 418 581 408 593 405C608 401 636 400 679 400ZM688 198C688 124 601.8384 50.4166 473 35C451 32 443 23 443 15C443 7 448 0 462 0H750V350H604C597 350 592 346 592 338C592 331 593 328 605 323C662 298 688 253 688 198ZM217 277C202 246 201 232 217 213C245.5963 179.1081 298.863 149 383 149C475.8 149 528 165 528 203C528 255 436.5159 282.2929 325 311C277.4472 323.193 236.8656 318.8222 217 277ZM0 350V0H273C287 0 291 10 291 15C291 26 284 30 264 36C183 60 114 105 77 166C60 194 68 212 96 227C146 254 169 272 183 294C201 322 188 339 157 345C141 349 114 350 71 350ZM0 0C13 0 22 38 22 175C22 312 13 350 0 350C-13 350 -22 312 -22 175C-22 38 -13 0 0 0ZM0 400C13 400 22 438 22 575C22 712 13 750 0 750C-13 750 -22 712 -22 575C-22 438 -13 400 0 400ZM0 650H217C249 650 258 668 244 686L215 724C201 742 185 750 158 750H0ZM750 650V750H592C565 750 549 742 535 724L506 686C492 668 501 650 533 650ZM388 750H362C348 750 336 744 340 724L348 680C351 663 363 658 375 658C387 658 399 663 402 681L410 724C414 744 402 750 388 750ZM375 750Z" glyph-name="Scaron" horiz-adv-x="750" unicode="&#352;" /><glyph d="M668 248C668 181 616 100 528 100H750V350H624C617 350 612 346 612 338C612 331 613 330 625 323C655 304 668 273 668 248ZM217 327C202 296 201 282 217 263C246 229 299 199 383 199C463 199 508 215 508 253C508 300 426 325 325 351C278 363 232 359 217 327ZM0 350V100H223C159 100 109 164 77 216C60 244 68 262 96 277C127 294 148 306 162 320C174 332 169 342 157 345C142 349 114 350 71 350ZM62 552C62 626 148 700 277 715C299 718 307 727 307 735C307 743 302 750 288 750H0V400H146C153 400 158 404 158 412C158 419 157 422 145 427C88 452 62 497 62 552ZM533 473C548 504 549 518 533 537C504 571 451 601 367 601C274 601 222 585 222 547C222 495 313 468 425 439C473 427 513 431 533 473ZM750 400V750H477C463 750 459 740 459 735C459 724 466 720 486 714C567 690 636 645 673 584C690 556 682 538 654 523C604 496 581 478 567 456C549 428 562 411 593 405C609 401 636 400 679 400ZM0 0C13 0 22 38 22 175C22 312 13 350 0 350C-13 350 -22 312 -22 175C-22 38 -13 0 0 0ZM0 400C13 400 22 438 22 575C22 712 13 750 0 750C-13 750 -22 712 -22 575C-22 438 -13 400 0 400ZM0 100V0H188C215 0 231 8 245 26L274 64C288 82 279 100 247 100ZM750 0V100H505C478 100 460 96 455 74L446 36C441 14 456 0 488 0ZM375 750Z" glyph-name="Scedilla" horiz-adv-x="750" unicode="&#350;" /><glyph d="M388 650C402 650 414 656 410 676L402 719C399 737 387 742 375 742C363 742 351 737 348 720L340 676C336 656 348 650 362 650ZM533 423C548 454 549 468 533 487C504 521 451 551 367 551C287 551 242 535 242 497C242 450 324 425 425 399C472 387 518 391 533 423ZM688 198C688 124 602 50 473 35C451 32 443 23 443 15C443 7 448 0 462 0H750V350H604C597 350 592 346 592 338C592 331 593 328 605 323C662 298 688 253 688 198ZM217 277C202 246 201 232 217 213C246 179 299 149 383 149C476 149 528 165 528 203C528 255 437 282 325 311C277 323 237 319 217 277ZM0 350V0H273C287 0 291 10 291 15C291 26 284 30 264 36C183 60 114 105 77 166C60 194 68 212 96 227C146 254 169 272 183 294C201 322 188 339 157 345C141 349 114 350 71 350ZM208 680 244 714C260 730 249 750 217 750H0V400H126C133 400 138 404 138 412C138 419 137 420 125 427C95 446 82 477 82 502C82 582 148 623 208 680ZM545 676C587.2623 634.8214 636.3146 593.6137 673 534C690 506 682 488 654 473C623 456 602 444 588 430C576 418 581 408 593 405C608 401 636 400 679 400H750V750H533C501 750 490 730 506 714ZM0 0C13 0 22 38 22 175C22 312 13 350 0 350C-13 350 -22 312 -22 175C-22 38 -13 0 0 0ZM0 400C13 400 22 438 22 575C22 712 13 750 0 750C-13 750 -22 712 -22 575C-22 438 -13 400 0 400Z" glyph-name="Scircumflex" horiz-adv-x="750" unicode="&#348;" /><glyph d="M450 450C450 422 472 400 500 400H750V750C655 750 724 611 609 611H500C472 611 450 589 450 561ZM750 0V350H500C472 350 450 328 450 300V50C450 22 472 0 500 0ZM300 450V561C300 589 278 611 250 611H141C26 611 94 750 0 750V400H250C278 400 300 422 300 450ZM0 0H250C278 0 300 22 300 50V300C300 328 278 350 250 350H0ZM0 0C13 0 22 38 22 175C22 312 13 350 0 350C-13 350 -22 312 -22 175C-22 38 -13 0 0 0ZM0 400C13 400 22 438 22 575C22 712 13 750 0 750C-13 750 -22 712 -22 575C-22 438 -13 400 0 400Z" glyph-name="T" horiz-adv-x="750" unicode="T" /><glyph d="M0 0H62C90 0 112 22 112 50V300C112 328 90 350 62 350H0ZM265 447C265 397 281 380 315 357L408 294C461 258 485 275 485 321V362C485 462 458 508 362 508H315C287 508 265 486 265 458ZM569 40C569 16 591 0 619 0H750V350H692C664 350 642 328 642 300V208C642 129 569 112 569 40ZM0 400H62C90 400 112 422 112 450V700C112 728 90 750 62 750H0ZM532 40C532 70.2222 514.07 87.1003 484 108L343 206C289.9234 242.8901 265 224 265 179V51C265 16 277 0 320 0H483C510 0 532 15 532 40ZM377 638C565 638 625 599 642 450C645 422 664 400 692 400H750V750H315C287 750 265 728 265 700V688C265 660 287 638 315 638ZM0 0C13 0 22 38 22 175C22 312 13 350 0 350C-13 350 -22 312 -22 175C-22 38 -13 0 0 0ZM0 400C13 400 22 438 22 575C22 712 13 750 0 750C-13 750 -22 712 -22 575C-22 438 -13 400 0 400Z" glyph-name="Thorn" horiz-adv-x="750" unicode="&#222;" /><glyph d="M123 271C109 344 49 350 0 350V0H293C310 0 316 7 316 16C316 28 306 37 282 45C203 69 142 171 123 271ZM0 400H60C88 400 110 422 110 450V700C110 728 88 750 60 750H0ZM640 450C640 422 662 400 690 400H750V750H690C662 750 640 728 640 700ZM485 345V700C485 728 463 750 435 750H315C287 750 265 728 265 700V345C265 235 308 173 375 173C442 173 485 235 485 345ZM627 271C608 171 547 69 468 45C444 37 434 28 434 16C434 7 440 0 457 0H750V350C701 350 641 344 627 271ZM0 0C13 0 22 38 22 175C22 312 13 350 0 350C-13 350 -22 312 -22 175C-22 38 -13 0 0 0ZM0 400C13 400 22 438 22 575C22 712 13 750 0 750C-13 750 -22 712 -22 575C-22 438 -13 400 0 400Z" glyph-name="U" horiz-adv-x="750" unicode="U" /><glyph d="M123 271C109 344 49 350 0 350V0H293C310 0 316 7 316 16C316 28 306 37 282 45C203 69 142 171 123 271ZM0 400H60C88 400 110 422 110 450V600C110 628 120 650 148 650H0ZM485 345V570C485 598 463 620 435 620H315C287 620 265 598 265 570V345C265 235 308 173 375 173C442 173 485 235 485 345ZM627 271C608 171 547 69 468 45C444 37 434 28 434 16C434 7 440 0 457 0H750V350C701 350 641 344 627 271ZM750 400V650H602C630 650 640 628 640 600V450C640 422 662 400 690 400ZM0 0C13 0 22 38 22 175C22 312 13 350 0 350C-13 350 -22 312 -22 175C-22 38 -13 0 0 0ZM0 400C13 400 22 438 22 575C22 712 13 750 0 750C-13 750 -22 712 -22 575C-22 438 -13 400 0 400ZM375 750Z" glyph-name="U.acc" horiz-adv-x="750" /><glyph d="M750 650V750H562C535 750 519 742 505 724L476 686C462 668 471 650 503 650ZM0 750V650H245C272 650 290 654 295 676L304 714C309 736 294 750 262 750ZM375 750ZM123 271C109 344 49 350 0 350V0H293C310 0 316 7 316 16C316 28 306 37 282 45C203 69 142 171 123 271ZM0 400H60C88 400 110 422 110 450V600C110 628 120 650 148 650H0ZM485 345V570C485 598 463 620 435 620H315C287 620 265 598 265 570V345C265 235 308 173 375 173C442 173 485 235 485 345ZM627 271C608 171 547 69 468 45C444 37 434 28 434 16C434 7 440 0 457 0H750V350C701 350 641 344 627 271ZM750 400V650H602C630 650 640 628 640 600V450C640 422 662 400 690 400ZM0 0C13 0 22 38 22 175C22 312 13 350 0 350C-13 350 -22 312 -22 175C-22 38 -13 0 0 0ZM0 400C13 400 22 438 22 575C22 712 13 750 0 750C-13 750 -22 712 -22 575C-22 438 -13 400 0 400ZM375 750Z" glyph-name="Uacute" horiz-adv-x="750" unicode="&#218;" /><glyph d="M123 271C109 344 49 350 0 350V0H293C310 0 316 7 316 16C316 28 306 37 282 45C203 69 142 171 123 271ZM0 400H60C88 400 110 422 110 450V600C110 628 120 650 148 650H0ZM485 345V570C485 598 463 620 435 620H315C287 620 265 598 265 570V345C265 235 308 173 375 173C442 173 485 235 485 345ZM627 271C608 171 547 69 468 45C444 37 434 28 434 16C434 7 440 0 457 0H750V350C701 350 641 344 627 271ZM750 400V650H602C630 650 640 628 640 600V450C640 422 662 400 690 400ZM0 0C13 0 22 38 22 175C22 312 13 350 0 350C-13 350 -22 312 -22 175C-22 38 -13 0 0 0ZM0 400C13 400 22 438 22 575C22 712 13 750 0 750C-13 750 -22 712 -22 575C-22 438 -13 400 0 400ZM375 750ZM0 650H235C258 650 260 666 245 677C231 688 219 706 213 729C208 747 191 750 164 750H0ZM388 750H362C348 750 335 744 340 724L342 716C346 699 363 694 375 694C387 694 404 701 408 717L410 724C416 746 402 750 388 750ZM750 650V750H586C559 750 542 747 537 729C531 706 519 688 505 677C490 666 492 650 515 650ZM375 750Z" glyph-name="Ubreve" horiz-adv-x="750" unicode="&#364;" /><glyph d="M0 750V650H168C190.2632 650 202.0271 659.001 215 676L244 714C258 732 249 750 217 750ZM750 750H533C501 750 492 732 506 714L535 676C547.9729 659.001 559.7368 650 582 650H750ZM388 650C402 650 413.7251 655.9775 410 676L402 719C399 737 386.6667 742 375 742C363.3333 742 351 737 348 720L340 676C336.3568 655.9624 348 650 362 650ZM375 750ZM123 271C109 344 49 350 0 350V0H293C310 0 316 7 316 16C316 28 306 37 282 45C203 69 142 171 123 271ZM0 400H60C88 400 110 422 110 450V600C110 628 120 650 148 650H0ZM485 345V570C485 598 463 620 435 620H315C287 620 265 598 265 570V345C265 235 308 173 375 173C442 173 485 235 485 345ZM627 271C608 171 547 69 468 45C444 37 434 28 434 16C434 7 440 0 457 0H750V350C701 350 641 344 627 271ZM750 400V650H602C630 650 640 628 640 600V450C640 422 662 400 690 400ZM0 0C13 0 22 38 22 175C22 312 13 350 0 350C-13 350 -22 312 -22 175C-22 38 -13 0 0 0ZM0 400C13 400 22 438 22 575C22 712 13 750 0 750C-13 750 -22 712 -22 575C-22 438 -13 400 0 400ZM375 750Z" glyph-name="Ucircumflex" horiz-adv-x="750" unicode="&#219;" /><glyph d="M221 650C231 650 235 653 235 657C235 667 214 668 214 700C214 732 235 733 235 743C235 747 231 750 221 750H0V650ZM529 650H750V750H529C519 750 515 747 515 743C515 733 536 732 536 700C536 668 515 667 515 657C515 653 519 650 529 650ZM411 650C421 650 425 653 425 657C425 667 404 668 404 700C404 732 425 733 425 743C425 747 421 750 411 750H370V650ZM339 650H391V750H339C329 750 325 747 325 743C325 733 346 732 346 700C346 668 325 667 325 657C325 653 329 650 339 650ZM375 750ZM123 271C109 344 49 350 0 350V0H293C310 0 316 7 316 16C316 28 306 37 282 45C203 69 142 171 123 271ZM0 400H60C88 400 110 422 110 450V600C110 628 120 650 148 650H0ZM485 345V570C485 598 463 620 435 620H315C287 620 265 598 265 570V345C265 235 308 173 375 173C442 173 485 235 485 345ZM627 271C608 171 547 69 468 45C444 37 434 28 434 16C434 7 440 0 457 0H750V350C701 350 641 344 627 271ZM750 400V650H602C630 650 640 628 640 600V450C640 422 662 400 690 400ZM0 0C13 0 22 38 22 175C22 312 13 350 0 350C-13 350 -22 312 -22 175C-22 38 -13 0 0 0ZM0 400C13 400 22 438 22 575C22 712 13 750 0 750C-13 750 -22 712 -22 575C-22 438 -13 400 0 400ZM375 750Z" glyph-name="Udieresis" horiz-adv-x="750" unicode="&#220;" /><glyph d="M0 650H247C279 650 288 668 274 686L245 724C231 742 215 750 188 750H0ZM750 750H488C456 750 441 736 446 714L455 676C460 654 478 650 505 650H750ZM375 750ZM123 271C109 344 49 350 0 350V0H293C310 0 316 7 316 16C316 28 306 37 282 45C203 69 142 171 123 271ZM0 400H60C88 400 110 422 110 450V600C110 628 120 650 148 650H0ZM485 345V570C485 598 463 620 435 620H315C287 620 265 598 265 570V345C265 235 308 173 375 173C442 173 485 235 485 345ZM627 271C608 171 547 69 468 45C444 37 434 28 434 16C434 7 440 0 457 0H750V350C701 350 641 344 627 271ZM750 400V650H602C630 650 640 628 640 600V450C640 422 662 400 690 400ZM0 0C13 0 22 38 22 175C22 312 13 350 0 350C-13 350 -22 312 -22 175C-22 38 -13 0 0 0ZM0 400C13 400 22 438 22 575C22 712 13 750 0 750C-13 750 -22 712 -22 575C-22 438 -13 400 0 400ZM375 750Z" glyph-name="Ugrave" horiz-adv-x="750" unicode="&#217;" /><glyph d="M123 271C109 344 49 350 0 350V0H293C310 0 316 7 316 16C316 28 306 37 282 45C203 69 142 171 123 271ZM0 400H60C88 400 110 422 110 450V600C110 628 120 650 148 650H0ZM485 345V570C485 598 463 620 435 620H315C287 620 265 598 265 570V345C265 235 308 173 375 173C442 173 485 235 485 345ZM627 271C608 171 547 69 468 45C444 37 434 28 434 16C434 7 440 0 457 0H750V350C701 350 641 344 627 271ZM750 400V650H602C630 650 640 628 640 600V450C640 422 662 400 690 400ZM0 0C13 0 22 38 22 175C22 312 13 350 0 350C-13 350 -22 312 -22 175C-22 38 -13 0 0 0ZM0 400C13 400 22 438 22 575C22 712 13 750 0 750C-13 750 -22 712 -22 575C-22 438 -13 400 0 400ZM375 750ZM750 650V750H662C635 750 619 742 605 724L576 686C562 668 571 650 603 650ZM0 750V650H145C172 650 190 654 195 676L204 714C209 736 194 750 162 750ZM416 750C390 750 372 740 360 715L346 686C336 666 341 650 373 650C400 650 413 656 423 676L437 703C453 735 449 750 416 750ZM375 750Z" glyph-name="Uhungarumlaut" horiz-adv-x="750" unicode="&#368;" /><glyph d="M123 271C109 344 49 350 0 350V0H293C310 0 316 7 316 16C316 28 306 37 282 45C203 69 142 171 123 271ZM0 400H60C88 400 110 422 110 450V600C110 628 120 650 148 650H0ZM485 345V570C485 598 463 620 435 620H315C287 620 265 598 265 570V345C265 235 308 173 375 173C442 173 485 235 485 345ZM627 271C608 171 547 69 468 45C444 37 434 28 434 16C434 7 440 0 457 0H750V350C701 350 641 344 627 271ZM750 400V650H602C630 650 640 628 640 600V450C640 422 662 400 690 400ZM0 0C13 0 22 38 22 175C22 312 13 350 0 350C-13 350 -22 312 -22 175C-22 38 -13 0 0 0ZM0 400C13 400 22 438 22 575C22 712 13 750 0 750C-13 750 -22 712 -22 575C-22 438 -13 400 0 400ZM375 750ZM123 271C109 344 49 350 0 350V0H293C310 0 316 7 316 16C316 28 306 37 282 45C203 69 142 171 123 271ZM0 400H60C88 400 110 422 110 450V600C110 628 120 650 148 650H0ZM485 345V570C485 598 463 620 435 620H315C287 620 265 598 265 570V345C265 235 308 173 375 173C442 173 485 235 485 345ZM627 271C608 171 547 69 468 45C444 37 434 28 434 16C434 7 440 0 457 0H750V350C701 350 641 344 627 271ZM750 400V650H602C630 650 640 628 640 600V450C640 422 662 400 690 400ZM0 0C13 0 22 38 22 175C22 312 13 350 0 350C-13 350 -22 312 -22 175C-22 38 -13 0 0 0ZM0 400C13 400 22 438 22 575C22 712 13 750 0 750C-13 750 -22 712 -22 575C-22 438 -13 400 0 400ZM375 750ZM750 750H517C485 750 475 737 475 714V682C475 659 486 650 525 650H750ZM0 750V650H225C264 650 275 659 275 682V714C275 737 265 750 233 750ZM375 750ZM750 750H517C485 750 475 737 475 714V682C475 659 486 650 525 650H750ZM0 750V650H225C264 650 275 659 275 682V714C275 737 265 750 233 750ZM375 750Z" glyph-name="Umacron" horiz-adv-x="750" unicode="&#362;" /><glyph d="M123 271C109 344 49 350 0 350V100H282C193 100 137.8033 192.946 123 271ZM0 400H60C88 400 110 422 110 450V700C110 728 88 750 60 750H0ZM640 450C640 422 662 400 690 400H750V750H690C662 750 640 728 640 700ZM485 345V700C485 728 463 750 435 750H315C287 750 265 728 265 700V345C265 266.9767 308 223 375 223C442 223 485 266.9767 485 345ZM627 271C612.2045 193.1291 552 100 468 100H750V350C701 350 641 344 627 271ZM0 0C13 0 22 38 22 175C22 312 13 350 0 350C-13 350 -22 312 -22 175C-22 38 -13 0 0 0ZM0 400C13 400 22 438 22 575C22 712 13 750 0 750C-13 750 -22 712 -22 575C-22 438 -13 400 0 400ZM266 0C276 0 280 3 280 7C280 17 259 18 259 41C259 73 300 83 300 93C300 97 296 100 286 100H0V0ZM414 30H432C467 30 474 0 493 0H750V100H414C377 100 364 87 364 65C364 43 377 30 414 30ZM375 750Z" glyph-name="Uogonek" horiz-adv-x="750" unicode="&#370;" /><glyph d="M123 271C109 344 49 350 0 350V0H293C310 0 316 7 316 16C316 28 306 37 282 45C203 69 142 171 123 271ZM0 400H60C88 400 110 422 110 450V600C110 628 120 650 148 650H0ZM485 345V570C485 598 463 620 435 620H315C287 620 265 598 265 570V345C265 235 308 173 375 173C442 173 485 235 485 345ZM627 271C608 171 547 69 468 45C444 37 434 28 434 16C434 7 440 0 457 0H750V350C701 350 641 344 627 271ZM750 400V650H602C630 650 640 628 640 600V450C640 422 662 400 690 400ZM0 0C13 0 22 38 22 175C22 312 13 350 0 350C-13 350 -22 312 -22 175C-22 38 -13 0 0 0ZM0 400C13 400 22 438 22 575C22 712 13 750 0 750C-13 750 -22 712 -22 575C-22 438 -13 400 0 400ZM375 750ZM256 650C266 650 270 653 270 657C270 667 249 668 249 700C249 732 270 733 270 743C270 747 266 750 256 750H0V650ZM494 650H750V750H494C484 750 480 747 480 743C480 733 501 732 501 700C501 668 480 667 480 657C480 653 484 650 494 650ZM375 674C416 674 439 683.9048 439 700C439 716.0952 416 726 375 726C335 726 311 716.0952 311 700C311 683.9048 335 674 375 674ZM375 750Z" glyph-name="Uring" horiz-adv-x="750" unicode="&#366;" /><glyph d="M0 750V650H182C209 650 231 654 232 676C234 718 279 717 279 735C279 745 271 750 244 750ZM291 665C291 674 299 681 308 681C332 681 362 670 362 660C362 654 357 650 345 650C337 650 314 650 307 650C297 650 291 656 291 665ZM750 650V750H568C541 750 519 746 518 724C516 682 471 683 471 665C471 655 479 650 506 650ZM459 735C459 726 451 719 442 719C418 719 388 730 388 740C388 746 393 750 405 750C413 750 436 750 443 750C453 750 459 744 459 735ZM375 750ZM123 271C109 344 49 350 0 350V0H293C310 0 316 7 316 16C316 28 306 37 282 45C203 69 142 171 123 271ZM0 400H60C88 400 110 422 110 450V600C110 628 120 650 148 650H0ZM485 345V570C485 598 463 620 435 620H315C287 620 265 598 265 570V345C265 235 308 173 375 173C442 173 485 235 485 345ZM627 271C608 171 547 69 468 45C444 37 434 28 434 16C434 7 440 0 457 0H750V350C701 350 641 344 627 271ZM750 400V650H602C630 650 640 628 640 600V450C640 422 662 400 690 400ZM0 0C13 0 22 38 22 175C22 312 13 350 0 350C-13 350 -22 312 -22 175C-22 38 -13 0 0 0ZM0 400C13 400 22 438 22 575C22 712 13 750 0 750C-13 750 -22 712 -22 575C-22 438 -13 400 0 400ZM375 750Z" glyph-name="Utilde" horiz-adv-x="750" unicode="&#360;" /><glyph d="M324 79C328.3898 45.0481 346 19 374 19H377C405 19 422.6648 45.0411 427 79L505 690C509.3352 723.9589 483 750 455 750H295C267 750 240.6102 723.9519 245 690ZM722 750C694 750 676.4339 728.9368 672 700L634 452C629.7161 424.042 650 400 679 400H750V750ZM0 0H132C170 0 186.46 21.0672 182 50L143 303C138.389 332.9122 118 350 88 350H0ZM75 400C104 400 124 424 120 452L82 700C78 729 60 750 32 750H0V400ZM666 350C636 350 615.611 332.9122 611 303L572 50C567.54 21.0672 584 0 622 0H750V350ZM0 0C13 0 22 38 22 175C22 312 13 350 0 350C-13 350 -22 312 -22 175C-22 38 -13 0 0 0ZM0 400C13 400 22 438 22 575C22 712 13 750 0 750C-13 750 -22 712 -22 575C-22 438 -13 400 0 400Z" glyph-name="V" horiz-adv-x="750" unicode="V" /><glyph d="M0 0H132C170 0 186.46 21.0672 182 50L143 303C138.3664 333.0588 118 350 88 350H0ZM75 400C104 400 124.2839 424.042 120 452L82 700C77.5661 728.9368 60 750 32 750H0V400ZM1183 222V50C1183 22 1205 0 1233 0H1499V350H1439C1387 350 1394 274 1355 274H1233C1205 274 1183 251 1183 222ZM370 750H295C267 750 240.6102 723.9519 245 690L324 79C328.3898 45.0481 346 19 374 19H377C405 19 422.6111 45.048 427 79L480 489C483.3554 514.9565 500 530 526 530H603C629 530 642.4639 512.94 639 488L634 452C630.109 423.9846 650 400 679 400H700C728 400 750 422 750 450V561C750 589 728 611 700 611H511C396 611 464 750 370 750ZM700 0C728 0 750 22 750 50V300C750 328 728 350 700 350H666C636 350 615.6336 333.0588 611 303L572 50C567.54 21.0672 583.9868 0 622 0ZM1233 400H1500V750C1405 750 1474 611 1359 611H950C922 611 900 589 900 561V450C900 422 918 400 940 400H980C1014 400 1030 423 1030 452V491C1030 514 1046 530 1069 530H1144C1167 530 1183 514 1183 491V452C1183 423 1205 400 1233 400ZM900 300V50C900 22 922 0 950 0H980C1008 0 1030 22 1030 50V300C1030 328 1008 350 980 350H950C922 350 900 328 900 300ZM0 0C13 0 22 38 22 175C22 312 13 350 0 350C-13 350 -22 312 -22 175C-22 38 -13 0 0 0ZM0 400C13 400 22 438 22 575C22 712 13 750 0 750C-13 750 -22 712 -22 575C-22 438 -13 400 0 400Z" glyph-name="VTF" horiz-adv-x="1500" /><glyph d="M344 79C349 45 366 19 394 19H397C425 19 441 45 447 79L550 690C556 724 528 750 500 750H295C267 750 240 724 245 690ZM0 0H149C187 0 204 21 199 50L152 303C146 333 126 350 95 350H0ZM80 400C109 400 130 424 125 452L81 700C76 729 59 750 31 750H0V400ZM1054 79C1060 45 1076 19 1104 19H1107C1135 19 1152 45 1157 79L1255 690C1260.4424 723.932 1233 750 1205 750H1000C972 750 944 724 950 690ZM802 671C796 705 780 731 752 731H749C721 731 705 705 699 671L596 60C590 26 618 0 646 0H856C884 0 912 26 906 60ZM1500 0V350H1405C1374 350 1354 333 1348 303L1301 50C1296 21 1313 0 1351 0ZM1420 400H1500V750H1469C1441 750 1424 729 1419 700L1375 452C1370 424 1391 400 1420 400ZM0 0C13 0 22 38 22 175C22 312 13 350 0 350C-13 350 -22 312 -22 175C-22 38 -13 0 0 0ZM0 400C13 400 22 438 22 575C22 712 13 750 0 750C-13 750 -22 712 -22 575C-22 438 -13 400 0 400Z" glyph-name="W" horiz-adv-x="1500" unicode="W" /><glyph d="M344 79C349 45 366 19 394 19H397C425 19 440 45 447 79L547 590C553.7923 624.7087 568.7808 650 600 650H447V750H295C267 750 240 724 245 690ZM0 0H149C187 0 204 21 199 50L152 303C146 333 126 350 95 350H0ZM80 400C109 400 130 424 125 452L81 700C76 729 59 750 31 750H0V400ZM812 526C805 561 786 586 752 586H749C715 586 696 560 689 526L596 60C589 26 618 0 646 0H856C884 0 913 26 906 60ZM1500 0V350H1405C1374 350 1354 333 1348 303L1301 50C1296 21 1313 0 1351 0ZM1420 400H1500V750H1469C1441 750 1424 729 1419 700L1375 452C1370 424 1391 400 1420 400ZM1156 79 1255 690C1260 724 1233 750 1205 750H1053V650H900C931.2192 650 946.2077 624.7087 953 590L1053 79C1060 45 1075 19 1103 19H1106C1134 19 1151 45 1156 79ZM0 0C13 0 22 38 22 175C22 312 13 350 0 350C-13 350 -22 312 -22 175C-22 38 -13 0 0 0ZM0 400C13 400 22 438 22 575C22 712 13 750 0 750C-13 750 -22 712 -22 575C-22 438 -13 400 0 400Z" glyph-name="W.acc" horiz-adv-x="1500" /><glyph d="M344 79C349 45 366 19 394 19H397C425 19 440 45 447 79L547 590C553.7923 624.7087 568.7808 650 600 650H447V750H295C267 750 240 724 245 690ZM0 0H149C187 0 204 21 199 50L152 303C146 333 126 350 95 350H0ZM80 400C109 400 130 424 125 452L81 700C76 729 59 750 31 750H0V400ZM812 526C805 561 786 586 752 586H749C715 586 696 560 689 526L596 60C589 26 618 0 646 0H856C884 0 913 26 906 60ZM1500 0V350H1405C1374 350 1354 333 1348 303L1301 50C1296 21 1313 0 1351 0ZM1420 400H1500V750H1469C1441 750 1424 729 1419 700L1375 452C1370 424 1391 400 1420 400ZM1156 79 1255 690C1260 724 1233 750 1205 750H1053V650H900C931.2192 650 946.2077 624.7087 953 590L1053 79C1060 45 1075 19 1103 19H1106C1134 19 1151 45 1156 79ZM0 0C13 0 22 38 22 175C22 312 13 350 0 350C-13 350 -22 312 -22 175C-22 38 -13 0 0 0ZM0 400C13 400 22 438 22 575C22 712 13 750 0 750C-13 750 -22 712 -22 575C-22 438 -13 400 0 400ZM1120 650V750H932C905 750 889 742 875 724L846 686C832 668 841 650 873 650ZM370 750V650H615C642 650 660 654 665 676L674 714C679 736 664 750 632 750ZM745 750Z" glyph-name="Wacute" horiz-adv-x="1500" unicode="&#7810;" /><glyph d="M0 0H149C187 0 204 21 199 50L152 303C146 333 126 350 95 350H0ZM80 400C109 400 130 424 125 452L81 700C76 729 59 750 31 750H0V400ZM1500 0V350H1405C1374 350 1354 333 1348 303L1301 50C1296 21 1313 0 1351 0ZM1420 400H1500V750H1469C1441 750 1424 729 1419 700L1375 452C1370 424 1391 400 1420 400ZM1125 750H908C876 750 867 732 881 714L910 676C923 659 935 650 957 650H1125ZM763 650C777 650 789 656 785 676L777 719C774 737 762 742 750 742C738 742 726 737 723 720L715 676C711 656 723 650 737 650ZM812 526C805 561 786 586 752 586H749C715 586 696 560 689 526L596 60C589 26 618 0 646 0H856C884 0 913 26 906 60ZM344 79C349 45 366 19 394 19H397C425 19 440 45 447 79L547 590C553 620 572 652 590 676L619 714C633 732 624 750 592 750H295C267 750 240 724 245 690ZM1156 79 1255 690C1260 724 1233 750 1205 750H908C876 750 867 732 881 714L910 676C928 652 947 620 953 590L1053 79C1060 45 1075 19 1103 19H1106C1134 19 1151 45 1156 79ZM0 0C13 0 22 38 22 175C22 312 13 350 0 350C-13 350 -22 312 -22 175C-22 38 -13 0 0 0ZM0 400C13 400 22 438 22 575C22 712 13 750 0 750C-13 750 -22 712 -22 575C-22 438 -13 400 0 400Z" glyph-name="Wcircumflex" horiz-adv-x="1500" unicode="&#372;" /><glyph d="M344 79C349 45 366 19 394 19H397C425 19 440 45 447 79L547 590C553.7923 624.7087 568.7808 650 600 650H447V750H295C267 750 240 724 245 690ZM0 0H149C187 0 204 21 199 50L152 303C146 333 126 350 95 350H0ZM80 400C109 400 130 424 125 452L81 700C76 729 59 750 31 750H0V400ZM812 526C805 561 786 586 752 586H749C715 586 696 560 689 526L596 60C589 26 618 0 646 0H856C884 0 913 26 906 60ZM1500 0V350H1405C1374 350 1354 333 1348 303L1301 50C1296 21 1313 0 1351 0ZM1420 400H1500V750H1469C1441 750 1424 729 1419 700L1375 452C1370 424 1391 400 1420 400ZM1156 79 1255 690C1260 724 1233 750 1205 750H1053V650H900C931.2192 650 946.2077 624.7087 953 590L1053 79C1060 45 1075 19 1103 19H1106C1134 19 1151 45 1156 79ZM0 0C13 0 22 38 22 175C22 312 13 350 0 350C-13 350 -22 312 -22 175C-22 38 -13 0 0 0ZM0 400C13 400 22 438 22 575C22 712 13 750 0 750C-13 750 -22 712 -22 575C-22 438 -13 400 0 400ZM591 650C601 650 605 653 605 657C605 667 584 668 584 700C584 732 605 733 605 743C605 747 601 750 591 750H370V650ZM899 650H1120V750H899C889 750 885 747 885 743C885 733 906 732 906 700C906 668 885 667 885 657C885 653 889 650 899 650ZM781 650C791 650 795 653 795 657C795 667 774 668 774 700C774 732 795 733 795 743C795 747 791 750 781 750H740V650ZM709 650H761V750H709C699 750 695 747 695 743C695 733 716 732 716 700C716 668 695 667 695 657C695 653 699 650 709 650ZM745 750Z" glyph-name="Wdieresis" horiz-adv-x="1500" unicode="&#7812;" /><glyph d="M344 79C349 45 366 19 394 19H397C425 19 440 45 447 79L547 590C553.7923 624.7087 568.7808 650 600 650H447V750H295C267 750 240 724 245 690ZM0 0H149C187 0 204 21 199 50L152 303C146 333 126 350 95 350H0ZM80 400C109 400 130 424 125 452L81 700C76 729 59 750 31 750H0V400ZM812 526C805 561 786 586 752 586H749C715 586 696 560 689 526L596 60C589 26 618 0 646 0H856C884 0 913 26 906 60ZM1500 0V350H1405C1374 350 1354 333 1348 303L1301 50C1296 21 1313 0 1351 0ZM1420 400H1500V750H1469C1441 750 1424 729 1419 700L1375 452C1370 424 1391 400 1420 400ZM1156 79 1255 690C1260 724 1233 750 1205 750H1053V650H900C931.2192 650 946.2077 624.7087 953 590L1053 79C1060 45 1075 19 1103 19H1106C1134 19 1151 45 1156 79ZM0 0C13 0 22 38 22 175C22 312 13 350 0 350C-13 350 -22 312 -22 175C-22 38 -13 0 0 0ZM0 400C13 400 22 438 22 575C22 712 13 750 0 750C-13 750 -22 712 -22 575C-22 438 -13 400 0 400ZM400 650H647C679 650 688 668 674 686L645 724C631 742 615 750 588 750H400ZM1150 750H888C856 750 841 736 846 714L855 676C860 654 878 650 905 650H1150ZM775 750Z" glyph-name="Wgrave" horiz-adv-x="1500" unicode="&#7808;" /><glyph d="M750 400V750C702 750 687 728 628 601L558 450C547 426 561 400 588 400ZM750 350H588C561 350 547 324 558 300L628 149C687 22 702 0 750 0ZM357 750 375 439C401.9697 439 424 461 464 588L499 700C507 725 496 750 469 750ZM357 0H469C496 0 507 25 499 50L460 171C419 298 401.8421 320 375 320ZM0 400H162C189 400 203 426 192 450L122 601C63 728 48 750 0 750ZM0 350V0C48 0 63 22 122 149L192 300C203 324 189 350 162 350ZM393 750H281C254 750 243 725 251 700L286 588C326 461 348.0303 439 375 439ZM393 0 375 320C348.1579 320 331 298 290 171L251 50C243 25 254 0 281 0ZM0 0C13 0 22 38 22 175C22 312 13 350 0 350C-13 350 -22 312 -22 175C-22 38 -13 0 0 0ZM0 400C13 400 22 438 22 575C22 712 13 750 0 750C-13 750 -22 712 -22 575C-22 438 -13 400 0 400Z" glyph-name="X" horiz-adv-x="750" unicode="X" /><glyph d="M0 0H252C280 0 302 22 302 50V158C302 265.5602 226 350 175 350H0ZM324 439C334 406 346 379 374 379H377C405 379 417 406 427 439L505 690C515.2498 722.9834 483 750 455 750H295C267 750 234.6306 722.9459 245 690ZM0 400H132C170 400 193 422 182 450L82 700C71 728 60 750 32 750H0ZM572 450C561 422 584 400 622 400H750V750H722C694 750 683 728 672 700ZM750 0V350H575C524 350 448 265.5602 448 158V50C448 22 470 0 498 0ZM0 0C13 0 22 38 22 175C22 312 13 350 0 350C-13 350 -22 312 -22 175C-22 38 -13 0 0 0ZM0 400C13 400 22 438 22 575C22 712 13 750 0 750C-13 750 -22 712 -22 575C-22 438 -13 400 0 400Z" glyph-name="Y" horiz-adv-x="750" unicode="Y" /><glyph d="M0 0H252C280 0 302 22 302 50V158C302 265.5602 226 350 175 350H0ZM0 400H135C176 400 182 424 167 450L82 600C67 627 73 650 97 650H0ZM750 0V350H575C524 350 448 265.5602 448 158V50C448 22 470 0 498 0ZM315 630C273 630 251 603 265 570L321 439C335 406 347 382 375 382C403 382 415 406 429 439L485 570C499 603 477 630 435 630ZM750 400V650H653C677 650 683 627 668 600L583 450C568 424 574 400 615 400ZM0 0C13 0 22 38 22 175C22 312 13 350 0 350C-13 350 -22 312 -22 175C-22 38 -13 0 0 0ZM0 400C13 400 22 438 22 575C22 712 13 750 0 750C-13 750 -22 712 -22 575C-22 438 -13 400 0 400ZM376 750Z" glyph-name="Y.acc" horiz-adv-x="750" /><glyph d="M751 650V750H563C536 750 520 742 506 724L477 686C463 668 472 650 504 650ZM1 750V650H246C273 650 291 654 296 676L305 714C310 736 295 750 263 750ZM376 750ZM0 0H252C280 0 302 22 302 50V158C302 265.5602 226 350 175 350H0ZM0 400H135C176 400 182 424 167 450L82 600C67 627 73 650 97 650H0ZM750 0V350H575C524 350 448 265.5602 448 158V50C448 22 470 0 498 0ZM315 630C273 630 251 603 265 570L321 439C335 406 347 382 375 382C403 382 415 406 429 439L485 570C499 603 477 630 435 630ZM750 400V650H653C677 650 683 627 668 600L583 450C568 424 574 400 615 400ZM0 0C13 0 22 38 22 175C22 312 13 350 0 350C-13 350 -22 312 -22 175C-22 38 -13 0 0 0ZM0 400C13 400 22 438 22 575C22 712 13 750 0 750C-13 750 -22 712 -22 575C-22 438 -13 400 0 400ZM376 750Z" glyph-name="Yacute" horiz-adv-x="750" unicode="&#221;" /><glyph d="M1 750V650H169C191.2632 650 203.0271 659.001 216 676L245 714C259 732 250 750 218 750ZM751 750H534C502 750 493 732 507 714L536 676C548.9729 659.001 560.7368 650 583 650H751ZM389 650C403 650 414.7251 655.9775 411 676L403 719C400 737 387.6667 742 376 742C364.3333 742 352 737 349 720L341 676C337.3568 655.9624 349 650 363 650ZM376 750ZM0 0H252C280 0 302 22 302 50V158C302 265.5602 226 350 175 350H0ZM0 400H135C176 400 182 424 167 450L82 600C67 627 73 650 97 650H0ZM750 0V350H575C524 350 448 265.5602 448 158V50C448 22 470 0 498 0ZM315 630C273 630 251 603 265 570L321 439C335 406 347 382 375 382C403 382 415 406 429 439L485 570C499 603 477 630 435 630ZM750 400V650H653C677 650 683 627 668 600L583 450C568 424 574 400 615 400ZM0 0C13 0 22 38 22 175C22 312 13 350 0 350C-13 350 -22 312 -22 175C-22 38 -13 0 0 0ZM0 400C13 400 22 438 22 575C22 712 13 750 0 750C-13 750 -22 712 -22 575C-22 438 -13 400 0 400ZM376 750Z" glyph-name="Ycircumflex" horiz-adv-x="750" unicode="&#374;" /><glyph d="M222 650C232 650 236 653 236 657C236 667 215 668 215 700C215 732 236 733 236 743C236 747 232 750 222 750H1V650ZM530 650H751V750H530C520 750 516 747 516 743C516 733 537 732 537 700C537 668 516 667 516 657C516 653 520 650 530 650ZM412 650C422 650 426 653 426 657C426 667 405 668 405 700C405 732 426 733 426 743C426 747 422 750 412 750H371V650ZM340 650H392V750H340C330 750 326 747 326 743C326 733 347 732 347 700C347 668 326 667 326 657C326 653 330 650 340 650ZM376 750ZM0 0H252C280 0 302 22 302 50V158C302 265.5602 226 350 175 350H0ZM0 400H135C176 400 182 424 167 450L82 600C67 627 73 650 97 650H0ZM750 0V350H575C524 350 448 265.5602 448 158V50C448 22 470 0 498 0ZM315 630C273 630 251 603 265 570L321 439C335 406 347 382 375 382C403 382 415 406 429 439L485 570C499 603 477 630 435 630ZM750 400V650H653C677 650 683 627 668 600L583 450C568 424 574 400 615 400ZM0 0C13 0 22 38 22 175C22 312 13 350 0 350C-13 350 -22 312 -22 175C-22 38 -13 0 0 0ZM0 400C13 400 22 438 22 575C22 712 13 750 0 750C-13 750 -22 712 -22 575C-22 438 -13 400 0 400ZM376 750Z" glyph-name="Ydieresis" horiz-adv-x="750" unicode="&#376;" /><glyph d="M1 650H248C280 650 289 668 275 686L246 724C232 742 216 750 189 750H1ZM751 750H489C457 750 442 736 447 714L456 676C461 654 479 650 506 650H751ZM376 750ZM0 0H252C280 0 302 22 302 50V158C302 265.5602 226 350 175 350H0ZM0 400H135C176 400 182 424 167 450L82 600C67 627 73 650 97 650H0ZM750 0V350H575C524 350 448 265.5602 448 158V50C448 22 470 0 498 0ZM315 630C273 630 251 603 265 570L321 439C335 406 347 382 375 382C403 382 415 406 429 439L485 570C499 603 477 630 435 630ZM750 400V650H653C677 650 683 627 668 600L583 450C568 424 574 400 615 400ZM0 0C13 0 22 38 22 175C22 312 13 350 0 350C-13 350 -22 312 -22 175C-22 38 -13 0 0 0ZM0 400C13 400 22 438 22 575C22 712 13 750 0 750C-13 750 -22 712 -22 575C-22 438 -13 400 0 400ZM376 750Z" glyph-name="Ygrave" horiz-adv-x="750" unicode="&#7922;" /><glyph d="M750 400V750C707.4231 750 654.3472 720.267 588 601L504 450C492 428 507 400 534 400ZM421 300 365 196C337 144 343 119 394 119H654C740 119 671.9444 0 730 0H750V350H532C483 350 438 331 421 300ZM0 350V0C42.5769 0 95.6618 29.7492 162 149L246 300C258 322 243 350 216 350ZM329 450 385 554C413 606 407 631 356 631H122C41 631 105 750 50 750H0V400H218C267 400 312 419 329 450ZM0 0C13 0 22 38 22 175C22 312 13 350 0 350C-13 350 -22 312 -22 175C-22 38 -13 0 0 0ZM0 400C13 400 22 438 22 575C22 712 13 750 0 750C-13 750 -22 712 -22 575C-22 438 -13 400 0 400Z" glyph-name="Z" horiz-adv-x="750" unicode="Z" /><glyph d="M750 400V650H613C645 650 658 632 637 599L542 450C529 429 545 400 572 400ZM447 300 381 196C349 145 359 119 410 119H654C740 119 672 0 730 0H750V350H548C503 350 465 329 447 300ZM0 350V0C46.716 0 101 31 176 149L272 300C285 321 269 350 242 350ZM114 650H0V400H255C304 400 345 422 366 450L369 454C399 493 386 531 347 531H122C83 531 78 558 76 586V600C76 628 86 650 114 650ZM0 0C13 0 22 38 22 175C22 312 13 350 0 350C-13 350 -22 312 -22 175C-22 38 -13 0 0 0ZM0 400C13 400 22 438 22 575C22 712 13 750 0 750C-13 750 -22 712 -22 575C-22 438 -13 400 0 400Z" glyph-name="Z.acc" horiz-adv-x="750" /><glyph d="M750 650V750H562C535 750 519 742 505 724L476 686C462 668 471 650 503 650ZM0 750V650H245C272 650 290 654 295 676L304 714C309 736 294 750 262 750ZM375 750ZM750 400V650H613C645 650 658 632 637 599L542 450C529 429 545 400 572 400ZM447 300 381 196C349 145 359 119 410 119H654C740 119 672 0 730 0H750V350H548C503 350 465 329 447 300ZM0 350V0C46.716 0 101 31 176 149L272 300C285 321 269 350 242 350ZM114 650H0V400H255C304 400 345 422 366 450L369 454C399 493 386 531 347 531H122C83 531 78 558 76 586V600C76 628 86 650 114 650ZM0 0C13 0 22 38 22 175C22 312 13 350 0 350C-13 350 -22 312 -22 175C-22 38 -13 0 0 0ZM0 400C13 400 22 438 22 575C22 712 13 750 0 750C-13 750 -22 712 -22 575C-22 438 -13 400 0 400Z" glyph-name="Zacute" horiz-adv-x="750" unicode="&#377;" /><glyph d="M0 650H217C249 650 258 668 244 686L215 724C201 742 185 750 158 750H0ZM750 650V750H592C565 750 549 742 535 724L506 686C492 668 501 650 533 650ZM388 750H362C348 750 336 744 340 724L348 680C351 663 363 658 375 658C387 658 399 663 402 681L410 724C414 744 402 750 388 750ZM375 750ZM750 400V650H613C645 650 658 632 637 599L542 450C529 429 545 400 572 400ZM447 300 381 196C349 145 359 119 410 119H654C740 119 672 0 730 0H750V350H548C503 350 465 329 447 300ZM0 350V0C46.716 0 101 31 176 149L272 300C285 321 269 350 242 350ZM114 650H0V400H255C304 400 345 422 366 450L369 454C399 493 386 531 347 531H122C83 531 78 558 76 586V600C76 628 86 650 114 650ZM0 0C13 0 22 38 22 175C22 312 13 350 0 350C-13 350 -22 312 -22 175C-22 38 -13 0 0 0ZM0 400C13 400 22 438 22 575C22 712 13 750 0 750C-13 750 -22 712 -22 575C-22 438 -13 400 0 400Z" glyph-name="Zcaron" horiz-adv-x="750" unicode="&#381;" /><glyph d="M316 650C326 650 330 653 330 657C330 667 309 668 309 700C309 732 330 733 330 743C330 747 326 750 316 750H0V650ZM434 650H750V750H434C424 750 420 747 420 743C420 733 441 732 441 700C441 668 420 667 420 657C420 653 424 650 434 650ZM375 750ZM750 400V650H613C645 650 658 632 637 599L542 450C529 429 545 400 572 400ZM447 300 381 196C349 145 359 119 410 119H654C740 119 672 0 730 0H750V350H548C503 350 465 329 447 300ZM0 350V0C46.716 0 101 31 176 149L272 300C285 321 269 350 242 350ZM114 650H0V400H255C304 400 345 422 366 450L369 454C399 493 386 531 347 531H122C83 531 78 558 76 586V600C76 628 86 650 114 650ZM0 0C13 0 22 38 22 175C22 312 13 350 0 350C-13 350 -22 312 -22 175C-22 38 -13 0 0 0ZM0 400C13 400 22 438 22 575C22 712 13 750 0 750C-13 750 -22 712 -22 575C-22 438 -13 400 0 400Z" glyph-name="Zdotaccent" horiz-adv-x="750" unicode="&#379;" /><glyph d="M722 0H750V350H679C650 350 629.7161 325.958 634 298L672 50C676.4339 21.0632 694 0 722 0ZM0 750V400H88C118 400 138.3664 416.9412 143 447L182 700C186.46 728.9328 170 750 132 750ZM75 350H0V0H32C60 0 77.5661 21.0632 82 50L120 298C124.2839 325.958 104 350 75 350ZM666 400H750V750H622C584 750 567.54 728.9328 572 700L611 447C615.6336 416.9412 636 400 666 400ZM429 281C455 281 473.2556 302.0308 470 328L427 671C422.7415 704.9686 405 731 377 731H374C346 731 328.2585 704.9686 324 671L281 328C277.7444 302.0308 296 281 322 281ZM307 177C278 177 257.8595 160.0184 254 130L245 60C240.6344 26.045 267 0 295 0H455C483 0 509.3656 26.045 505 60L496 130C492.1405 160.0184 472 177 443 177ZM0 0C13 0 22 38 22 175C22 312 13 350 0 350C-13 350 -22 312 -22 175C-22 38 -13 0 0 0ZM0 400C13 400 22 438 22 575C22 712 13 750 0 750C-13 750 -22 712 -22 575C-22 438 -13 400 0 400Z" glyph-name="a" horiz-adv-x="750" unicode="a" /><glyph d="M750 650V750H562C535 750 519 742 505 724L476 686C462 668 471 650 503 650ZM0 750V650H245C272 650 290 654 295 676L304 714C309 736 294 750 262 750ZM375 750ZM0 650V400H97C127 400 146 418 152 447L182 600C187 627 199 650 227 650ZM80 350H0V0H31C59 0 76 21 81 50L125 298C130 326 109 350 80 350ZM421 281C447 281 466 302 462 328L422 571C416 605 404 631 375 631C346.8 631 333.6108 605.0855 328 571L288 328C284 302 303 281 329 281ZM750 650H523C551 650 563 627 568 600L598 447C604 418 623 400 653 400H750ZM670 350C641 350 620 326 625 298L669 50C674 21 691 0 719 0H750V350ZM455 0C483 0 510 26 505 60L494 130C489 160 470 177 441 177H309C280 177 261 160 256 130L245 60C240 26 267 0 295 0ZM0 0C13 0 22 38 22 175C22 312 13 350 0 350C-13 350 -22 312 -22 175C-22 38 -13 0 0 0ZM0 400C13 400 22 438 22 575C22 712 13 750 0 750C-13 750 -22 712 -22 575C-22 438 -13 400 0 400ZM375 750Z" glyph-name="aacute" horiz-adv-x="750" unicode="&#225;" /><glyph d="M0 650V400H97C127 400 146 418 152 447L182 600C187 627 199 650 227 650ZM80 350H0V0H31C59 0 76 21 81 50L125 298C130 326 109 350 80 350ZM421 281C447 281 466 302 462 328L422 571C416 605 404 631 375 631C346.8 631 333.6108 605.0855 328 571L288 328C284 302 303 281 329 281ZM750 650H523C551 650 563 627 568 600L598 447C604 418 623 400 653 400H750ZM670 350C641 350 620 326 625 298L669 50C674 21 691 0 719 0H750V350ZM455 0C483 0 510 26 505 60L494 130C489 160 470 177 441 177H309C280 177 261 160 256 130L245 60C240 26 267 0 295 0ZM0 0C13 0 22 38 22 175C22 312 13 350 0 350C-13 350 -22 312 -22 175C-22 38 -13 0 0 0ZM0 400C13 400 22 438 22 575C22 712 13 750 0 750C-13 750 -22 712 -22 575C-22 438 -13 400 0 400ZM375 750ZM0 650H235C258 650 260 666 245 677C231 688 219 706 213 729C208 747 191 750 164 750H0ZM388 750H362C348 750 335 744 340 724L342 716C346 699 363 694 375 694C387 694 404 701 408 717L410 724C416 746 402 750 388 750ZM750 650V750H586C559 750 542 747 537 729C531 706 519 688 505 677C490 666 492 650 515 650ZM375 750Z" glyph-name="abreve" horiz-adv-x="750" unicode="&#259;" /><glyph d="M388 650C402 650 414 656 410 676L402 719C399 737 387 742 375 742C363 742 351 737 348 720L340 676C336 656 348 650 362 650ZM80 350H0V0H31C59 0 76 21 81 50L125 298C130 326 109 350 80 350ZM421 281C447 281 466 302 462 328L422 571C416 605 404 631 375 631C347 631 334 605 328 571L288 328C284 302 303 281 329 281ZM670 350C641 350 620 326 625 298L669 50C674 21 691 0 719 0H750V350ZM455 0C483 0 510 26 505 60L494 130C489 160 470 177 441 177H309C280 177 261 160 256 130L245 60C240 26 267 0 295 0ZM0 0C11 0 21 20 27 79L29 101C31 123 32 156 32 175C32 195 31 226 29 248L27 270C21 330 11 350 0 350C-11 350 -22 330 -27 270L-30 248C-31 226 -32 195 -32 175C-32 156 -31 123 -30 101L-27 79C-22 20 -11 0 0 0ZM0 400C11 400 21 420 27 479L29 501C31 523 32 556 32 575C32 595 31 626 29 648L27 670C21 730 11 750 0 750C-11 750 -22 730 -27 670L-30 648C-31 626 -32 595 -32 575C-32 556 -31 523 -30 501L-27 479C-22 420 -11 400 0 400ZM0 400H97C127 400 146 418 152 447L182 600C189 635 203 660 215 676L244 714C258 732 249 750 217 750H0ZM750 400V750H533C501 750 492 732 506 714L535 676C547 660 561 635 568 600L598 447C604 418 623 400 653 400Z" glyph-name="acircumflex" horiz-adv-x="750" unicode="&#226;" /><glyph d="M750 650V750H562C535 750 519 742 505 724L476 686C462 668 471 650 503 650ZM0 750V650H245C272 650 290 654 295 676L304 714C309 736 294 750 262 750ZM375 750Z" glyph-name="acute" horiz-adv-x="750" unicode="&#180;" /><glyph d="M221 650C231 650 235 653 235 657C235 667 214 668 214 700C214 732 235 733 235 743C235 747 231 750 221 750H0V650ZM529 650H750V750H529C519 750 515 747 515 743C515 733 536 732 536 700C536 668 515 667 515 657C515 653 519 650 529 650ZM411 650C421 650 425 653 425 657C425 667 404 668 404 700C404 732 425 733 425 743C425 747 421 750 411 750H370V650ZM339 650H391V750H339C329 750 325 747 325 743C325 733 346 732 346 700C346 668 325 667 325 657C325 653 329 650 339 650ZM375 750ZM0 650V400H97C127 400 146 418 152 447L182 600C187 627 199 650 227 650ZM80 350H0V0H31C59 0 76 21 81 50L125 298C130 326 109 350 80 350ZM421 281C447 281 466 302 462 328L422 571C416 605 404 631 375 631C346.8 631 333.6108 605.0855 328 571L288 328C284 302 303 281 329 281ZM750 650H523C551 650 563 627 568 600L598 447C604 418 623 400 653 400H750ZM670 350C641 350 620 326 625 298L669 50C674 21 691 0 719 0H750V350ZM455 0C483 0 510 26 505 60L494 130C489 160 470 177 441 177H309C280 177 261 160 256 130L245 60C240 26 267 0 295 0ZM0 0C13 0 22 38 22 175C22 312 13 350 0 350C-13 350 -22 312 -22 175C-22 38 -13 0 0 0ZM0 400C13 400 22 438 22 575C22 712 13 750 0 750C-13 750 -22 712 -22 575C-22 438 -13 400 0 400ZM375 750Z" glyph-name="adieresis" horiz-adv-x="750" unicode="&#228;" /><glyph d="M0 750V400H88C118 400 138.3664 416.9412 143 447L182 700C186.46 728.9328 170 750 132 750ZM75 350H0V0H32C60 0 77.5661 21.0632 82 50L120 298C124.2839 325.958 104 350 75 350ZM429 281C455 281 473.2556 302.0308 470 328L427 671C422.7415 704.9686 405 731 377 731H374C346 731 328.2585 704.9686 324 671L281 328C277.7444 302.0308 296 281 322 281ZM307 177C278 177 257.8595 160.0184 254 130L245 60C240.6344 26.045 267 0 295 0H455C483 0 509.3656 26.045 505 60L496 130C492.1405 160.0184 472 177 443 177ZM605 489C609 461 627 439 655 439H921C960 439 953 400 1005 400H1125V750H1055C1000 750 1064 631 983 631H641C613 631 587 609 591 581ZM640 261 654 170C658 142 676 120 704 120H1033C1114 120 1050 0 1105 0H1125V350H1005C953 350 960 313 921 313H690C662 313 636 290 640 261ZM0 0C13 0 22 38 22 175C22 312 13 350 0 350C-13 350 -22 312 -22 175C-22 38 -13 0 0 0ZM0 400C13 400 22 438 22 575C22 712 13 750 0 750C-13 750 -22 712 -22 575C-22 438 -13 400 0 400Z" glyph-name="ae" horiz-adv-x="1125" unicode="&#230;" /><glyph d="M0 0H12C40 0 62 22 62 50V300C62 328 40 350 12 350H0ZM0 400H12C40 400 62 422 62 450V700C62 728 40 750 12 750H0ZM0 0C13 0 22 38 22 175C22 312 13 350 0 350C-13 350 -22 312 -22 175C-22 38 -13 0 0 0ZM0 400C13 400 22 438 22 575C22 712 13 750 0 750C-13 750 -22 712 -22 575C-22 438 -13 400 0 400Z" glyph-name="after" horiz-adv-x="0" /><glyph d="M-0 350 -0 0C40 0 52 24 102 149L162 300C172 324 159 350 132 350ZM0 750 -0 400H166C206 400 218 424 268 549L328 700C338 724 325 750 298 750ZM0 0C13 0 22 38 22 175C22 312 13 350 0 350C-13 350 -22 312 -22 175C-22 38 -13 0 0 0ZM0 400C13 400 22 438 22 575C22 712 13 750 0 750C-13 750 -22 712 -22 575C-22 438 -13 400 0 400Z" glyph-name="after10" horiz-adv-x="375" /><glyph d="M0 400H298C322 400 336 410 334 432C314 641 193 750 0 750ZM0 350V0C193 0 314 109 334 318C336 340 322 350 298 350ZM0 0C13 0 22 38 22 175C22 312 13 350 0 350C-13 350 -22 312 -22 175C-22 38 -13 0 0 0ZM0 400C13 400 22 438 22 575C22 712 13 750 0 750C-13 750 -22 712 -22 575C-22 438 -13 400 0 400Z" glyph-name="after11" horiz-adv-x="375" /><glyph d="M0 350V0C40 0 52 24 102 149L162 300C172 324 159 350 132 350ZM0 400H132C159 400 172 426 162 450L102 601C52 726 40 750 0 750ZM0 0C13 0 22 38 22 175C22 312 13 350 0 350C-13 350 -22 312 -22 175C-22 38 -13 0 0 0ZM0 400C13 400 22 438 22 575C22 712 13 750 0 750C-13 750 -22 712 -22 575C-22 438 -13 400 0 400Z" glyph-name="after2" horiz-adv-x="188" /><glyph d="M0 0H132C159 0 172 26 162 50L102 201C52 326 40 350 0 350ZM0 750V400C40 400 52 424 102 549L162 700C172 724 159 750 132 750ZM0 0C13 0 22 38 22 175C22 312 13 350 0 350C-13 350 -22 312 -22 175C-22 38 -13 0 0 0ZM0 400C13 400 22 438 22 575C22 712 13 750 0 750C-13 750 -22 712 -22 575C-22 438 -13 400 0 400Z" glyph-name="after3" horiz-adv-x="188" /><glyph d="M0 750 0 400C40 400 52 424 102 549L162 700C172 724 159 750 132 750ZM0 350V0C40 0 52 24 102 149L162 300C172 324 159 350 132 350ZM0 0C13 0 22 38 22 175C22 312 13 350 0 350C-13 350 -22 312 -22 175C-22 38 -13 0 0 0ZM0 400C13 400 22 438 22 575C22 712 13 750 0 750C-13 750 -22 712 -22 575C-22 438 -13 400 0 400Z" glyph-name="after4" horiz-adv-x="188" /><glyph d="M0 0H132C159 0 172 26 162 50L102 201C52 326 40 350 0 350ZM0 400H132C159 400 172 426 162 450L102 601C52 726 40 750 0 750ZM0 0C13 0 22 38 22 175C22 312 13 350 0 350C-13 350 -22 312 -22 175C-22 38 -13 0 0 0ZM0 400C13 400 22 438 22 575C22 712 13 750 0 750C-13 750 -22 712 -22 575C-22 438 -13 400 0 400Z" glyph-name="after5" horiz-adv-x="188" /><glyph d="M122 375C122 438 90 499 65 629C47 724 41 750 -0 750L-0 400H32C65 400 77 388 77 375C77 362 65 350 32 350H-0L-0 -0C41 -0 47 26 65 121C90 251 122 312 122 375ZM0 0C13 0 22 38 22 175C22 312 13 350 0 350C-13 350 -22 312 -22 175C-22 38 -13 0 0 0ZM0 400C13 400 22 438 22 575C22 712 13 750 0 750C-13 750 -22 712 -22 575C-22 438 -13 400 0 400Z" glyph-name="after6" horiz-adv-x="188" /><glyph d="M0 400H61C95 400 104 416 98 450L61 672C52 728 29 750 0 750ZM0 0H127C161 0 170 16 164 50L127 272C118 328 95 350 66 350H0ZM0 0C13 0 22 38 22 175C22 312 13 350 0 350C-13 350 -22 312 -22 175C-22 38 -13 0 0 0ZM0 400C13 400 22 438 22 575C22 712 13 750 0 750C-13 750 -22 712 -22 575C-22 438 -13 400 0 400Z" glyph-name="after7" horiz-adv-x="188" /><glyph d="M0 350V0C29 0 52 22 61 78L98 300C104 334 95 350 61 350ZM0 750V400H66C95 400 118 422 127 478L164 700C170 734 161 750 127 750ZM0 0C13 0 22 38 22 175C22 312 13 350 0 350C-13 350 -22 312 -22 175C-22 38 -13 0 0 0ZM0 400C13 400 22 438 22 575C22 712 13 750 0 750C-13 750 -22 712 -22 575C-22 438 -13 400 0 400Z" glyph-name="after8" horiz-adv-x="188" /><glyph d="M0 400H132C159 400 172 426 162 450L102 601C52 726 40 750 0 750ZM0 0H298C325 0 338 26 328 50L268 201C218 326 206 350 166 350H0ZM0 0C13 0 22 38 22 175C22 312 13 350 0 350C-13 350 -22 312 -22 175C-22 38 -13 0 0 0ZM0 400C13 400 22 438 22 575C22 712 13 750 0 750C-13 750 -22 712 -22 575C-22 438 -13 400 0 400Z" glyph-name="after9" horiz-adv-x="375" /><glyph d="M0 650H247C279 650 288 668 274 686L245 724C231 742 215 750 188 750H0ZM750 750H488C456 750 441 736 446 714L455 676C460 654 478 650 505 650H750ZM375 750ZM0 650V400H97C127 400 146 418 152 447L182 600C187 627 199 650 227 650ZM80 350H0V0H31C59 0 76 21 81 50L125 298C130 326 109 350 80 350ZM421 281C447 281 466 302 462 328L422 571C416 605 404 631 375 631C346.8 631 333.6108 605.0855 328 571L288 328C284 302 303 281 329 281ZM750 650H523C551 650 563 627 568 600L598 447C604 418 623 400 653 400H750ZM670 350C641 350 620 326 625 298L669 50C674 21 691 0 719 0H750V350ZM455 0C483 0 510 26 505 60L494 130C489 160 470 177 441 177H309C280 177 261 160 256 130L245 60C240 26 267 0 295 0ZM0 0C13 0 22 38 22 175C22 312 13 350 0 350C-13 350 -22 312 -22 175C-22 38 -13 0 0 0ZM0 400C13 400 22 438 22 575C22 712 13 750 0 750C-13 750 -22 712 -22 575C-22 438 -13 400 0 400ZM375 750Z" glyph-name="agrave" horiz-adv-x="750" unicode="&#224;" /><glyph d="M0 650V400H97C127 400 146 418 152 447L182 600C187 627 199 650 227 650ZM80 350H0V0H31C59 0 76 21 81 50L125 298C130 326 109 350 80 350ZM421 281C447 281 466 302 462 328L422 571C416 605 404 631 375 631C346.8 631 333.6108 605.0855 328 571L288 328C284 302 303 281 329 281ZM750 650H523C551 650 563 627 568 600L598 447C604 418 623 400 653 400H750ZM670 350C641 350 620 326 625 298L669 50C674 21 691 0 719 0H750V350ZM455 0C483 0 510 26 505 60L494 130C489 160 470 177 441 177H309C280 177 261 160 256 130L245 60C240 26 267 0 295 0ZM0 0C13 0 22 38 22 175C22 312 13 350 0 350C-13 350 -22 312 -22 175C-22 38 -13 0 0 0ZM0 400C13 400 22 438 22 575C22 712 13 750 0 750C-13 750 -22 712 -22 575C-22 438 -13 400 0 400ZM375 750ZM750 750H517C485 750 475 737 475 714V682C475 659 486 650 525 650H750ZM0 750V650H225C264 650 275 659 275 682V714C275 737 265 750 233 750ZM375 750Z" glyph-name="amacron" horiz-adv-x="750" unicode="&#257;" /><glyph d="M693 56C717 11 733 0 750 0V350H668C652 350 647 346 647 324V205C647 166 647 143 662 114ZM87 552C87 626 161 701 272 715C294 718 302 727 302 735C302 743 297 750 283 750H0V400H151C158 400 163 404 163 412C163 418 160 421 150 427C107 453 87 497 87 552ZM67 198C67 253 89 300 140 323C149 327 153 331 153 339C153 346 148 350 141 350H0V0H283C297 0 302 7 302 15C302 23 294 32 272 35C149 50 67 124 67 198ZM282 301C259 301 227 273 227 223C227 168 286 149 375 149C401 149 418 157 418 173C418 192 411 213 364 254C318 294 304 301 282 301ZM750 400V750H463C443 750 440 744 440 737C440 730 445 723 460 721C624.5455 694.0744 685 638.3911 685 562C685 531 647 518 609 503C594 497 591 492 591 487C591 479 600 475 629 475H677C712 475 716 400 733 400ZM455 475H484C519 475 533 480 533 502C533 563.563 498 601 375 601C299 601 247 583 247 527C247 466 336.0312 394 395 394C435 394 415 475 455 475ZM578 25C578 39 564.2457 60.0819 537 51C518.6298 44.0018 499.4325 37.5719 478 35C456 32 448 23 448 15C448 7 453 0 467 0H551C570 0 578 10 578 25ZM417 335C417 315 489 271 501 271C515 271 515 282 515 297V326C515 340 510 350 494 350H437C423 350 417 345 417 335ZM0 0C13 0 22 38 22 175C22 312 13 350 0 350C-13 350 -22 312 -22 175C-22 38 -13 0 0 0ZM0 400C13 400 22 438 22 575C22 712 13 750 0 750C-13 750 -22 712 -22 575C-22 438 -13 400 0 400Z" glyph-name="ampersand" horiz-adv-x="750" unicode="&amp;" /><glyph d="M652 100H750V350H690C661 350 640 325 645 298L672 150C677.038 122.3844 676 100 652 100ZM0 750V400H80C110 400 129 417 135 447L182 700C187 729 170 750 132 750ZM64 350H0V100H107C80 100 76.9548 122.345 82 150L109 298C114 325 93 350 64 350ZM674 400H750V750H622C584 750 567 729 572 700L619 447C625 417 644 400 674 400ZM419 381C445 381 464 402 460 428L427 671C422 705 405 731 377 731H374C346 731 329 705 324 671L291 428C287 402 306 381 332 381ZM308 277C279 277 259 260 255 230L243 149C239 119 231 100 204 100H532C517 100 512 109 506 148L495 230C491 260 471 277 442 277ZM513 0C523 0 527 3 527 7C527 17 506 18 506 41C506 73 547 83 547 93C547 97 543 100 533 100H0V0ZM661 30H679C714 30 721 0 740 0H750V100H651C621.4 100 611 87 611 65C611 43 624 30 661 30ZM0 0C13 0 22 38 22 175C22 312 13 350 0 350C-13 350 -22 312 -22 175C-22 38 -13 0 0 0ZM0 400C13 400 22 438 22 575C22 712 13 750 0 750C-13 750 -22 712 -22 575C-22 438 -13 400 0 400Z" glyph-name="aogonek" horiz-adv-x="750" unicode="&#261;" /><glyph d="M0 650V400H97C127 400 146 418 152 447L182 600C187 627 199 650 227 650ZM80 350H0V0H31C59 0 76 21 81 50L125 298C130 326 109 350 80 350ZM421 281C447 281 466 302 462 328L422 571C416 605 404 631 375 631C346.8 631 333.6108 605.0855 328 571L288 328C284 302 303 281 329 281ZM750 650H523C551 650 563 627 568 600L598 447C604 418 623 400 653 400H750ZM670 350C641 350 620 326 625 298L669 50C674 21 691 0 719 0H750V350ZM455 0C483 0 510 26 505 60L494 130C489 160 470 177 441 177H309C280 177 261 160 256 130L245 60C240 26 267 0 295 0ZM0 0C13 0 22 38 22 175C22 312 13 350 0 350C-13 350 -22 312 -22 175C-22 38 -13 0 0 0ZM0 400C13 400 22 438 22 575C22 712 13 750 0 750C-13 750 -22 712 -22 575C-22 438 -13 400 0 400ZM375 750ZM256 650C266 650 270 653 270 657C270 667 249 668 249 700C249 732 270 733 270 743C270 747 266 750 256 750H0V650ZM494 650H750V750H494C484 750 480 747 480 743C480 733 501 732 501 700C501 668 480 667 480 657C480 653 484 650 494 650ZM375 674C416 674 439 683.9048 439 700C439 716.0952 416 726 375 726C335 726 311 716.0952 311 700C311 683.9048 335 674 375 674ZM375 750Z" glyph-name="aring" horiz-adv-x="750" unicode="&#229;" /><glyph d="M324 671 245 60C241 26 267 0 295 0H455C483 0 509 26 505 60L427 671C423 705 405 731 377 731H374C346 731 328 705 324 671ZM722 0H750V350H679C650 350 630 326 634 298L672 50C676 21 694 0 722 0ZM0 750V400H88C118 400 138 417 143 447L182 700C186 729 170 750 132 750ZM75 350H0V0H32C60 0 78 21 82 50L120 298C124 326 104 350 75 350ZM666 400H750V750H622C584 750 568 729 572 700L611 447C616 417 636 400 666 400ZM0 0C13 0 22 38 22 175C22 312 13 350 0 350C-13 350 -22 312 -22 175C-22 38 -13 0 0 0ZM0 400C13 400 22 438 22 575C22 712 13 750 0 750C-13 750 -22 712 -22 575C-22 438 -13 400 0 400Z" glyph-name="asciicircum" horiz-adv-x="750" unicode="^" /><glyph d="M0 0H30C58 0 80 22 80 50V300C80 328 58 350 30 350H0ZM0 400H30C58 400 80 422 80 450V605C80 668 120 699 120 722C120 737 102 750 80 750H0ZM670 450C670 422 692 400 720 400H750V750H720C692 750 670 728 670 700ZM553 708C553 733 536 750 511 750H351C331 750 320 739 320 724C320 698 386 675 407 582L491 200C497 171 507 150 528 150C547 150 553 171 553 203ZM750 350H720C692 350 670 328 670 300V145C670 82 630 51 630 28C630 13 648 0 670 0H750ZM197 42C197 17 214 0 239 0H399C419 0 430 11 430 26C430 52 364 75 343 168L259 550C253 579 243 600 222 600C203 600 197 579 197 547ZM0 0C13 0 22 38 22 175C22 312 13 350 0 350C-13 350 -22 312 -22 175C-22 38 -13 0 0 0ZM0 400C13 400 22 438 22 575C22 712 13 750 0 750C-13 750 -22 712 -22 575C-22 438 -13 400 0 400ZM375 750Z" glyph-name="asciitilde" horiz-adv-x="750" unicode="~" /><glyph d="M0 0H375V350C-919 350 1007 350 0 350ZM119 718C109 743 99 750 71 750H0V400H71C99 400 109 407 119 433L152 516C156 527 145 539 133 534L55 503C38 496 23 505 23 524V625C23 644 38 653 55 646L134 615C146 610 158 621 153 633ZM256 433C266 407 276 400 304 400H375V750H304C276 750 266 743 256 718L222 633C217 621 229 610 241 615L321 647C338 654 353 644 353 625V524C353 505 338 496 321 503L242 534C230 539 218 528 223 516ZM0 0C13 0 22 38 22 175C22 312 13 350 0 350C-13 350 -22 312 -22 175C-22 38 -13 0 0 0ZM0 400C13 400 22 438 22 575C22 712 13 750 0 750C-13 750 -22 712 -22 575C-22 438 -13 400 0 400Z" glyph-name="asterisk" horiz-adv-x="375" unicode="*" /><glyph d="M58 479C87 577 174 662 282 695C311 704 323 715 323 730C323 741 315 750 293 750H0V400C23 400 39 415 58 479ZM58 271C39 335 23 350 0 350V0H293C315 0 323 9 323 20C323 35 311 46 282 55C174 88 87 173 58 271ZM543 89C555.0245 98.0184 554 114 547 123L513 171C506 181 492 186 482 178C453.8147 156.6181 415 143 375 143C263 143 144 234.8128 144 375C144 516.3957 263 609 375 609C502.6481 609 601 534 601 378C601 345 587 320 548 320C506 320 493 345 493 382C493 470 441 506 375 506C310 506 242 455 242 375C242 298 309 246 359 246C396.3864 246 422 275 453 275C484.0345 275 506 221 573 221C636 221 673 253 691 297C706 336 723.1667 350 750 350V0H457C435 0 427 9 427 20C427 35 439 46 468 55C496.3904 63.7355 525 75 543 89ZM692 479C711 415 727 400 750 400V750H457C435 750 427 741 427 730C427 715 439 704 468 695C576 662 663 577 692 479ZM0 0C13 0 22 38 22 175C22 312 13 350 0 350C-13 350 -22 312 -22 175C-22 38 -13 0 0 0ZM0 400C13 400 22 438 22 575C22 712 13 750 0 750C-13 750 -22 712 -22 575C-22 438 -13 400 0 400ZM376 750Z" glyph-name="at" horiz-adv-x="750" unicode="@" /><glyph d="M80 350H0V0H31C59 0 76 21 81 50L125 298C130 326 109 350 80 350ZM421 281C447 281 466 302 462 328L422 571C416 605 404 631 375 631C347 631 334 605 328 571L288 328C284 302 303 281 329 281ZM750 650H523C551 650 563 627 568 600L598 447C604 418 623 400 653 400H750ZM670 350C641 350 620 326 625 298L669 50C674 21 691 0 719 0H750V350ZM455 0C483 0 510 26 505 60L494 130C489 160 470 177 441 177H309C280 177 261 160 256 130L245 60C240 26 267 0 295 0ZM291 665C291 674 299 681 308 681C332 681 362 670 362 660C362 654 357 650 345 650C337 650 314 650 307 650C297 650 291 656 291 665ZM750 650V750H568C541 750 519 746 518 724C516 682 471 683 471 665C471 655 479 650 506 650ZM459 735C459 726 451 719 442 719C418 719 388 730 388 740C388 746 393 750 405 750C413 750 436 750 443 750C453 750 459 744 459 735ZM232 676C236 717 279 717 279 735C279 745 271 750 244 750H0V400H97C127 400 146 418 152 447L182 600C190 639 229 649 232 676ZM0 0C13 0 22 38 22 175C22 312 13 350 0 350C-13 350 -22 312 -22 175C-22 38 -13 0 0 0ZM0 400C13 400 22 438 22 575C22 712 13 750 0 750C-13 750 -22 712 -22 575C-22 438 -13 400 0 400Z" glyph-name="atilde" horiz-adv-x="750" unicode="&#227;" /><glyph d="M0 750V400H62C90 400 112 422 112 450V700C112 728 90 750 62 750ZM267 181V170C267 142 289 120 317 120H362C454.0976 120 480 166 480 248C480 336 409 371 342 329L331 322C278 290 267 255.48 267 181ZM594 596C594 550 579 504 507 453C496 445 497 425 522 418C554 409 628 400 692 400H750V750H532C511 750 485 745 485 731C485 718.3864 514 709 539 694C578 671 594 646.6154 594 596ZM0 350V0H62C90 0 112 22 112 50V300C112 328 90 350 62 350ZM428 573C428 613 396 640 351 640H322C279 640 267 624 267 589V469C267 424 287 411 355 454L369 463C409 489 428 537 428 573ZM601 77C582 50 554 36 535 31C503 22 503 0 533 0H750V350H711C657 350 614 359 596 359C587 359 581 354 581 345C581 319 640 302 640 209C640 141 615 96 601 77ZM0 0C13 0 22 38 22 175C22 312 13 350 0 350C-13 350 -22 312 -22 175C-22 38 -13 0 0 0ZM0 400C13 400 22 438 22 575C22 712 13 750 0 750C-13 750 -22 712 -22 575C-22 438 -13 400 0 400Z" glyph-name="b" horiz-adv-x="750" unicode="b" /><glyph d="M0 0H112C150 0 166 21 162 50L123 303C118 333 98 350 68 350H0ZM55 400C84 400 104 424 100 452L62 700C58 729 40 750 12 750H0V400ZM375 750H263C225 750 209 729 213 700L252 447C257 417 277 400 307 400H375ZM320 350C291 350 271 326 275 298L313 50C317 21 335 0 363 0H375V350ZM0 0C13 0 22 38 22 175C22 312 13 350 0 350C-13 350 -22 312 -22 175C-22 38 -13 0 0 0ZM0 400C13 400 22 438 22 575C22 712 13 750 0 750C-13 750 -22 712 -22 575C-22 438 -13 400 0 400Z" glyph-name="backslash" horiz-adv-x="375" unicode="\" /><glyph d="M0 0H63C91 0 113 22 113 50V300C113 328 91 350 63 350H0ZM0 400H63C91 400 113 423 113 452V700C113 728 91 750 63 750H0ZM375 0V350H312C284 350 262 328 262 300V50C262 22 284 0 312 0ZM375 400V750H312C284 750 262 728 262 700V452C262 423 284 400 312 400ZM0 0C13 0 22 38 22 175C22 312 13 350 0 350C-13 350 -22 312 -22 175C-22 38 -13 0 0 0ZM0 400C13 400 22 438 22 575C22 712 13 750 0 750C-13 750 -22 712 -22 575C-22 438 -13 400 0 400Z" glyph-name="bar" horiz-adv-x="375" unicode="|" /><glyph d="M0 0V350H-12C-40 350 -62 328 -62 300V50C-62 22 -40 0 -12 0ZM0 400V750H-12C-40 750 -62 728 -62 700V450C-62 422 -40 400 -12 400Z" glyph-name="before" horiz-adv-x="0" /><glyph d="M375 350H243C216 350 203 324 213 300L273 149C323 24 335 0 375 0ZM375 750H77C50 750 37 724 47 700L107 549C157 424 169 400 209 400H375Z" glyph-name="before10" horiz-adv-x="375" /><glyph d="M375 350H77C53 350 39 340 41 318C61 109 182 0 375 0ZM375 400V750C182 750 61 641 41 432C39 410 53 400 77 400Z" glyph-name="before11" horiz-adv-x="375" /><glyph d="M188 400V750C148 750 136 726 86 601L26 450C16 426 29 400 56 400ZM188 350H56C29 350 16 324 26 300L86 149C136 24 148 0 188 0Z" glyph-name="before2" horiz-adv-x="188" /><glyph d="M188 750H56C29 750 16 724 26 700L86 549C136 424 148 400 188 400ZM188 0V350C148 350 136 326 86 201L26 50C16 26 29 0 56 0Z" glyph-name="before3" horiz-adv-x="188" /><glyph d="M188 750H56C29 750 16 724 26 700L86 549C136 424 148 400 188 400ZM188 350H56C29 350 16 324 26 300L86 149C136 24 148 0 188 0Z" glyph-name="before4" horiz-adv-x="188" /><glyph d="M188 0V350C148 350 136 326 86 201L26 50C16 26 29 0 56 0ZM188 400V750C148 750 136 726 86 601L26 450C16 426 29 400 56 400Z" glyph-name="before5" horiz-adv-x="188" /><glyph d="M66 375C66 312 98 251 123 121C141 26 147 0 188 0V350H156C123 350 111 362 111 375C111 388 123 400 156 400H188V750C147 750 141 724 123 629C98 499 66 438 66 375Z" glyph-name="before6" horiz-adv-x="188" /><glyph d="M188 400V750C159 750 136 728 127 672L90 450C84 416 93 400 127 400ZM188 0V350H122C93 350 70 328 61 272L24 50C18 16 27 0 61 0Z" glyph-name="before7" horiz-adv-x="188" /><glyph d="M188 350H127C93 350 84 334 90 300L127 78C136 22 159 0 188 0ZM188 750H61C27 750 18 734 24 700L61 478C70 422 93 400 122 400H188ZM188 750C175 750 166 712 166 575C166 438 175 400 188 400C201 400 210 438 210 575C210 712 201 750 188 750ZM188 350C175 350 166 312 166 175C166 38 175 0 188 0C201 0 210 38 210 175C210 312 201 350 188 350Z" glyph-name="before8" horiz-adv-x="188" /><glyph d="M375 400V750C335 750 323 726 273 601L213 450C203 426 216 400 243 400ZM375 0V350H209C169 350 157 326 107 201L47 50C37 26 50 0 77 0Z" glyph-name="before9" horiz-adv-x="375" /><glyph d="M0 0H47C75 0 97 22 97 50V300C97 328 75 350 47 350H0ZM229 450C229 422 251 400 279 400H375V750H357C302 750 366 651 285 651H279C251 651 229 629 229 601ZM0 400H47C75 400 97 423 97 452V700C97 728 75 750 47 750H0ZM229 298V150C229 122 251 100 279 100H285C366 100 302 0 357 0H375V350H279C251 350 229 327 229 298ZM0 0C13 0 22 38 22 175C22 312 13 350 0 350C-13 350 -22 312 -22 175C-22 38 -13 0 0 0ZM0 400C13 400 22 438 22 575C22 712 13 750 0 750C-13 750 -22 712 -22 575C-22 438 -13 400 0 400Z" glyph-name="bracketleft" horiz-adv-x="375" unicode="[" /><glyph d="M375 0V350H328C300 350 278 328 278 300V50C278 22 300 0 328 0ZM146 450V601C146 629 124 651 96 651H90C9 651 73 750 18 750H0V400H96C124 400 146 422 146 450ZM375 400V750H328C300 750 278 728 278 700V452C278 423 300 400 328 400ZM146 298C146 327 124 350 96 350H0V0H18C73 0 9 100 90 100H96C124 100 146 122 146 150ZM0 0C13 0 22 38 22 175C22 312 13 350 0 350C-13 350 -22 312 -22 175C-22 38 -13 0 0 0ZM0 400C13 400 22 438 22 575C22 712 13 750 0 750C-13 750 -22 712 -22 575C-22 438 -13 400 0 400Z" glyph-name="bracketright" horiz-adv-x="375" unicode="]" /><glyph d="M0 650H235C258 650 260 666 245 677C231 688 219 706 213 729C208 747 191 750 164 750H0ZM388 750H362C348 750 335 744 340 724L342 716C346 699 363 694 375 694C387 694 404 701 408 717L410 724C416 746 402 750 388 750ZM750 650V750H586C559 750 542 747 537 729C531 706 519 688 505 677C490 666 492 650 515 650ZM375 750Z" glyph-name="breve" horiz-adv-x="750" unicode="&#728;" /><glyph d="M262 527C262 499 252 477 224 477H151C123 477 113 499 113 527V700C113 728 91 750 63 750H0V400H375V750H312C284 750 262 728 262 700ZM262 223V50C262 22 284 0 312 0H375V350H0V0H63C91 0 113 22 113 50V223C113 251 123 273 151 273H224C252 273 262 251 262 223ZM0 0C13 0 22 38 22 175C22 312 13 350 0 350C-13 350 -22 312 -22 175C-22 38 -13 0 0 0ZM0 400C13 400 22 438 22 575C22 712 13 750 0 750C-13 750 -22 712 -22 575C-22 438 -13 400 0 400Z" glyph-name="brokenbar" horiz-adv-x="375" unicode="&#166;" /><glyph d="M750 400V750H0V400H50C103 400 128.514 417.7422 146 463C182 556 272 622 375 622C478 622 568 556 604 463C621.486 417.7422 647 400 700 400ZM750 350H700C647 350 621.486 332.2578 604 287C568 194 478 128 375 128C272 128 182 194 146 287C128.514 332.2578 103 350 50 350H0V0H750ZM0 0C13 0 22 38 22 175C22 312 13 350 0 350C-13 350 -22 312 -22 175C-22 38 -13 0 0 0ZM0 400C13 400 22 438 22 575C22 712 13 750 0 750C-13 750 -22 712 -22 575C-22 438 -13 400 0 400Z" glyph-name="bullet" horiz-adv-x="750" unicode="&#8226;" /><glyph d="M58 479C87 577 174 662 282 695C311 704 323 715 323 730C323 741 315 750 293 750H0V400C23 400 39 415 58 479ZM58 271C39 335 23 350 0 350V0H293C315 0 323 9 323 20C323 35 311 46 282 55C174 88 87 173 58 271ZM621 400H750V750H457C435 750 427 741 427 730C427 715 439 704 468 695C552 669 625 613 664 545C683 513 672 491 650 480L613 462C588 450 581 440 582 430C582 415 595 400 621 400ZM540 375C540 510 469 562 375 562C285 562 189 488 189 375C189 262 285 188 375 188C469 188 540 240 540 375ZM621 350C595 350 582 335 582 320C581 310 588 300 613 288L650 270C672 259 683 237 664 205C625 137 552 81 468 55C439 46 427 35 427 20C427 9 435 0 457 0H750V350ZM0 0C13 0 22 38 22 175C22 312 13 350 0 350C-13 350 -22 312 -22 175C-22 38 -13 0 0 0ZM0 400C13 400 22 438 22 575C22 712 13 750 0 750C-13 750 -22 712 -22 575C-22 438 -13 400 0 400ZM376 750Z" glyph-name="c" horiz-adv-x="750" unicode="c" /><glyph d="M58 271C39 335 23 350 0 350V0H293C315 0 323 9 323 20C323 35 311 46 282 55C174 88 87 173 58 271ZM621 350C595 350 582 335 582 320C581 310 588 300 613 288L650 270C672 259 683 237 664 205C625 137 552 81 468 55C439 46 427 35 427 20C427 9 435 0 457 0H750V350ZM540 375C540 509.8435 479 562 375 562C275 562 189 509.1751 189 375C189 262 285 188 375 188C469 188 540 240 540 375ZM175 650H0V400C23 400 36 415 58 479C95.6299 587.9286 117.9748 650 175 650ZM573 650C616.2475 650 629 615 664 545C680 513 672 491 650 480L613 462C588 450 581 440 582 430C582 415 595 400 621 400H750V650ZM0 0C13 0 22 38 22 175C22 312 13 350 0 350C-13 350 -22 312 -22 175C-22 38 -13 0 0 0ZM0 400C13 400 22 438 22 575C22 712 13 750 0 750C-13 750 -22 712 -22 575C-22 438 -13 400 0 400ZM750 650V750H562C535 750 519 742 505 724L476 686C462 668 471 650 503 650ZM0 750V650H245C272 650 290 654 295 676L304 714C309 736 294 750 262 750ZM375 750Z" glyph-name="cacute" horiz-adv-x="750" unicode="&#263;" /><glyph d="M0 650H217C249 650 258 668 244 686L215 724C201 742 185 750 158 750H0ZM750 650V750H592C565 750 549 742 535 724L506 686C492 668 501 650 533 650ZM388 750H362C348 750 336 744 340 724L348 680C351 663 363 658 375 658C387 658 399 663 402 681L410 724C414 744 402 750 388 750ZM375 750Z" glyph-name="caron" horiz-adv-x="750" unicode="&#711;" /><glyph d="M58 271C39 335 23 350 0 350V0H293C315 0 323 9 323 20C323 35 311 46 282 55C174 88 87 173 58 271ZM621 350C595 350 582 335 582 320C581 310 588 300 613 288L650 270C672 259 683 237 664 205C625 137 552 81 468 55C439 46 427 35 427 20C427 9 435 0 457 0H750V350ZM540 375C540 509.8435 479 562 375 562C275 562 189 509.1751 189 375C189 262 285 188 375 188C469 188 540 240 540 375ZM175 650H0V400C23 400 36 415 58 479C95.6299 587.9286 117.9748 650 175 650ZM573 650C616.2475 650 629 615 664 545C680 513 672 491 650 480L613 462C588 450 581 440 582 430C582 415 595 400 621 400H750V650ZM0 0C13 0 22 38 22 175C22 312 13 350 0 350C-13 350 -22 312 -22 175C-22 38 -13 0 0 0ZM0 400C13 400 22 438 22 575C22 712 13 750 0 750C-13 750 -22 712 -22 575C-22 438 -13 400 0 400ZM316 650C326 650 330 653 330 657C330 667 309 668 309 700C309 732 330 733 330 743C330 747 326 750 316 750H0V650ZM434 650H750V750H434C424 750 420 747 420 743C420 733 441 732 441 700C441 668 420 667 420 657C420 653 424 650 434 650ZM375 750Z" glyph-name="ccaron" horiz-adv-x="750" unicode="&#269;" /><glyph d="M58 479C87 577 174 662 282 695C311 704 323 715 323 730C323 741 315 750 293 750H0V400C23 400 39 415 58 479ZM621 400H750V750H457C435 750 427 741 427 730C427 715 439 704 468 695C552 669 625 613 664 545C683 513 672 491 650 480L613 462C588 450 581 440 582 430C582 415 595 400 621 400ZM540 375C540 510 469 562 375 562C285 562 189 488 189 375C189 286 285 228 375 228C469 228 540 269 540 375ZM272 99C171 127 82 189 58 271C39 335 23 350 0 350V0H188C215 0 231 8 245 26L274 64C284 77 293 93 272 99ZM476 98C461 93 457 83 455 74L446 36C441 14 456 0 488 0H750V350H621C595 350 582 335 582 320C581 310 588 300 613 288L650 270C672 259 683 237 664 205C633 151 549 123 476 98Z" glyph-name="ccedilla" horiz-adv-x="750" unicode="&#231;" /><glyph d="M58 271C39 335 23 350 0 350V0H293C315 0 323 9 323 20C323 35 311 46 282 55C174 88 87 173 58 271ZM621 350C595 350 582 335 582 320C581 310 588 300 613 288L650 270C672 259 683 237 664 205C625 137 552 81 468 55C439 46 427 35 427 20C427 9 435 0 457 0H750V350ZM540 375C540 509.8435 479 562 375 562C275 562 189 509.1751 189 375C189 262 285 188 375 188C469 188 540 240 540 375ZM175 650H0V400C23 400 36 415 58 479C95.6299 587.9286 117.9748 650 175 650ZM573 650C616.2475 650 629 615 664 545C680 513 672 491 650 480L613 462C588 450 581 440 582 430C582 415 595 400 621 400H750V650ZM0 0C13 0 22 38 22 175C22 312 13 350 0 350C-13 350 -22 312 -22 175C-22 38 -13 0 0 0ZM0 400C13 400 22 438 22 575C22 712 13 750 0 750C-13 750 -22 712 -22 575C-22 438 -13 400 0 400ZM0 750V650H168C190.2632 650 202.0271 659.001 215 676L244 714C258 732 249 750 217 750ZM750 750H533C501 750 492 732 506 714L535 676C547.9729 659.001 559.7368 650 582 650H750ZM388 650C402 650 413.7251 655.9775 410 676L402 719C399 737 386.6667 742 375 742C363.3333 742 351 737 348 720L340 676C336.3568 655.9624 348 650 362 650ZM375 750Z" glyph-name="ccircumflex" horiz-adv-x="750" unicode="&#265;" /><glyph d="M58 271C39 335 23 350 0 350V0H293C315 0 323 9 323 20C323 35 311 46 282 55C174 88 87 173 58 271ZM621 350C595 350 582 335 582 320C581 310 588 300 613 288L650 270C672 259 683 237 664 205C625 137 552 81 468 55C439 46 427 35 427 20C427 9 435 0 457 0H750V350ZM540 375C540 509.8435 479 562 375 562C275 562 189 509.1751 189 375C189 262 285 188 375 188C469 188 540 240 540 375ZM175 650H0V400C23 400 36 415 58 479C95.6299 587.9286 117.9748 650 175 650ZM573 650C616.2475 650 629 615 664 545C680 513 672 491 650 480L613 462C588 450 581 440 582 430C582 415 595 400 621 400H750V650ZM0 0C13 0 22 38 22 175C22 312 13 350 0 350C-13 350 -22 312 -22 175C-22 38 -13 0 0 0ZM0 400C13 400 22 438 22 575C22 712 13 750 0 750C-13 750 -22 712 -22 575C-22 438 -13 400 0 400ZM0 650H217C249 650 258 668 244 686L215 724C201 742 185 750 158 750H0ZM750 650V750H592C565 750 549 742 535 724L506 686C492 668 501 650 533 650ZM388 750H362C348 750 336 744 340 724L348 680C351 663 363 658 375 658C387 658 399 663 402 681L410 724C414 744 402 750 388 750ZM375 750Z" glyph-name="cdotaccent" horiz-adv-x="750" unicode="&#267;" /><glyph d="M0 100V0H188C215 0 231 8 245 26L274 64C288 82 279 100 247 100ZM750 0V100H505C478 100 460 96 455 74L446 36C441 14 456 0 488 0ZM375 750Z" glyph-name="cedilla" horiz-adv-x="750" unicode="&#184;" /><glyph d="M0 750V650H168C190.2632 650 202.0271 659.001 215 676L244 714C258 732 249 750 217 750ZM750 750H533C501 750 492 732 506 714L535 676C547.9729 659.001 559.7368 650 582 650H750ZM388 650C402 650 413.7251 655.9775 410 676L402 719C399 737 386.6667 742 375 742C363.3333 742 351 737 348 720L340 676C336.3568 655.9624 348 650 362 650ZM375 750Z" glyph-name="circumflex" horiz-adv-x="750" unicode="&#710;" /><glyph d="M0 750V400H130C151 400 159 404 159 416C159 424 156 429 139 436C90 456 54 504 54 560C54 633 114 694 187 694C261 694 321 633 321 560C321 504 285 456 236 436C219 429 216 424 216 416C216 404 224 400 245 400H375V750ZM0 0H375V350H245C224 350 216 346 216 334C216 326 219 321 236 314C285 294 321 246 321 190C321 117 261 56 187 56C114 56 54 117 54 190C54 246 90 294 139 314C156 321 159 326 159 334C159 346 151 350 130 350H0ZM0 0C13 0 22 38 22 175C22 312 13 350 0 350C-13 350 -22 312 -22 175C-22 38 -13 0 0 0ZM0 400C13 400 22 438 22 575C22 712 13 750 0 750C-13 750 -22 712 -22 575C-22 438 -13 400 0 400Z" glyph-name="colon" horiz-adv-x="375" unicode=":" /><glyph d="M750 400V750H0V400H213C239 400 252 409 261 431C279 478 324 511 375 511C427 511 472 478 490 431C498 409 511 400 538 400ZM750 350H538C511 350 498 341 490 318C445.434 203.5464 361 117 300 117C274 117 261 132 261 171V307C261 341 239 350 213 350H0V0H750ZM0 0C13 0 22 38 22 175C22 312 13 350 0 350C-13 350 -22 312 -22 175C-22 38 -13 0 0 0ZM0 400C13 400 22 438 22 575C22 712 13 750 0 750C-13 750 -22 712 -22 575C-22 438 -13 400 0 400Z" glyph-name="comma" horiz-adv-x="750" unicode="," /><glyph d="M666 257C626 156 500 48 356 28C337 25 336 17 336 11C336 5 341 0 355 0H750V350C719 350 698 337 666 257ZM265 177C265 150 286 150 303 151C432.0792 161.0061 533 234 533 375C533 515.549 434.078 588.994 303 599C287 600 265 598 265 573ZM0 0H60C88 0 110 22 110 50V300C110 328 88 350 60 350H0ZM0 400H60C88 400 110 422 110 450V700C110 728 88 750 60 750H0ZM666 493C698 413 719 400 750 400V750H355C341 750 336 745 336 739C336 733 337 725 356 722C500 702 626 594 666 493ZM0 0C13 0 22 38 22 175C22 312 13 350 0 350C-13 350 -22 312 -22 175C-22 38 -13 0 0 0ZM0 400C13 400 22 438 22 575C22 712 13 750 0 750C-13 750 -22 712 -22 575C-22 438 -13 400 0 400Z" glyph-name="d" horiz-adv-x="750" unicode="d" /><glyph d="M666 257C626 156 500 48 356 28C337 25 336 17 336 11C336 5 341 0 355 0H750V350C719 350 698 337 666 257ZM265 177C265 150 286 150 303 151C432 161 533 234 533 375C533 501 448 559 303 559C280 559 265 549 265 522ZM0 0H60C88 0 110 22 110 50V300C110 328 88 350 60 350H0ZM0 400H60C88 400 110 422 110 450V600C110 628 132 650 160 650H0ZM666 493C698 413 719 400 750 400V650H523C591 650 637.3065 565.4511 666 493ZM0 650H217C249 650 258 668 244 686L215 724C201 742 185 750 158 750H0ZM750 650V750H592C565 750 549 742 535 724L506 686C492 668 501 650 533 650ZM388 750H362C348 750 336 744 340 724L348 680C351 663 363 658 375 658C387 658 399 663 402 681L410 724C414 744 402 750 388 750ZM375 750ZM0 0C13 0 22 38 22 175C22 312 13 350 0 350C-13 350 -22 312 -22 175C-22 38 -13 0 0 0ZM0 400C13 400 22 438 22 575C22 712 13 750 0 750C-13 750 -22 712 -22 575C-22 438 -13 400 0 400Z" glyph-name="dcaron" horiz-adv-x="750" unicode="&#271;" /><glyph d="M0 750V400H130C151 400 159 404 159 416C159 424 156 429 139 436C90 456 54 504 54 560C54 633 114 694 187 694C261 694 321 633 321 560C321 504 285 456 236 436C219 429 216 424 216 416C216 404 224 400 245 400H375V750ZM0 0H375V350C-918.562 350 1006.6667 350 0 350ZM188 514C162 514 141 535 141 561C141 586 162 608 188 608C213 608 235 586 235 561C235 535 213 514 188 514ZM0 0C13 0 22 38 22 175C22 312 13 350 0 350C-13 350 -22 312 -22 175C-22 38 -13 0 0 0ZM0 400C13 400 22 438 22 575C22 712 13 750 0 750C-13 750 -22 712 -22 575C-22 438 -13 400 0 400Z" glyph-name="degree" horiz-adv-x="375" unicode="&#176;" /><glyph d="M221 650C231 650 235 653 235 657C235 667 214 668 214 700C214 732 235 733 235 743C235 747 231 750 221 750H0V650ZM529 650H750V750H529C519 750 515 747 515 743C515 733 536 732 536 700C536 668 515 667 515 657C515 653 519 650 529 650ZM411 650C421 650 425 653 425 657C425 667 404 668 404 700C404 732 425 733 425 743C425 747 421 750 411 750H370V650ZM339 650H391V750H339C329 750 325 747 325 743C325 733 346 732 346 700C346 668 325 667 325 657C325 653 329 650 339 650ZM375 750Z" glyph-name="dieresis" horiz-adv-x="750" unicode="&#168;" /><glyph d="M481 596C481 551 451 514 422 501C406 493 401 487 401 476C401 464 410 458 432 458H586C625 458 618 400 670 400H750V750H0V400H80C132 400 125 458 164 458H317C339 458 348 464 348 476C348 487 343 493 327 501C298 514 268 551 268 596C268 654 316 703 374 703C433 703 481 654 481 596ZM481 154C481 96 433 47 374 47C316 47 268 96 268 154C268 199 298 236 327 249C343 257 348 263 348 274C348 286 339 292 317 292H164C125 292 132 350 80 350H0V0H750V350H670C618 350 625 292 586 292H432C410 292 401 286 401 274C401 263 406 257 422 249C451 236 481 199 481 154ZM0 0C13 0 22 38 22 175C22 312 13 350 0 350C-13 350 -22 312 -22 175C-22 38 -13 0 0 0ZM0 400C13 400 22 438 22 575C22 712 13 750 0 750C-13 750 -22 712 -22 575C-22 438 -13 400 0 400Z" glyph-name="divide" horiz-adv-x="750" unicode="&#247;" /><glyph d="M82 522C82 596 159.7673 673.1053 277 685C288.9801 686.2155 301 693 301 702V735C301 743 296 750 282 750H0V400H146C153 400 158 404 158 412C158 419 156.9166 419.859 145 427C105.7198 450.5385 82 480 82 522ZM750 400V750H488C472 750 467 745 467 738V716C467 702 481.9005 689.6492 506 683C578.7151 662.9374 637.0652 613.0397 673 554C690.0309 526.0188 681.9548 508.0841 654 493C607.925 468.1384 590.973 463.0919 567 456C556.9886 453.0383 553 447 553 438C553 416 580 400 679 400ZM688 228C688 154 602.04 89.7933 494 69C473.0077 64.9598 467 59 467 47V15C467 7 472 0 486 0H750V350H604C597 350 592 346 592 338C592 331 593.0421 328.0998 605 323C660.1981 299.4591 688 270 688 228ZM0 350V0H283C295 0 301 6 301 15V41C301 54 286.0839 62.2592 271 67C183.4611 94.5127 113.1569 136.0944 77 196C60.0734 224.0444 68.0452 241.9159 96 257C142.075 281.8616 168 288 183 294C193 298 197 304 197 311C197 336.0799 170 350 71 350ZM394 685C404 685 413 693 413 702V735C413 743 408 750 394 750H374C360 750 355 743 355 735V702C355 693 364 685 374 685ZM394 63H374C364 63 355 55 355 46V15C355 7 360 0 374 0H394C408 0 413 7 413 15V46C413 55 404 63 394 63ZM301 546C301 557 291.9736 564.1403 281 562C256.9381 557.3069 232 543 232 517C232 494 259.7127 479.2629 282 471C290.8952 467.7022 301 475 301 484ZM413 548C413 561 406 569 393 570L375 571C363 572 355 563 355 551V467C355 454 361 445 374 442L394 437C404 434 413 442 413 452ZM467 206C467 195 476.0632 187.4552 487 189C513.2162 192.7031 538 209 538 233C538 255 511.1053 268.2982 486 277C477.0363 280.1069 467 273 467 263ZM467 443C467 431 474.9584 424 487 424C495 424 516.082 436.9614 533 473C540.0341 487.984 540.0767 499.0653 529 512C516.089 527.0767 494.8251 541.5879 485 546C476.8407 549.6641 467 543 467 534ZM355 200C355 187 362.0981 179 383 179C405.9921 179 413 187 413 200V279C413 292 406 300 393 303L374 308C364 311 355 303 355 293ZM301 306C301 318 292.9768 326.7529 281 328C264.9622 329.6699 236.9314 320.5056 217 277C210.656 263.1525 211.9287 248.9386 224 235C237.9182 218.9288 263.1709 201.6094 282 196C291.092 193.2914 301 200 301 210ZM0 0C13 0 22 38 22 175C22 312 13 350 0 350C-13 350 -22 312 -22 175C-22 38 -13 0 0 0ZM0 400C13 400 22 438 22 575C22 712 13 750 0 750C-13 750 -22 712 -22 575C-22 438 -13 400 0 400ZM0 0C13 0 22 38 22 175C22 312 13 350 0 350C-13 350 -22 312 -22 175C-22 38 -13 0 0 0ZM0 400C13 400 22 438 22 575C22 712 13 750 0 750C-13 750 -22 712 -22 575C-22 438 -13 400 0 400Z" glyph-name="dollar" horiz-adv-x="750" unicode="$" /><glyph d="M316 650C326 650 330 653 330 657C330 667 309 668 309 700C309 732 330 733 330 743C330 747 326 750 316 750H0V650ZM434 650H750V750H434C424 750 420 747 420 743C420 733 441 732 441 700C441 668 420 667 420 657C420 653 424 650 434 650ZM375 750Z" glyph-name="dotaccent" horiz-adv-x="750" unicode="&#729;" /><glyph d="M450 300V189C450 161 472 139 500 139H609C724 139 655 0 750 0V350H500C472 350 450 328 450 300ZM300 300C300 328 278 350 250 350H0V0C94 0 26 139 141 139H250C278 139 300 161 300 189ZM658 511H500C472 511 450 489 450 461V450C450 422 472 400 500 400H750V650H666C694 650 704 628 704 600V566C704 538 697 511 658 511ZM92 511C53 511 46 538 46 566V600C46 628 56 650 84 650H0V400H250C278 400 300 422 300 450V461C300 489 278 511 250 511ZM0 0C13 0 22 38 22 175C22 312 13 350 0 350C-13 350 -22 312 -22 175C-22 38 -13 0 0 0ZM0 400C13 400 22 438 22 575C22 712 13 750 0 750C-13 750 -22 712 -22 575C-22 438 -13 400 0 400ZM375 750Z" glyph-name="dotlessi" horiz-adv-x="750" unicode="&#305;" /><glyph d="M58 479C87 577 174 662 282 695C311 704 323 715 323 730C323 741 315 750 293 750H0V400C23 400 39 415 58 479ZM58 271C39 335 23 350 0 350V0H293C315 0 323 9 323 20C323 35 311 46 282 55C174 88 87 173 58 271ZM621 400H750V750H457C435 750 427 741 427 730C427 715 439 704 468 695C552 669 625 613 664 545C683 513 672 491 650 480L613 462C588 450 581 440 582 430C582 415 595 400 621 400ZM621 350C595 350 582 335 582 320C581 310 588 300 613 288L650 270C672 259 683 237 664 205C625 137 552 81 468 55C439 46 427 35 427 20C427 9 435 0 457 0H750V350ZM505 509C470 542 425 562 375 562C305 562 243 522 216 470C208 455 214 438 240 438H377C448 438 519 450 519 477C519 489 514 500 505 509ZM505 241C514 250 519 261 519 273C519 300 448 312 377 312H240C214 312 208 295 216 280C243 228 305 188 375 188C425 188 470 208 505 241ZM0 0C13 0 22 38 22 175C22 312 13 350 0 350C-13 350 -22 312 -22 175C-22 38 -13 0 0 0ZM0 400C13 400 22 438 22 575C22 712 13 750 0 750C-13 750 -22 712 -22 575C-22 438 -13 400 0 400Z" glyph-name="e" horiz-adv-x="750" unicode="e" /><glyph d="M750 650V750H562C535 750 519 742 505 724L476 686C462 668 471 650 503 650ZM0 750V650H245C272 650 290 654 295 676L304 714C309 736 294 750 262 750ZM375 750ZM0 0H60C88 0 110 22 110 50V300C110 328 88 350 60 350H0ZM263 222V170C263 142 285 120 313 120H658C739 120 675 0 730 0H750V350H630C578 350 585 274 546 274H313C285 274 263 251 263 222ZM0 400H60C88 400 110 422 110 450V600C110 628 120 650 148 650H0ZM704 586C702 558 697 531 658 531H313C285 531 263 509 263 481V450C263 422 285 400 313 400H750V650H666C694 650 704 628 704 600ZM0 0C13 0 22 38 22 175C22 312 13 350 0 350C-13 350 -22 312 -22 175C-22 38 -13 0 0 0ZM0 400C13 400 22 438 22 575C22 712 13 750 0 750C-13 750 -22 712 -22 575C-22 438 -13 400 0 400ZM375 750Z" glyph-name="eacute" horiz-adv-x="750" unicode="&#233;" /><glyph d="M0 0H60C88 0 110 22 110 50V300C110 328 88 350 60 350H0ZM263 222V170C263 142 285 120 313 120H658C739 120 675 0 730 0H750V350H630C578 350 585 274 546 274H313C285 274 263 251 263 222ZM0 400H60C88 400 110 422 110 450V600C110 628 120 650 148 650H0ZM704 586C702 558 697 531 658 531H313C285 531 263 509 263 481V450C263 422 285 400 313 400H750V650H666C694 650 704 628 704 600ZM0 0C13 0 22 38 22 175C22 312 13 350 0 350C-13 350 -22 312 -22 175C-22 38 -13 0 0 0ZM0 400C13 400 22 438 22 575C22 712 13 750 0 750C-13 750 -22 712 -22 575C-22 438 -13 400 0 400ZM375 750ZM0 650H235C258 650 260 666 245 677C231 688 219 706 213 729C208 747 191 750 164 750H0ZM388 750H362C348 750 335 744 340 724L342 716C346 699 363 694 375 694C387 694 404 701 408 717L410 724C416 746 402 750 388 750ZM750 650V750H586C559 750 542 747 537 729C531 706 519 688 505 677C490 666 492 650 515 650ZM375 750Z" glyph-name="ebreve" horiz-adv-x="750" unicode="&#277;" /><glyph d="M0 0H60C88 0 110 22 110 50V300C110 328 88 350 60 350H0ZM263 222V170C263 142 285 120 313 120H658C739 120 675 0 730 0H750V350H630C578 350 585 274 546 274H313C285 274 263 251 263 222ZM0 400H60C88 400 110 422 110 450V600C110 628 120 650 148 650H0ZM704 586C702 558 697 531 658 531H313C285 531 263 509 263 481V450C263 422 285 400 313 400H750V650H666C694 650 704 628 704 600ZM0 0C13 0 22 38 22 175C22 312 13 350 0 350C-13 350 -22 312 -22 175C-22 38 -13 0 0 0ZM0 400C13 400 22 438 22 575C22 712 13 750 0 750C-13 750 -22 712 -22 575C-22 438 -13 400 0 400ZM375 750ZM0 650H217C249 650 258 668 244 686L215 724C201 742 185 750 158 750H0ZM750 650V750H592C565 750 549 742 535 724L506 686C492 668 501 650 533 650ZM388 750H362C348 750 336 744 340 724L348 680C351 663 363 658 375 658C387 658 399 663 402 681L410 724C414 744 402 750 388 750ZM375 750Z" glyph-name="ecaron" horiz-adv-x="750" unicode="&#283;" /><glyph d="M0 750V650H168C190.2632 650 202.0271 659.001 215 676L244 714C258 732 249 750 217 750ZM750 750H533C501 750 492 732 506 714L535 676C547.9729 659.001 559.7368 650 582 650H750ZM388 650C402 650 413.7251 655.9775 410 676L402 719C399 737 386.6667 742 375 742C363.3333 742 351 737 348 720L340 676C336.3568 655.9624 348 650 362 650ZM375 750ZM0 0H60C88 0 110 22 110 50V300C110 328 88 350 60 350H0ZM263 222V170C263 142 285 120 313 120H658C739 120 675 0 730 0H750V350H630C578 350 585 274 546 274H313C285 274 263 251 263 222ZM0 400H60C88 400 110 422 110 450V600C110 628 120 650 148 650H0ZM704 586C702 558 697 531 658 531H313C285 531 263 509 263 481V450C263 422 285 400 313 400H750V650H666C694 650 704 628 704 600ZM0 0C13 0 22 38 22 175C22 312 13 350 0 350C-13 350 -22 312 -22 175C-22 38 -13 0 0 0ZM0 400C13 400 22 438 22 575C22 712 13 750 0 750C-13 750 -22 712 -22 575C-22 438 -13 400 0 400ZM375 750Z" glyph-name="ecircumflex" horiz-adv-x="750" unicode="&#234;" /><glyph d="M221 650C231 650 235 653 235 657C235 667 214 668 214 700C214 732 235 733 235 743C235 747 231 750 221 750H0V650ZM529 650H750V750H529C519 750 515 747 515 743C515 733 536 732 536 700C536 668 515 667 515 657C515 653 519 650 529 650ZM411 650C421 650 425 653 425 657C425 667 404 668 404 700C404 732 425 733 425 743C425 747 421 750 411 750H370V650ZM339 650H391V750H339C329 750 325 747 325 743C325 733 346 732 346 700C346 668 325 667 325 657C325 653 329 650 339 650ZM375 750ZM0 0H60C88 0 110 22 110 50V300C110 328 88 350 60 350H0ZM263 222V170C263 142 285 120 313 120H658C739 120 675 0 730 0H750V350H630C578 350 585 274 546 274H313C285 274 263 251 263 222ZM0 400H60C88 400 110 422 110 450V600C110 628 120 650 148 650H0ZM704 586C702 558 697 531 658 531H313C285 531 263 509 263 481V450C263 422 285 400 313 400H750V650H666C694 650 704 628 704 600ZM0 0C13 0 22 38 22 175C22 312 13 350 0 350C-13 350 -22 312 -22 175C-22 38 -13 0 0 0ZM0 400C13 400 22 438 22 575C22 712 13 750 0 750C-13 750 -22 712 -22 575C-22 438 -13 400 0 400ZM375 750Z" glyph-name="edieresis" horiz-adv-x="750" unicode="&#235;" /><glyph d="M0 0H60C88 0 110 22 110 50V300C110 328 88 350 60 350H0ZM263 222V170C263 142 285 120 313 120H658C739 120 675 0 730 0H750V350H630C578 350 585 274 546 274H313C285 274 263 251 263 222ZM0 400H60C88 400 110 422 110 450V600C110 628 120 650 148 650H0ZM704 586C702 558 697 531 658 531H313C285 531 263 509 263 481V450C263 422 285 400 313 400H750V650H666C694 650 704 628 704 600ZM0 0C13 0 22 38 22 175C22 312 13 350 0 350C-13 350 -22 312 -22 175C-22 38 -13 0 0 0ZM0 400C13 400 22 438 22 575C22 712 13 750 0 750C-13 750 -22 712 -22 575C-22 438 -13 400 0 400ZM375 750ZM316 650C326 650 330 653 330 657C330 667 309 668 309 700C309 732 330 733 330 743C330 747 326 750 316 750H0V650ZM434 650H750V750H434C424 750 420 747 420 743C420 733 441 732 441 700C441 668 420 667 420 657C420 653 424 650 434 650ZM375 750Z" glyph-name="edotaccent" horiz-adv-x="750" unicode="&#279;" /><glyph d="M0 650H247C279 650 288 668 274 686L245 724C231 742 215 750 188 750H0ZM750 750H488C456 750 441 736 446 714L455 676C460 654 478 650 505 650H750ZM375 750ZM0 0H60C88 0 110 22 110 50V300C110 328 88 350 60 350H0ZM263 222V170C263 142 285 120 313 120H658C739 120 675 0 730 0H750V350H630C578 350 585 274 546 274H313C285 274 263 251 263 222ZM0 400H60C88 400 110 422 110 450V600C110 628 120 650 148 650H0ZM704 586C702 558 697 531 658 531H313C285 531 263 509 263 481V450C263 422 285 400 313 400H750V650H666C694 650 704 628 704 600ZM0 0C13 0 22 38 22 175C22 312 13 350 0 350C-13 350 -22 312 -22 175C-22 38 -13 0 0 0ZM0 400C13 400 22 438 22 575C22 712 13 750 0 750C-13 750 -22 712 -22 575C-22 438 -13 400 0 400ZM375 750Z" glyph-name="egrave" horiz-adv-x="750" unicode="&#232;" /><glyph d="M663 552C663 497 643 453 600 427C590 421 587 418 587 412C587 404 592 400 599 400H750V750H467C453 750 448 743 448 735C448 727 456 718 478 715C588.9094 701.2684 663 626 663 552ZM683 198C683 124 600.9153 49.7078 478 35C456 32 448 23 448 15C448 7 453 0 467 0H750V350H609C602 350 597 346 597 339C597 331 601 327 610 323C661 300 683 253 683 198ZM87 552C87 626 161.0882 701.2681 272 715C294 718 302 727 302 735C302 743 297 750 283 750H0V400H151C158 400 163 404 163 412C163 418 160 421 150 427C107 453 87 497 87 552ZM67 198C67 253 89 300 140 323C149 327 153 331 153 339C153 346 148 350 141 350H0V0H283C297 0 302 7 302 15C302 23 294 32 272 35C149.0827 49.7081 67 124 67 198ZM375 424C450.9322 424 503 462.2832 503 527C503 584.8125 452.0169 601 375 601C299.0678 601 247 582.5 247 527C247 462.2832 299.0678 424 375 424ZM375 326C288.1304 326 227 289.5398 227 223C227 167.5 285.9855 149 375 149C462.942 149 523 166.3438 523 223C523 287.7168 461.8696 326 375 326ZM0 0C13 0 22 38 22 175C22 312 13 350 0 350C-13 350 -22 312 -22 175C-22 38 -13 0 0 0ZM0 400C13 400 22 438 22 575C22 712 13 750 0 750C-13 750 -22 712 -22 575C-22 438 -13 400 0 400Z" glyph-name="eight" horiz-adv-x="750" unicode="8" /><glyph d="M0 750V400H317C338 400 346 404 346 416C346 424 343 429 326 436C277 456 241 504 241 560C241 633 301 694 374 694C448 694 508 633 508 560C508 504 472 456 423 436C406 429 403 424 403 416C403 404 411 400 432 400H750V750ZM0 0H375V350H245C224 350 216 346 216 334C216 326 219 321 236 314C285 294 321 246 321 190C321 117 261 56 187 56C114 56 54 117 54 190C54 246 90 294 139 314C156 321 159 326 159 334C159 346 151 350 130 350H0ZM375 0H750V350H620C599 350 591 346 591 334C591 326 594 321 611 314C660 294 696 246 696 190C696 117 636 56 562 56C489 56 429 117 429 190C429 246 465 294 514 314C531 321 534 326 534 334C534 346 526 350 505 350H375ZM0 0C13 0 22 38 22 175C22 312 13 350 0 350C-13 350 -22 312 -22 175C-22 38 -13 0 0 0ZM0 400C13 400 22 438 22 575C22 712 13 750 0 750C-13 750 -22 712 -22 575C-22 438 -13 400 0 400Z" glyph-name="ellipsis" horiz-adv-x="750" unicode="&#8230;" /><glyph d="M0 0H60C88 0 110 22 110 50V300C110 328 88 350 60 350H0ZM263 222V170C263 142 285 120 313 120H658C739 120 675 0 730 0H750V350H630C578 350 585 274 546 274H313C285 274 263 251 263 222ZM0 400H60C88 400 110 422 110 450V600C110 628 120 650 148 650H0ZM704 586C702 558 697 531 658 531H313C285 531 263 509 263 481V450C263 422 285 400 313 400H750V650H666C694 650 704 628 704 600ZM0 0C13 0 22 38 22 175C22 312 13 350 0 350C-13 350 -22 312 -22 175C-22 38 -13 0 0 0ZM0 400C13 400 22 438 22 575C22 712 13 750 0 750C-13 750 -22 712 -22 575C-22 438 -13 400 0 400ZM375 750ZM750 750H517C485 750 475 737 475 714V682C475 659 486 650 525 650H750ZM0 750V650H225C264 650 275 659 275 682V714C275 737 265 750 233 750ZM375 750Z" glyph-name="emacron" horiz-adv-x="750" unicode="&#275;" /><glyph d="M0 400H1500V750H0ZM0 0H1500V350H0ZM0 0C13 0 22 38 22 175C22 312 13 350 0 350C-13 350 -22 312 -22 175C-22 38 -13 0 0 0ZM0 400C13 400 22 438 22 575C22 712 13 750 0 750C-13 750 -22 712 -22 575C-22 438 -13 400 0 400Z" glyph-name="emdash" horiz-adv-x="1500" unicode="&#8212;" /><glyph d="M0 400H750V750H0ZM0 0H750V350H0ZM0 0C13 0 22 38 22 175C22 312 13 350 0 350C-13 350 -22 312 -22 175C-22 38 -13 0 0 0ZM0 400C13 400 22 438 22 575C22 712 13 750 0 750C-13 750 -22 712 -22 575C-22 438 -13 400 0 400Z" glyph-name="endash" horiz-adv-x="750" unicode="&#8211;" /><glyph d="M516 0H0V100H536C546 100 550 97 550 93C550 83 509 73 509 41C509 18 530 17 530 7C530 3 526 0 516 0ZM664 30H682C717 30 724 0 743 0H750V100H664C627 100 614 87 614 65C614 43 627 30 664 30ZM0 750H60C88 750 110 728 110 700V450C110 422 88 400 60 400H0ZM263 528V580C263 608 285 630 313 630H658C739 630 675 750 730 750H750V400H630C578 400 585 476 546 476H313C285 476 263 499 263 528ZM0 350H60C88 350 110 328 110 300V150C110 122 120 100 148 100H0ZM704 164C702 192 697 219 658 219H313C285 219 263 241 263 269V300C263 328 285 350 313 350H750V100H666C694 100 704 122 704 150ZM0 750C13 750 22 712 22 575C22 438 13 400 0 400C-13 400 -22 438 -22 575C-22 712 -13 750 0 750ZM0 350C13 350 22 312 22 175C22 38 13 0 0 0C-13 0 -22 38 -22 175C-22 312 -13 350 0 350ZM375 0Z" glyph-name="eogonek" horiz-adv-x="750" unicode="&#281;" /><glyph d="M553 598C602 598 611 567 623 499C635 432 654 400 687 400H750V750H0V400H63C96 400 115 432 127 499C139 567 148 598 197 598ZM608 376C608 407 588 443 551 443H199C162 443 142 407 142 376C142 344 162 307 199 307H551C588 307 608 344 608 376ZM553 152H197C148 152 139 183 127 251C115 318 96 350 63 350H0V0H750V350H687C654 350 635 318 623 251C611 183 602 152 553 152ZM0 0C13 0 22 38 22 175C22 312 13 350 0 350C-13 350 -22 312 -22 175C-22 38 -13 0 0 0ZM0 400C13 400 22 438 22 575C22 712 13 750 0 750C-13 750 -22 712 -22 575C-22 438 -13 400 0 400Z" glyph-name="equal" horiz-adv-x="750" unicode="=" /><glyph d="M666 257C626 156 500 48 356 28C337 25 336 17 336 11C336 5 341 0 355 0H750V350C719 350 698 337 666 257ZM666 493C698 413 719 400 750 400V750H355C341 750 336 745 336 739C336 733 337 725 356 722C500 702 626 594 666 493ZM84 302C46.4657 312.8652 42 350 0 350V0H60C88 0 110 22 110 50V257C110 282 102 297 84 302ZM303 302H376C415 302 408 350 460 350H502C523 350 531 333 526 313C500 212 412 159 303 151C286 150 265 150 265 177V261C265 288 282 302 303 302ZM84 448C102 453 110 468 110 493V700C110 728 88 750 60 750H0V400C42 400 46.4657 437.1348 84 448ZM303 448C282 448 265 462 265 489V573C265 600 286 600 303 599C412 591 500 538 526 437C531 417 523 400 502 400H460C408 400 415 448 376 448ZM0 0C13 0 22 38 22 175C22 312 13 350 0 350C-13 350 -22 312 -22 175C-22 38 -13 0 0 0ZM0 400C13 400 22 438 22 575C22 712 13 750 0 750C-13 750 -22 712 -22 575C-22 438 -13 400 0 400Z" glyph-name="eth" horiz-adv-x="750" unicode="&#240;" /><glyph d="M0 0H375V350H245C224 350 216 346 216 334C216 326 219 321 236 314C285 294 321 246 321 190C321 117 261 56 187 56C114 56 54 117 54 190C54 246 90 294 139 314C156 321 159 326 159 334C159 346 151 350 130 350H0ZM0 750V400H120C151 400 163 413 151 451L72 689C60 726 44 750 0 750ZM375 750C331 750 315 726 303 689L224 451C212 413 224 400 255 400H375ZM0 0C13 0 22 38 22 175C22 312 13 350 0 350C-13 350 -22 312 -22 175C-22 38 -13 0 0 0ZM0 400C13 400 22 438 22 575C22 712 13 750 0 750C-13 750 -22 712 -22 575C-22 438 -13 400 0 400Z" glyph-name="exclam" horiz-adv-x="375" unicode="!" /><glyph d="M375 750H0V400H130C151 400 159 404 159 416C159 424 156 429 139 436C90 456 54 504 54 560C54 633 114 694 188 694C261 694 321 633 321 560C321 504 285 456 236 436C219 429 216 424 216 416C216 404 224 400 245 400H375ZM375 0V350H255C224 350 212 337 224 299L303 61C315 24 331 0 375 0ZM0 0C44 0 60 24 72 61L151 299C163 337 151 350 120 350H0ZM375 750C362 750 353 712 353 575C353 438 362 400 375 400C388 400 397 438 397 575C397 712 388 750 375 750ZM375 350C362 350 353 312 353 175C353 38 362 0 375 0C388 0 397 38 397 175C397 312 388 350 375 350ZM0 0C13 0 22 38 22 175C22 312 13 350 0 350C-13 350 -22 312 -22 175C-22 38 -13 0 0 0ZM0 400C13 400 22 438 22 575C22 712 13 750 0 750C-13 750 -22 712 -22 575C-22 438 -13 400 0 400Z" glyph-name="exclamdown" horiz-adv-x="375" unicode="&#161;" /><glyph d="M0 0H60C88 0 110 22 110 50V300C110 328 88 350 60 350H0ZM263 450C263 422 285 400 313 400H750V750H730C675 750 739 631 658 631H313C285 631 263 609 263 581ZM0 400H60C88 400 110 423 110 452V700C110 728 88 750 60 750H0ZM263 222V50C263 22 285 0 313 0H750V350H650C598 350 605 274 566 274H313C285 274 263 251 263 222ZM0 0C13 0 22 38 22 175C22 312 13 350 0 350C-13 350 -22 312 -22 175C-22 38 -13 0 0 0ZM0 400C13 400 22 438 22 575C22 712 13 750 0 750C-13 750 -22 712 -22 575C-22 438 -13 400 0 400Z" glyph-name="f" horiz-adv-x="750" unicode="f" /><glyph d="M658 260C658 129 584.2238 48.7706 473 35C451 32 443 23 443 15C443 7 448 0 462 0H750V350H659C652 350 647 346 647 338C647 323 658 295 658 260ZM224 291C208 261 211 241 225 224C251 193 298.863 149 383 149C458.2952 149 501 180 501 253C501 308 450.0984 360 366 360C296 360 248 334 224 291ZM0 350V0H273C287 0 291 10 291 15C291 26 284 30 264 36C182 61 118 118 77 186C60 214 68 232 96 247C161.9357 282.7152 187 306 187 323C187 346 161.578 350 71 350ZM265 494C265 470 275 461 287 461C303.3704 461 331.7134 490 417 490C556 490 595 400 660 400H750V750H680C622 750 690 631 604 631H310C276 631 265 619 265 567ZM0 400H60C88 400 110 422 110 450V700C110 728 88 750 60 750H0ZM0 0C13 0 22 38 22 175C22 312 13 350 0 350C-13 350 -22 312 -22 175C-22 38 -13 0 0 0ZM0 400C13 400 22 438 22 575C22 712 13 750 0 750C-13 750 -22 712 -22 575C-22 438 -13 400 0 400Z" glyph-name="five" horiz-adv-x="750" unicode="5" /><glyph d="M750 400V750H650C607 750 554 720 488 601L434 503C400 442 441 400 513 400ZM354 359 303 266C281 226 290 201 334 201H379C407 201 430 226 430 256V364C430 386 424 400 408 400C390 400 370 388 354 359ZM580 41C580 16 602 0 630 0H750V350H630C602 350 580 328 580 300V254C580 222 599 204 622 204H678C697.0296 204 716 189.1515 716 169V116C716 99 697 81 676 81H621C591 81 580 61 580 41ZM230 456 348 673C376 725 370 750 319 750H0V400H118C167 400 211 420 230 456ZM149 309C158 325 148 350 128 350H0V0H384C411 0 430 14 430 40C430 65 411 81 383 81H118C87 81 65 94 65 120C65 160 88 196 113 243ZM0 0C13 0 22 38 22 175C22 312 13 350 0 350C-13 350 -22 312 -22 175C-22 38 -13 0 0 0ZM0 400C13 400 22 438 22 575C22 712 13 750 0 750C-13 750 -22 712 -22 575C-22 438 -13 400 0 400Z" glyph-name="four" horiz-adv-x="750" unicode="4" /><glyph d="M750 400V750C707 750 654 720 588 601L504 450C492 428 507 400 534 400ZM421 300 299 77C271 26 277 0 328 0H750V350H532C483 350 438 331 421 300ZM0 350V0C43 0 96 30 162 149L246 300C258 322 243 350 216 350ZM329 450 449 673C477 725 471 750 420 750H0V400H218C267 400 312 419 329 450ZM0 0C13 0 22 38 22 175C22 312 13 350 0 350C-13 350 -22 312 -22 175C-22 38 -13 0 0 0ZM0 400C13 400 22 438 22 575C22 712 13 750 0 750C-13 750 -22 712 -22 575C-22 438 -13 400 0 400Z" glyph-name="fraction" horiz-adv-x="750" unicode="&#8260;" /><glyph d="M58 479C87 577 174 662 282 695C311 704 323 715 323 730C323 741 315 750 293 750H0V400C23 400 39 415 58 479ZM58 271C39 335 23 350 0 350V0H293C315 0 323 9 323 20C323 35 311 46 282 55C174 88 87 173 58 271ZM699 258V50C699 25 708 0 750 0V350C719 350 699 325 699 258ZM581 140C574 140 567 135 561 126C538 94 495.3282 62.6886 457 49C438 42 427 34 427 20C427 9 435 0 457 0H634C657 0 664 4 656 34C632.114 123.5726 600 140 581 140ZM315 347C315 330 332 309 362 309H525C542 309 548 298 542 283C521 226 466 187 375 187C272 187 187 272 187 375C187 478 272 564 375 564C422 564 472 545 503 509C530 473 503 435 465 435H362C334 435 315 419 315 392ZM591 435H628C686 435 701 400 750 400V750H457C435 750 427 741 427 730C427 715 439 704 468 695C540 673 600 633 637 578C658 547 645 524 623 513L583 493C558 480 551 471 552 461C552 448 565 435 591 435ZM0 0C13 0 22 38 22 175C22 312 13 350 0 350C-13 350 -22 312 -22 175C-22 38 -13 0 0 0ZM0 400C13 400 22 438 22 575C22 712 13 750 0 750C-13 750 -22 712 -22 575C-22 438 -13 400 0 400Z" glyph-name="g" horiz-adv-x="750" unicode="g" /><glyph d="M0 750V650H168C190.2632 650 202.0271 659.001 215 676L244 714C258 732 249 750 217 750ZM750 750H533C501 750 492 732 506 714L535 676C547.9729 659.001 559.7368 650 582 650H750ZM388 650C402 650 413.7251 655.9775 410 676L402 719C399 737 386.6667 742 375 742C363.3333 742 351 737 348 720L340 676C336.3568 655.9624 348 650 362 650ZM375 750ZM58 271C39 335 23 350 0 350V0H293C315 0 323 9 323 20C323 35 311 46 282 55C174 88 87 173 58 271ZM699 258V50C699 25 708 0 750 0V350C719 350 699 325 699 258ZM581 140C574 140 567 135 561 126C538 94 495 63 457 49C438 42 427 34 427 20C427 9 435 0 457 0H634C657 0 664 4 656 34C632 124 600 140 581 140ZM315 347C315 330 332 309 362 309H525C542 309 548 298 542 283C521 226 466 187 375 187C272 187 187 272 187 375C187 488 262 564 375 564C422 564 472 545 503 509C530 473 503 435 465 435H362C334 435 315 419 315 392ZM175 650H0V400C23 400 36 415 58 479C96 588 118 650 175 650ZM647 578C667 546 663 533 623 513L583 493C558 480 551 471 552 461C552 448 565 435 591 435H628C686 435 701 400 750 400V650H573C600 650 613 633 647 578ZM0 0C13 0 22 38 22 175C22 312 13 350 0 350C-13 350 -22 312 -22 175C-22 38 -13 0 0 0ZM0 400C13 400 22 438 22 575C22 712 13 750 0 750C-13 750 -22 712 -22 575C-22 438 -13 400 0 400Z" glyph-name="gcircumflex" horiz-adv-x="750" unicode="&#285;" /><glyph d="M0 0C13 0 22 38 22 175C22 312 13 350 0 350C-13 350 -22 312 -22 175C-22 38 -13 0 0 0ZM0 400C13 400 22 438 22 575C22 712 13 750 0 750C-13 750 -22 712 -22 575C-22 438 -13 400 0 400ZM316 650C326 650 330 653 330 657C330 667 309 668 309 700C309 732 330 733 330 743C330 747 326 750 316 750H0V650ZM434 650H750V750H434C424 750 420 747 420 743C420 733 441 732 441 700C441 668 420 667 420 657C420 653 424 650 434 650ZM375 750ZM58 271C39 335 23 350 0 350V0H293C315 0 323 9 323 20C323 35 311 46 282 55C174 88 87 173 58 271ZM699 258V50C699 25 708 0 750 0V350C719 350 699 325 699 258ZM581 140C574 140 567 135 561 126C538 94 495 63 457 49C438 42 427 34 427 20C427 9 435 0 457 0H634C657 0 664 4 656 34C632 124 600 140 581 140ZM315 347C315 330 332 309 362 309H525C542 309 548 298 542 283C521 226 466 187 375 187C272 187 187 272 187 375C187 488 262 564 375 564C422 564 472 545 503 509C530 473 503 435 465 435H362C334 435 315 419 315 392ZM175 650H0V400C23 400 36 415 58 479C96 588 118 650 175 650ZM647 578C667 546 663 533 623 513L583 493C558 480 551 471 552 461C552 448 565 435 591 435H628C686 435 701 400 750 400V650H573C600 650 613 633 647 578ZM0 0C13 0 22 38 22 175C22 312 13 350 0 350C-13 350 -22 312 -22 175C-22 38 -13 0 0 0ZM0 400C13 400 22 438 22 575C22 712 13 750 0 750C-13 750 -22 712 -22 575C-22 438 -13 400 0 400Z" glyph-name="gdotaccent" horiz-adv-x="750" unicode="&#289;" /><glyph d="M405 90V120C405 134 408 145 420 145C441 145 490 126 543 126C572 126 593 150 593 183C593 226 544 279 519 302C483 335 435 350 375 350V0H424C434 0 439 6 439 12C439 37 405 30 405 90ZM375 400C402 400 428 400 442 400C457 400 462 411 456 422C430 455 415 494 415 538C415 639 487 709 555 728C566 731 568 736 568 741C568 746 564 750 558 750H375ZM700 663C700 728 674 724 674 738C674 746 684 750 708 750H750V400H691C658 400 623 422 594 460C572 489 553 520 553 552C553 588 578 617 611 617C632 617 662 612 678 612C692 612 700 627 700 655ZM750 0H643C631 0 625 16 637 22C695 53 728 133 728 205C728 256 710 297 681 332C675 340 678 350 693 350H750ZM30 90V120C30 134 33 145 45 145C66 145 115 126 168 126C197 126 218 150 218 183C218 226 169 279 144 302C108 335 60 350 0 350V0H49C59 0 64 6 64 12C64 37 30 30 30 90ZM0 400C27 400 53 400 67 400C82 400 87 411 81 422C55 455 40 494 40 538C40 639 112 709 180 728C191 731 193 736 193 741C193 746 189 750 183 750H0ZM325 663C325 728 299 724 299 738C299 746 309 750 333 750H375V400H316C283 400 248 422 219 460C197 489 178 520 178 552C178 588 203 617 236 617C257 617 287 612 303 612C317 612 325 627 325 655ZM375 0H268C256 0 250 16 262 22C320 53 353 133 353 205C353 256 335 297 306 332C300 340 303 350 318 350H375ZM0 0C13 0 22 38 22 175C22 312 13 350 0 350C-13 350 -22 312 -22 175C-22 38 -13 0 0 0ZM0 400C13 400 22 438 22 575C22 712 13 750 0 750C-13 750 -22 712 -22 575C-22 438 -13 400 0 400Z" glyph-name="germandbls" horiz-adv-x="750" unicode="&#223;" /><glyph d="M0 650H247C279 650 288 668 274 686L245 724C231 742 215 750 188 750H0ZM750 750H488C456 750 441 736 446 714L455 676C460 654 478 650 505 650H750ZM375 750Z" glyph-name="grave" horiz-adv-x="750" unicode="`" /><glyph d="M0 400H394C439 400 444 432 419 455L262 601C129 725 84 750 20 750H0ZM620 456C648 426 683 400 732 400H750V750H441C390 750 371 716 412 673ZM0 350V0H20C84 0 129 25 262 149L419 295C444 318 439 350 394 350ZM620 294 412 77C371 34 390 0 441 0H750V350H732C683 350 648 324 620 294ZM0 0C13 0 22 38 22 175C22 312 13 350 0 350C-13 350 -22 312 -22 175C-22 38 -13 0 0 0ZM0 400C13 400 22 438 22 575C22 712 13 750 0 750C-13 750 -22 712 -22 575C-22 438 -13 400 0 400Z" glyph-name="greater" horiz-adv-x="750" unicode="&gt;" /><glyph d="M335 400 375 750C349 750 340 734 318 688L205 455C188 419 197 400 239 400ZM50 456 138 673C160 727 160 750 109 750H0V400C21 400 31 410 50 456ZM335 350H239C197 350 188 331 205 295L318 62C340 16 349 0 375 0ZM50 294C31 340 21 350 0 350V0H109C160 0 160 23 138 77ZM750 400V750C724 750 709 731 683 688L540 455C519 421 532 400 574 400ZM385 456 503 673C531 724 525 750 474 750H375L335 400C356 400 361 413 385 456ZM750 350H574C532 350 519 329 540 295L683 62C709 19 724 0 750 0ZM385 294C361 337 356 350 335 350L375 0H474C525 0 531 26 503 77ZM0 0C13 0 22 38 22 175C22 312 13 350 0 350C-13 350 -22 312 -22 175C-22 38 -13 0 0 0ZM0 400C13 400 22 438 22 575C22 712 13 750 0 750C-13 750 -22 712 -22 575C-22 438 -13 400 0 400Z" glyph-name="guillemotleft" horiz-adv-x="750" /><glyph d="M415 400H511C553 400 562 419 545 455L432 688C410 734 401 750 375 750ZM700 456C719 410 729 400 750 400V750H641C590 750 590 727 612 673ZM415 350 375 0C401 0 410 16 432 62L545 295C562 331 553 350 511 350ZM700 294 612 77C590 23 590 0 641 0H750V350C729 350 719 340 700 294ZM0 400H176C218 400 231 421 210 455L67 688C41 731 26 750 0 750ZM365 456C389 413 394 400 415 400L375 750H276C225 750 219 724 247 673ZM0 350V0C26 0 41 19 67 62L210 295C231 329 218 350 176 350ZM365 294 247 77C219 26 225 0 276 0H375L415 350C394 350 389 337 365 294ZM0 0C13 0 22 38 22 175C22 312 13 350 0 350C-13 350 -22 312 -22 175C-22 38 -13 0 0 0ZM0 400C13 400 22 438 22 575C22 712 13 750 0 750C-13 750 -22 712 -22 575C-22 438 -13 400 0 400Z" glyph-name="guillemotright" horiz-adv-x="750" /><glyph d="M375 400V750C349 750 340 734 318 688L205 455C188 419 197 400 239 400ZM50 456 138 673C160 727 160 750 109 750H0V400C21 400 31 410 50 456ZM375 350H239C197 350 188 331 205 295L318 62C340 16 349 0 375 0ZM50 294C31 340 21 350 0 350V0H109C160 0 160 23 138 77ZM0 0C13 0 22 38 22 175C22 312 13 350 0 350C-13 350 -22 312 -22 175C-22 38 -13 0 0 0ZM0 400C13 400 22 438 22 575C22 712 13 750 0 750C-13 750 -22 712 -22 575C-22 438 -13 400 0 400Z" glyph-name="guilsinglleft" horiz-adv-x="375" unicode="&#8249;" /><glyph d="M0 400H136C178 400 187 419 170 455L57 688C35 734 26 750 0 750ZM325 456C344 410 354 400 375 400V750H266C215 750 215 727 237 673ZM0 350V0C26 0 35 16 57 62L170 295C187 331 178 350 136 350ZM325 294 237 77C215 23 215 0 266 0H375V350C354 350 344 340 325 294ZM0 0C13 0 22 38 22 175C22 312 13 350 0 350C-13 350 -22 312 -22 175C-22 38 -13 0 0 0ZM0 400C13 400 22 438 22 575C22 712 13 750 0 750C-13 750 -22 712 -22 575C-22 438 -13 400 0 400Z" glyph-name="guilsinglright" horiz-adv-x="375" unicode="&#8250;" /><glyph d="M0 0H60C88 0 110 22 110 50V300C110 328 88 350 60 350H0ZM265 489C265 461 287 439 315 439H435C463 439 485 461 485 489V700C485 728 463 750 435 750H315C287 750 265 728 265 700ZM265 50C265 22 287 0 315 0H435C463 0 485 22 485 50V270C485 298 463 320 435 320H315C287 320 265 298 265 270ZM640 50C640 22 662 0 690 0H750V350H690C662 350 640 328 640 300ZM0 400H60C88 400 110 422 110 450V700C110 728 88 750 60 750H0ZM640 450C640 422 662 400 690 400H750V750H690C662 750 640 728 640 700ZM0 0C13 0 22 38 22 175C22 312 13 350 0 350C-13 350 -22 312 -22 175C-22 38 -13 0 0 0ZM0 400C13 400 22 438 22 575C22 712 13 750 0 750C-13 750 -22 712 -22 575C-22 438 -13 400 0 400Z" glyph-name="h" horiz-adv-x="750" unicode="h" /><glyph d="M0 400H188V750H0ZM0 0H188V350H0Z" glyph-name="half_hyphen" horiz-adv-x="188" /><glyph d="M0 0H60C88 0 110 22 110 50V300C110 328 88 350 60 350H0ZM265 439C265 411 287 389 315 389H435C463 389 485 411 485 439V570C485 598 463 620 435 620H315C287 620 265 598 265 570ZM265 50C265 22 287 0 315 0H435C463 0 485 22 485 50V220C485 248 463 270 435 270H315C287 270 265 248 265 220ZM640 50C640 22 662 0 690 0H750V350H690C662 350 640 328 640 300ZM110 600C110 627 122.2105 650 148 650H0V400H60C88 400 110 422 110 450ZM640 600V450C640 422 662 400 690 400H750V650H602C630 650 640 628 640 600ZM0 0C13 0 22 38 22 175C22 312 13 350 0 350C-13 350 -22 312 -22 175C-22 38 -13 0 0 0ZM0 400C13 400 22 438 22 575C22 712 13 750 0 750C-13 750 -22 712 -22 575C-22 438 -13 400 0 400ZM0 750V650H168C190.2632 650 202.0271 659.001 215 676L244 714C258 732 249 750 217 750ZM750 750H533C501 750 492 732 506 714L535 676C547.9729 659.001 559.7368 650 582 650H750ZM388 650C402 650 413.7251 655.9775 410 676L402 719C399 737 386.6667 742 375 742C363.3333 742 351 737 348 720L340 676C336.3568 655.9624 348 650 362 650ZM375 750Z" glyph-name="hcircumflex" horiz-adv-x="750" unicode="&#293;" /><glyph d="M750 650V750H662C635 750 619 742 605 724L576 686C562 668 571 650 603 650ZM0 750V650H145C172 650 190 654 195 676L204 714C209 736 194 750 162 750ZM416 750C390 750 372 740 360 715L346 686C336 666 341 650 373 650C400 650 413 656 423 676L437 703C453 735 449 750 416 750ZM375 750Z" glyph-name="hungarumlaut" horiz-adv-x="750" unicode="&#733;" /><glyph d="M0 0H185C213 0 235 22 235 50V300C235 328 213 350 185 350H0ZM0 400H185C213 400 235 422 235 450V700C235 728 213 750 185 750H0ZM375 0V350H159C131 350 109 328 109 300V50C109 22 131 0 159 0ZM375 400V750H159C131 750 109 728 109 700V450C109 422 131 400 159 400ZM0 0C13 0 22 38 22 175C22 312 13 350 0 350C-13 350 -22 312 -22 175C-22 38 -13 0 0 0ZM0 400C13 400 22 438 22 575C22 712 13 750 0 750C-13 750 -22 712 -22 575C-22 438 -13 400 0 400Z" glyph-name="hyphen" horiz-adv-x="375" unicode="-" /><glyph d="M0 0H60C88 0 110 22 110 50V300C110 328 88 350 60 350H0ZM0 400H60C88 400 110 423 110 452V700C110 728 88 750 60 750H0ZM375 0V350H315C287 350 265 328 265 300V50C265 22 287 0 315 0ZM375 400V750H315C287 750 265 728 265 700V452C265 423 287 400 315 400ZM0 0C13 0 22 38 22 175C22 312 13 350 0 350C-13 350 -22 312 -22 175C-22 38 -13 0 0 0ZM0 400C13 400 22 438 22 575C22 712 13 750 0 750C-13 750 -22 712 -22 575C-22 438 -13 400 0 400Z" glyph-name="i" horiz-adv-x="375" unicode="i" /><glyph d="M0 0H60C88 0 110 22 110 50V300C110 328 88 350 60 350H0ZM0 400H60C88 400 110 423 110 452V700C110 728 88 750 60 750H0ZM375 0V350H315C287 350 265 328 265 300V50C265 22 287 0 315 0ZM375 400V750H315C287 750 265 728 265 700V452C265 423 287 400 315 400ZM0 0C13 0 22 38 22 175C22 312 13 350 0 350C-13 350 -22 312 -22 175C-22 38 -13 0 0 0ZM0 400C13 400 22 438 22 575C22 712 13 750 0 750C-13 750 -22 712 -22 575C-22 438 -13 400 0 400Z" glyph-name="i.TRK" horiz-adv-x="375" /><glyph d="M450 300V189C450 161 472 139 500 139H609C724 139 655 0 750 0V350H500C472 350 450 328 450 300ZM300 300C300 328 278 350 250 350H0V0C94 0 26 139 141 139H250C278 139 300 161 300 189ZM658 511H500C472 511 450 489 450 461V450C450 422 472 400 500 400H750V650H666C694 650 704 628 704 600V566C704 538 697 511 658 511ZM92 511C53 511 46 538 46 566V600C46 628 56 650 84 650H0V400H250C278 400 300 422 300 450V461C300 489 278 511 250 511ZM0 0C13 0 22 38 22 175C22 312 13 350 0 350C-13 350 -22 312 -22 175C-22 38 -13 0 0 0ZM0 400C13 400 22 438 22 575C22 712 13 750 0 750C-13 750 -22 712 -22 575C-22 438 -13 400 0 400ZM375 750ZM316 650C326 650 330 653 330 657C330 667 309 668 309 700C309 732 330 733 330 743C330 747 326 750 316 750H0V650ZM434 650H750V750H434C424 750 420 747 420 743C420 733 441 732 441 700C441 668 420 667 420 657C420 653 424 650 434 650ZM375 750Z" glyph-name="i.dot" horiz-adv-x="750" /><glyph d="M450 300V189C450 161 472 139 500 139H609C724 139 655 0 750 0V350H500C472 350 450 328 450 300ZM300 300C300 328 278 350 250 350H0V0C94 0 26 139 141 139H250C278 139 300 161 300 189ZM658 511H500C472 511 450 489 450 461V450C450 422 472 400 500 400H750V650H666C694 650 704 628 704 600V566C704 538 697 511 658 511ZM92 511C53 511 46 538 46 566V600C46 628 56 650 84 650H0V400H250C278 400 300 422 300 450V461C300 489 278 511 250 511ZM0 0C13 0 22 38 22 175C22 312 13 350 0 350C-13 350 -22 312 -22 175C-22 38 -13 0 0 0ZM0 400C13 400 22 438 22 575C22 712 13 750 0 750C-13 750 -22 712 -22 575C-22 438 -13 400 0 400ZM375 750ZM750 650V750H562C535 750 519 742 505 724L476 686C462 668 471 650 503 650ZM0 750V650H245C272 650 290 654 295 676L304 714C309 736 294 750 262 750ZM375 750Z" glyph-name="iacute" horiz-adv-x="750" unicode="&#237;" /><glyph d="M450 300V189C450 161 472 139 500 139H609C724 139 655 0 750 0V350H500C472 350 450 328 450 300ZM300 300C300 328 278 350 250 350H0V0C94 0 26 139 141 139H250C278 139 300 161 300 189ZM658 511H500C472 511 450 489 450 461V450C450 422 472 400 500 400H750V650H666C694 650 704 628 704 600V566C704 538 697 511 658 511ZM92 511C53 511 46 538 46 566V600C46 628 56 650 84 650H0V400H250C278 400 300 422 300 450V461C300 489 278 511 250 511ZM0 0C13 0 22 38 22 175C22 312 13 350 0 350C-13 350 -22 312 -22 175C-22 38 -13 0 0 0ZM0 400C13 400 22 438 22 575C22 712 13 750 0 750C-13 750 -22 712 -22 575C-22 438 -13 400 0 400ZM375 750ZM0 650H235C258 650 260 666 245 677C231 688 219 706 213 729C208 747 191 750 164 750H0ZM388 750H362C348 750 335 744 340 724L342 716C346 699 363 694 375 694C387 694 404 701 408 717L410 724C416 746 402 750 388 750ZM750 650V750H586C559 750 542 747 537 729C531 706 519 688 505 677C490 666 492 650 515 650ZM375 750Z" glyph-name="ibreve" horiz-adv-x="750" unicode="&#301;" /><glyph d="M450 300V189C450 161 472 139 500 139H609C724 139 655 0 750 0V350H500C472 350 450 328 450 300ZM300 300C300 328 278 350 250 350H0V0C94 0 26 139 141 139H250C278 139 300 161 300 189ZM658 511H500C472 511 450 489 450 461V450C450 422 472 400 500 400H750V650H666C694 650 704 628 704 600V566C704 538 697 511 658 511ZM92 511C53 511 46 538 46 566V600C46 628 56 650 84 650H0V400H250C278 400 300 422 300 450V461C300 489 278 511 250 511ZM0 0C13 0 22 38 22 175C22 312 13 350 0 350C-13 350 -22 312 -22 175C-22 38 -13 0 0 0ZM0 400C13 400 22 438 22 575C22 712 13 750 0 750C-13 750 -22 712 -22 575C-22 438 -13 400 0 400ZM375 750ZM0 750V650H168C190.2632 650 202.0271 659.001 215 676L244 714C258 732 249 750 217 750ZM750 750H533C501 750 492 732 506 714L535 676C547.9729 659.001 559.7368 650 582 650H750ZM388 650C402 650 413.7251 655.9775 410 676L402 719C399 737 386.6667 742 375 742C363.3333 742 351 737 348 720L340 676C336.3568 655.9624 348 650 362 650ZM375 750Z" glyph-name="icircumflex" horiz-adv-x="750" unicode="&#238;" /><glyph d="M450 300V189C450 161 472 139 500 139H609C724 139 655 0 750 0V350H500C472 350 450 328 450 300ZM300 300C300 328 278 350 250 350H0V0C94 0 26 139 141 139H250C278 139 300 161 300 189ZM658 511H500C472 511 450 489 450 461V450C450 422 472 400 500 400H750V650H666C694 650 704 628 704 600V566C704 538 697 511 658 511ZM92 511C53 511 46 538 46 566V600C46 628 56 650 84 650H0V400H250C278 400 300 422 300 450V461C300 489 278 511 250 511ZM0 0C13 0 22 38 22 175C22 312 13 350 0 350C-13 350 -22 312 -22 175C-22 38 -13 0 0 0ZM0 400C13 400 22 438 22 575C22 712 13 750 0 750C-13 750 -22 712 -22 575C-22 438 -13 400 0 400ZM375 750ZM221 650C231 650 235 653 235 657C235 667 214 668 214 700C214 732 235 733 235 743C235 747 231 750 221 750H0V650ZM529 650H750V750H529C519 750 515 747 515 743C515 733 536 732 536 700C536 668 515 667 515 657C515 653 519 650 529 650ZM411 650C421 650 425 653 425 657C425 667 404 668 404 700C404 732 425 733 425 743C425 747 421 750 411 750H370V650ZM339 650H391V750H339C329 750 325 747 325 743C325 733 346 732 346 700C346 668 325 667 325 657C325 653 329 650 339 650ZM375 750Z" glyph-name="idieresis" horiz-adv-x="750" unicode="&#239;" /><glyph d="M450 300V189C450 161 472 139 500 139H609C724 139 655 0 750 0V350H500C472 350 450 328 450 300ZM300 300C300 328 278 350 250 350H0V0C94 0 26 139 141 139H250C278 139 300 161 300 189ZM658 511H500C472 511 450 489 450 461V450C450 422 472 400 500 400H750V650H666C694 650 704 628 704 600V566C704 538 697 511 658 511ZM92 511C53 511 46 538 46 566V600C46 628 56 650 84 650H0V400H250C278 400 300 422 300 450V461C300 489 278 511 250 511ZM0 0C13 0 22 38 22 175C22 312 13 350 0 350C-13 350 -22 312 -22 175C-22 38 -13 0 0 0ZM0 400C13 400 22 438 22 575C22 712 13 750 0 750C-13 750 -22 712 -22 575C-22 438 -13 400 0 400ZM375 750ZM0 650H247C279 650 288 668 274 686L245 724C231 742 215 750 188 750H0ZM750 750H488C456 750 441 736 446 714L455 676C460 654 478 650 505 650H750ZM375 750Z" glyph-name="igrave" horiz-adv-x="750" unicode="&#236;" /><glyph d="M0 0H60C88 0 110 22 110 50V300C110 328 88 350 60 350H0ZM0 400H60C88 400 110 423 110 452V700C110 728 88 750 60 750H0ZM375 0V350H315C287 350 265 328 265 300V50C265 22 287 0 315 0ZM375 400V750H315C287 750 265 728 265 700V452C265 423 287 400 315 400ZM0 0C13 0 22 38 22 175C22 312 13 350 0 350C-13 350 -22 312 -22 175C-22 38 -13 0 0 0ZM0 400C13 400 22 438 22 575C22 712 13 750 0 750C-13 750 -22 712 -22 575C-22 438 -13 400 0 400ZM639 288C639 131.7243 596.6603 75.3262 518 43C497 34 491 27 491 16C491 7 498 0 517 0H750V350H691C659 350 639 325 639 288ZM750 400V750H688C660 750 638 728 638 700V452C638 423 660 400 688 400ZM405 106C405 141 417 163 447 182C481 204 487 227 487 271V700C487 728 465 750 437 750H375V400H396C429 400 441 388 441 375C441 362 429 350 396 350H375V0C431.7273 0 453 9 453 20C453 42 405 26 405 81ZM375 0C388 0 397 38 397 175C397 312 388 350 375 350C362 350 353 312 353 175C353 38 362 0 375 0ZM375 400C388 400 397 438 397 575C397 712 388 750 375 750C362 750 353 712 353 575C353 438 362 400 375 400Z" glyph-name="ij" horiz-adv-x="750" unicode="&#307;" /><glyph d="M450 300V189C450 161 472 139 500 139H609C724 139 655 0 750 0V350H500C472 350 450 328 450 300ZM300 300C300 328 278 350 250 350H0V0C94 0 26 139 141 139H250C278 139 300 161 300 189ZM658 511H500C472 511 450 489 450 461V450C450 422 472 400 500 400H750V650H666C694 650 704 628 704 600V566C704 538 697 511 658 511ZM92 511C53 511 46 538 46 566V600C46 628 56 650 84 650H0V400H250C278 400 300 422 300 450V461C300 489 278 511 250 511ZM0 0C13 0 22 38 22 175C22 312 13 350 0 350C-13 350 -22 312 -22 175C-22 38 -13 0 0 0ZM0 400C13 400 22 438 22 575C22 712 13 750 0 750C-13 750 -22 712 -22 575C-22 438 -13 400 0 400ZM375 750ZM750 750H517C485 750 475 737 475 714V682C475 659 486 650 525 650H750ZM0 750V650H225C264 650 275 659 275 682V714C275 737 265 750 233 750ZM375 750Z" glyph-name="imacron" horiz-adv-x="750" unicode="&#299;" /></font>
</defs>
</svg>
