<?xml version="1.0" standalone="no"?>
<!DOCTYPE svg PUBLIC "-//W3C//DTD SVG 1.1//EN" "http://www.w3.org/Graphics/SVG/1.1/DTD/svg11.dtd" >
<svg xmlns="http://www.w3.org/2000/svg">
<metadata></metadata>
<defs>
<font id="vtf_gulaxregular" horiz-adv-x="1249" >
<font-face units-per-em="2048" ascent="1536" descent="-512" />
<missing-glyph horiz-adv-x="1024" />
<glyph unicode="nj" horiz-adv-x="1527" d="M115 -2v1071h217v-86q169 96 448 96h109v-1003q0 -172 145 -172q68 0 107 37.5t39 103.5v1030h219v-1030q0 -156 -105 -258q-102 -102 -260 -102q-169 0 -265.5 99t-96.5 292v782q-201 -15 -281 -98q-59 -62 -59 -180v-582h-217zM1180 1251v236h219v-236h-219z" />
<glyph unicode="gj" horiz-adv-x="1437" d="M90 84v1024h748v-1083l14 -27q33 -61 131 -61q68 0 106.5 37.5t38.5 103.5v1030h220v-1030q0 -156 -105 -258q-105 -105 -252 -105h-153v-2h-746v219h526v240q-155 -88 -417 -88h-111zM309 307q179 15 256 92q53 59 53 166v324h-309v-582zM1128 1284v234h220v-234h-220z " />
<glyph unicode="vtf" horiz-adv-x="2623" d="M82 0v1077h215v-850v-10q55 0 99.5 13t77.5 33t67.5 60.5t60 78.5t64.5 104q38 64 60.5 99t69 96.5t88.5 102.5t106 88t136 81v483h217v-412q171 31 308 31v-219q-180 0 -308 -35v-215v-389h482v875q0 161 106 264q49 49 119.5 75.5t147.5 26.5q120 0 196 -43 q78 -41 133 -139l15 -25l-197 -100l-14 29q-29 63 -133 63q-71 0 -113.5 -41t-42.5 -110v-242h199v-221h-199v-629h-4h-213h-699v723q-46 -31 -85.5 -69t-75 -86.5t-57 -82t-56.5 -92.5q-90 -147 -146 -210q-146 -165 -359 -181q-25 -2 -50 -2h-109h-106z" />
<glyph unicode="yj" horiz-adv-x="1441" d="M88 -90h535v209q-81 -33 -158 -33q-146 0 -254 94q-119 107 -119 279v626h219v-626q0 -71 47 -115q40 -37 107 -37q64 0 111 39t47 121v618h219v-1083l14 -27q33 -61 131 -61q68 0 107 37.5t39 103.5v1030h219v-1030q0 -156 -105 -258q-104 -104 -252 -104h-153v-2h-754 v219zM1133 1262v233h219v-233h-219z" />
<glyph unicode="fb" horiz-adv-x="1562" d="M133 2v1104q0 159 111 270q106 103 268 103q66 0 129 -20t119 -60.5t90.5 -112t34.5 -164.5v-114q155 88 422 88h112v-459q0 -74 -2.5 -121t-22 -128t-57.5 -142q-66 -112 -196 -174q-143 -70 -369 -70h-108v1104q0 62 -40 108t-112 46q-71 0 -114.5 -41.5t-43.5 -112.5 v-246h203v-221h-203v-637h-221zM885 227q193 21 258 125q27 40 40 103t13 182v233q-79 -7 -137 -25.5t-91 -42.5t-52 -57.5t-25 -63.5t-6 -69v-385z" />
<glyph unicode="fk" horiz-adv-x="1503" d="M113 0v1100q0 159 110 266q104 104 269 104q98 0 180.5 -37.5t135 -114t52.5 -179.5v-486q65 29 152 29q64 0 108 41q39 39 39 104v181h221v-181q0 -144 -92 -247q96 -99 96 -252v-328h-219v328q0 82 -55 112q-40 23 -98 23q-57 0 -90 -23q-62 -47 -62 -190v-250h-219 v1044v48q0 75 -38.5 117t-110.5 42t-115 -40.5t-43 -110.5v-246h203v-221h-203v-633h-221z" />
<glyph unicode="fh" horiz-adv-x="1533" d="M117 0v1104q0 163 108 268t271 105q174 0 271 -100t97 -277v-94q73 41 178 63q112 25 244 25h111v-1094h-221v868q-98 -10 -163 -35t-96 -63t-42 -75.5t-11 -86.5v-608h-219v1055q0 98 -32.5 150t-116.5 52q-72 0 -115 -44.5t-43 -116.5v-238h203v-221h-203v-637h-221z " />
<glyph unicode="ft" horiz-adv-x="1286" d="M115 0v1104q0 163 108 268q51 51 121.5 78t147.5 27q165 0 268.5 -97.5t103.5 -263.5v-90q30 18 118 49t130 41l62 -211l-107 -31q-108 -35 -156 -94q-47 -62 -47 -168v-393h260v-219h-481v1102q0 73 -40 114t-111 41t-113.5 -41t-42.5 -112v-246h203v-221h-203v-637 h-221z" />
<glyph unicode="fj" horiz-adv-x="950" d="M96 31v1056q0 164 111 269q105 102 268 102q118 0 201 -45q84 -46 135 -137l14 -29l-198 -100l-15 29q-34 63 -137 63q-71 0 -114.5 -41t-43.5 -111v-247h203v-222h-203v-587q0 -57 45.5 -100.5t116.5 -43.5q69 0 108.5 38.5t39.5 105.5v1040h221v-1040q0 -157 -105 -262 q-106 -103 -264 -103q-108 0 -197 52.5t-137.5 136t-48.5 176.5z" />
<glyph unicode="ff" horiz-adv-x="1466" d="M98 0v1104q0 163 111 268q105 105 268 105q118 0 201 -45q34 -19 67 -52q108 97 261 97q117 0 200 -45q81 -44 135 -140l15 -26l-199 -103l-14 31q-34 63 -137 63q-71 0 -113.5 -41t-42.5 -112v-246h201v-221h-201v-637h-221v1096q0 70 -39.5 115.5t-112.5 45.5 q-72 0 -115 -41.5t-43 -119.5v-238h203v-221h-203v-637h-221z" />
<glyph unicode="fi" horiz-adv-x="1013" d="M109 0v1053q0 162 116 284q122 125 299 125q117 0 209 -51q99 -58 141 -143l15 -27l-191 -100l-14 26q-19 34 -64 55t-96 21q-88 0 -143 -58t-55 -132v-211h198v-217h-198v-625h-217zM702 0v1055h218v-1055h-218z" />
<glyph unicode="fl" horiz-adv-x="1257" d="M123 0v1104q0 163 110 270q51 49 121.5 76t147.5 27q165 0 268.5 -97.5t103.5 -263.5v-897h261v-219h-482v1102q0 73 -40.5 114t-110.5 41q-71 0 -114.5 -41t-43.5 -112v-246h203v-221h-203v-637h-221z" />
<glyph unicode="ffi" horiz-adv-x="1513" d="M113 2v1106q0 163 108 268q51 50 122 77.5t149 27.5q116 0 200 -47q27 -13 68 -50q108 97 260 97q119 0 203 -47q80 -44 133 -138l14 -28l-199 -101l-14 29q-34 64 -137 64q-71 0 -113.5 -41t-42.5 -111v-248h203v-221h-203v-637h-223v1098q0 69 -38.5 114.5t-110.5 45.5 q-74 0 -116 -41t-42 -119v-240h203v-221h-203v-637h-221zM1182 2v1098h217v-1098h-217z" />
<glyph horiz-adv-x="0" />
<glyph horiz-adv-x="0" />
<glyph unicode="&#xd;" horiz-adv-x="1024" />
<glyph unicode=" "  horiz-adv-x="1024" />
<glyph unicode="&#x09;" horiz-adv-x="1024" />
<glyph unicode="&#xa0;" horiz-adv-x="1024" />
<glyph unicode="!" horiz-adv-x="454" d="M111 0v236h235v-236h-235zM111 348v1254h235v-1254h-235z" />
<glyph unicode="&#x22;" horiz-adv-x="827" d="M141 1059v471h236v-471h-236zM434 1059v471h236v-471h-236z" />
<glyph unicode="#" horiz-adv-x="1583" d="M113 463v223h280l41 221h-317v226h356l59 342h232l-62 -342h236l61 342h230l-62 -342h308v-226h-349l-39 -221h383v-223h-421l-68 -381h-229l67 381h-235l-68 -381h-229l67 381h-241zM623 686h235l41 221h-237z" />
<glyph unicode="%" horiz-adv-x="1456" d="M72 1288q-3 127 90 223l2 2q96 93 221 93q132 0 225 -93q95 -92 95 -225q0 -130 -92.5 -222.5t-223.5 -92.5t-224 92.5t-93 222.5zM156 0v31q0 209 80 413q74 188 217 357q143 165 315 262q167 98 348 125l-4 411l240 5l2 -648h-119q-154 0 -305.5 -74t-274.5 -210 q-124 -135 -192 -302.5t-68 -338.5v-31h-239zM311 1288q0 -32 23 -55t55 -23t55 23t23 55t-23 55t-55 23q-34 0 -57 -23v-2q-26 -21 -21 -49v-2v-2zM723 451q-3 128 86 223q94 94 229 94q130 0 222 -92q94 -91 94 -223q0 -135 -92 -224q-93 -96 -224 -96q-130 0 -222.5 93.5 t-92.5 224.5zM961 453q0 -33 22 -56.5t55 -23.5q32 0 55 24t23 56q0 33 -22.5 55t-55.5 22q-32 0 -54.5 -22.5t-22.5 -54.5z" />
<glyph unicode="&#x26;" horiz-adv-x="1591" d="M102 0v31q0 289 62 461q64 166 203 249l2 2h2q10 5 14 9q-19 19 -50 69t-48 90q-37 90 -37 185q0 138 68 254.5t185 184t255 67.5q208 0 356 -148q150 -150 150 -358q0 -89 -35 -185q-8 -20 -21 -42.5t-26 -42t-24.5 -35.5t-19.5 -26t-8 -11l-2 -2h-2q46 -24 95 -66 q3 9 41 107l12 28l231 -94l-10 -29q-65 -180 -119 -286q35 -137 35 -381v-31h-235v31q0 82 -2 119q-62 -54 -146 -95q-122 -55 -272 -55h-654zM348 248h389q15 0 19 -2q2 0 2 -2q116 0 213 63q73 51 131 139q-43 74 -125.5 109t-214.5 35h-10q-134 0 -217.5 -36.5 t-126.5 -113.5q-42 -69 -60 -192zM492 1096q0 -31 2 -47q20 -100 90 -158q76 -64 174 -64q95 0 169 62.5t93 157.5q0 2 1 6.5t1 7.5q4 20 4 35q0 85 -51 155q-51 69 -129 97q-51 14 -88 14q-34 0 -92 -14q-78 -28 -126 -97.5t-48 -154.5z" />
<glyph unicode="'" horiz-adv-x="446" d="M115 1081v455h211v-455h-211z" />
<glyph unicode="(" horiz-adv-x="716" d="M119 250v938q0 199 102 333t299 193l31 8l63 -229l-28 -8q-120 -35 -176 -107t-56 -190v-938q0 -119 58 -189q56 -71 174 -104l28 -8l-63 -232l-31 9q-196 56 -299 190q-102 135 -102 334z" />
<glyph unicode=")" horiz-adv-x="710" d="M100 -55l29 8q119 35 174 106t55 189v938q0 124 -55 190q-57 72 -174 105l-29 8l64 231l31 -8q192 -55 299 -190q100 -132 100 -336v-938q0 -198 -101.5 -332t-297.5 -192l-31 -9z" />
<glyph unicode="*" horiz-adv-x="817" d="M141 1315l74 153l107 -49v117l2 2v-2h168l2 2v-2h2v-119l108 51l74 -153l-135 -66l88 -114l-135 -105v-2h-2l-86 113l-84 -113h-2v2l-136 105l90 114z" />
<glyph unicode="+" horiz-adv-x="1224" d="M117 614v226h383v395h225v-395h387v-226h-387v-376h-225v376h-383z" />
<glyph unicode="," horiz-adv-x="557" d="M94 -178l103 387h247l-186 -494z" />
<glyph unicode="-" horiz-adv-x="1124" d="M115 614v209h901v-209h-901z" />
<glyph unicode="." horiz-adv-x="475" d="M117 2v250h250v-250h-250z" />
<glyph unicode="/" horiz-adv-x="892" d="M106 -88l461 1708h226l-465 -1708h-222z" />
<glyph unicode="0" horiz-adv-x="1673" d="M98 797q0 158 60 309q55 143 157 254q100 108 236 172q132 63 287 63q153 0 288 -63q135 -64 234 -172q100 -109 156 -254q57 -143 57 -309q0 -162 -58 -309.5t-156.5 -254.5t-234.5 -170t-286 -63t-287 63t-236.5 170t-158 254.5t-58.5 309.5zM334 797q0 -143 65 -273 l731 729q-128 109 -292 109q-99 0 -191 -43t-164 -123q-149 -165 -149 -399zM543 342q127 -106 295 -106q136 0 251 75.5t181.5 204.5t66.5 281q0 150 -59 274z" />
<glyph unicode="1" horiz-adv-x="669" d="M96 1364l234 235h223v-1599h-242v1237l-47 -45z" />
<glyph unicode="2" horiz-adv-x="1261" d="M113 0v31q0 229 31.5 397.5t119.5 316.5q62 105 109 162l24 33l23 -33q79 -102 211 -102q112 0 192 80q78 78 78 192q0 113 -79 193t-191 80t-192 -78t-83 -187q0 -2 1 -7.5t1 -8.5v-31h-245v39q0 103 40 198.5t113 168.5q151 151 365 151q140 0 258.5 -69.5t187 -189 t68.5 -259.5q0 -139 -68.5 -257.5t-187 -187.5t-258.5 -69q-85 0 -180 31q-88 -172 -91 -354h545v282h240v-522h-1032z" />
<glyph unicode="3" horiz-adv-x="1173" d="M74 336l229 84l12 -25q49 -99 160 -135q43 -16 80 -16q76 0 137 37q60 34 99 94v2q40 58 40 141v250h-438v252h438v338h-460v-135h-240v374h944v-1097q0 -41 -8 -68q-31 -185 -174 -307q-144 -125 -338 -125q-91 0 -177.5 32t-154.5 91q-86 74 -135 182z" />
<glyph unicode="4" horiz-adv-x="1406" d="M106 522l7 35q23 136 32 180q65 282 197 475q153 233 412 347l116 51l88 -221l-26 -13l-158 -73h-2q-272 -163 -373 -541h183v229h237v-229h391l97 -240h-488v-522h-237v522h-476z" />
<glyph unicode="5" horiz-adv-x="1255" d="M117 514v43h241v-43q0 -108 80 -188t193 -80q110 0 190 80q80 77 80 188q0 113 -79 192.5t-191 79.5q-61 0 -116.5 -26t-92.5 -72l-25 -33l-24 33q-67 87 -109 156v2q-147 284 -147 715v30h958v-370h-241v133h-474q14 -201 93 -355q95 31 178 31q102 0 198 -41 q97 -43 164 -110q74 -74 114 -168.5t40 -196.5q0 -103 -41 -199q-42 -95 -113 -163q-69 -69 -164 -111q-96 -41 -198 -41q-103 0 -197 39.5t-166 112.5q-151 151 -151 362z" />
<glyph unicode="6" horiz-adv-x="1259" d="M123 502v2v1091h246v-634q132 77 274 77q103 0 198.5 -39t168.5 -112t112 -168.5t39 -198.5q0 -141 -69.5 -261t-189 -189.5t-259.5 -69.5q-102 0 -195.5 38t-164.5 109q-151 148 -160 355zM369 520q0 -114 80 -194t194 -80q113 0 195 82q80 80 80 192q0 114 -80.5 194.5 t-194.5 80.5t-194 -80q-80 -83 -80 -195z" />
<glyph unicode="7" horiz-adv-x="1187" d="M109 1231v379h962v-31q0 -150 -2.5 -246t-21.5 -267t-56 -310q-68 -255 -192 -430q-149 -211 -379 -314l-29 -12l-94 219l27 12q344 153 454 639h-272v242h311q17 179 17 256h-488v-137h-237z" />
<glyph unicode="8" horiz-adv-x="1443" d="M115 565q0 176 106 324q5 9 21 31q-27 93 -27 167q0 101 39 195t111 164q149 149 358 149q211 0 360 -149q72 -70 110 -163.5t38 -195.5q0 -83 -27 -165l25 -31q102 -147 102 -326q0 -181 -102 -325q-118 -161 -301 -211l-2 -2l-47 -13q-72 -14 -156 -14q-80 0 -152 14 h-2l-49 15q-189 51 -299 211q-106 139 -106 325zM354 565q0 -136 90 -229l9 -8l4 -4h2l8 -11l19.5 -13t32.5 -19.5t34 -16.5l39 -12q59 -19 131 -19q74 0 133 19h2q38 11 55 20q25 11 56 33q8 4 12 8l20 19q91 97 91 233q0 76 -25 146q-92 -80 -205 -113l-2 -2l-43 -8 q-55 -10 -94 -10q-32 0 -94 10l-43 8l-2 2q-115 35 -201 115q-29 -73 -29 -148zM451 1087q0 -114 81 -192q80 -80 191 -80q112 0 191 79.5t79 192.5q0 115 -78 193q-81 78 -192 78q-113 0 -192.5 -79.5t-79.5 -191.5z" />
<glyph unicode="9" d="M98 1087q0 139 69 257t188 186.5t259 68.5q102 0 195 -38.5t161 -104t110 -157t46 -193.5v-2v-1104h-983v522h236v-280h506v409q-122 -78 -271 -78q-102 0 -196 39.5t-166 112.5q-74 72 -114 166t-40 196zM340 1087q0 -113 82 -192q81 -78 192 -78q113 0 192 79t79 191 q0 114 -80 191q-80 80 -191 80q-113 0 -193.5 -79.5t-80.5 -191.5z" />
<glyph unicode=":" horiz-adv-x="528" d="M141 0v256h256v-256h-256zM141 625v254h256v-254h-256z" />
<glyph unicode=";" horiz-adv-x="479" d="M2 -145l102 393h254l-194 -504zM98 600v246h246v-246h-246z" />
<glyph unicode="&#x3c;" horiz-adv-x="1085" d="M88 616l141 142l590 588l164 -166l-565 -564l565 -567l-164 -160l-590 582z" />
<glyph unicode="=" horiz-adv-x="1224" d="M125 399v224h993v-224h-993zM125 758v223h993v-223h-993z" />
<glyph unicode="&#x3e;" horiz-adv-x="1126" d="M133 49l565 563l-565 568l164 159l590 -583l141 -144l-141 -141l-590 -588z" />
<glyph unicode="?" horiz-adv-x="1245" d="M127 1044v43q0 138 68 255t185 185t255 68q101 0 194.5 -38.5t165.5 -110.5t111 -165t39 -194q0 -210 -150 -360q-72 -72 -165.5 -110.5t-194.5 -38.5q-95 0 -172 30q-80 -154 -92 -385l-2 -28h-240l2 32q20 330 143 533q53 87 107 155l25 31l24 -31q37 -46 91.5 -72 t113.5 -26q113 0 191.5 78.5t78.5 191.5q0 111 -80 191q-81 78 -190 78q-110 0 -189 -79.5t-79 -189.5v-43h-240zM508 0v256h256v-256h-256z" />
<glyph unicode="@" horiz-adv-x="1320" d="M113 760q0 157 53 293q54 130 145 221q92 92 213 141t256 49h426v-704q0 -210 -104 -326q-102 -108 -275 -108q-175 0 -274 120q-98 115 -98 302q0 67 28.5 135.5t79.5 124.5q57 60 117 88q69 34 143 34h31v-215l-27 -4q-67 -9 -112 -57q-41 -51 -41 -106 q0 -34 5.5 -64.5t20.5 -64.5t47.5 -54t79.5 -20q82 0 121 57q39 51 39 158v485h-207q-211 0 -336 -153q-112 -137 -112 -332q0 -236 121 -391q49 -66 129 -113q74 -41 161 -47l27 -2v-207h-31q-120 0 -235 53q-115 57 -201 154q-85 99 -137 239q-53 145 -53 314z" />
<glyph unicode="A" d="M115 0v1110q0 98 41.5 188.5t115.5 161.5q72 69 164.5 106.5t192.5 37.5q99 0 191.5 -37.5t164.5 -106.5q150 -144 156 -352v-1108h-240v653q-126 -75 -272 -75q-152 0 -271 75v-653h-243zM358 1092q0 -113 80 -193q79 -82 191 -82q113 0 192 82q80 80 80 193 q0 112 -80 192q-81 78 -192 78q-110 0 -191 -78q-80 -80 -80 -192z" />
<glyph unicode="B" horiz-adv-x="1310" d="M106 0v1104q0 135 70.5 249t188 179t253.5 65q214 0 361 -147q149 -152 149 -365q0 -88 -28 -165q129 -156 129 -359q0 -151 -74.5 -280t-203.5 -205t-283 -76h-562zM346 250h373q110 0 190 92q80 93 80 219q0 79 -26 148q-157 -134 -345 -134h-272v-325zM346 821h318 q67 0 151 84q72 72 72 180q0 115 -78 193q-77 80 -191 80q-113 0 -192.5 -79.5t-79.5 -193.5v-264z" />
<glyph unicode="C" horiz-adv-x="1185" d="M113 0v1110q0 124 48.5 210.5t129.5 156.5q142 120 327 120q190 0 328 -120q92 -79 135 -181l15 -28l-226 -80l-12 22q-31 64 -98.5 106t-141.5 42q-68 0 -127.5 -33.5t-97.5 -93.5q-41 -62 -41 -141v-857h510v158h221v-391h-970z" />
<glyph unicode="D" horiz-adv-x="1234" d="M123 -2v500v610v254v233h239h265h245h222v-233v-272v-586v-6q-1 -127 -41 -225t-106 -157t-147.5 -88.5t-172.5 -29.5h-504zM362 238h265q60 0 114 27t92.5 89.5t38.5 149.5v586v272h-510v-275v-589v-260z" />
<glyph unicode="E" horiz-adv-x="1200" d="M127 0v1106q0 98 48 197t128 167q140 121 330 121q149 0 271 -79t188 -216l14 -30l-225 -82l-13 24q-31 65 -96.5 105.5t-140.5 40.5q-74 0 -129 -35q-53 -27 -94 -88q-43 -70 -43 -144v-278h428v-244h-428v-329h729v-236h-967z" />
<glyph unicode="F" horiz-adv-x="1159" d="M123 0v1133q0 80 54 177.5t124 155.5q140 121 326 121q182 0 325 -119q88 -76 133 -178l13 -30l-226 -80l-10 24q-35 66 -97.5 106t-137.5 40q-104 0 -185.5 -79t-81.5 -186v-278h426v-242h-426v-565h-237z" />
<glyph unicode="G" horiz-adv-x="1193" d="M127 0v1110q0 110 51 204.5t127 160.5q138 120 328 120q183 0 325 -120q91 -75 136 -179l12 -30l-225 -82l-13 24q-46 99 -155 135q-37 13 -80 13q-69 0 -128.5 -33t-96.5 -92q-41 -62 -41 -141v-854h489v329h-197v246h437v-811h-969z" />
<glyph unicode="H" horiz-adv-x="1298" d="M123 0v1587h237v-512q0 -108 78 -186t189 -78h43q112 0 188 76q78 78 78 188v512h240v-1587h-234v659q-48 -35 -108 -55q-90 -33 -164 -33h-43q-63 0 -158 31q-64 18 -115 51v-653h-231z" />
<glyph unicode="I" horiz-adv-x="462" d="M109 0v1591h233v-1591h-233z" />
<glyph unicode="J" horiz-adv-x="1187" d="M61 502v30h238v-30q0 -112 78 -187q74 -77 186 -77q109 0 186.5 77.5t77.5 186.5v1085h240v-1085q0 -136 -67.5 -251.5t-183.5 -183t-253 -67.5q-101 0 -192.5 38t-161.5 109q-72 70 -110 162.5t-38 192.5z" />
<glyph unicode="K" horiz-adv-x="1091" d="M82 0v1581h233v-727q235 47 336 285q74 173 74 415v31h236v-31q0 -303 -91 -510q-56 -130 -153 -231h282v-813h-237v569h-447v-569h-233z" />
<glyph unicode="L" horiz-adv-x="1056" d="M115 0v1591h233v-1343h594v-248h-827z" />
<glyph unicode="M" horiz-adv-x="1869" d="M90 0v1591h240q140 0 215 -28q122 -46 192 -174q63 -117 92 -329t29 -564q0 -178 31 -238q4 -8 7 -11.5t14.5 -7t31.5 -3.5q22 0 30 5.5t15 20.5q31 67 31 234q0 352 29 564t92 329q67 127 190 174q77 28 215 28h240v-1591h-240v1350q-93 0 -130 -15t-64 -61 q-90 -167 -90 -778q0 -225 -54 -336q-39 -83 -106 -123q-67 -43 -158 -43q-89 0 -154 35q-70 39 -114 116q-58 108 -58 351q0 608 -92 778q-25 46 -62.5 61t-131.5 15v-1350h-240z" />
<glyph unicode="N" horiz-adv-x="1423" d="M111 0v1591h206q165 0 269 -73q94 -64 151 -193q31 -71 51 -172.5t26.5 -168.5t16.5 -196q8 -104 13 -157t18 -128t31 -126q28 -77 72 -116.5t110 -45.5v1376h234v-1591h-205q-157 0 -264 72q-93 64 -148 188q-29 69 -48 165t-25.5 169t-12.5 190q-7 113 -11 163 t-16.5 129t-31.5 132q-35 85 -84 125q-49 37 -119 43v-1376h-233z" />
<glyph unicode="O" horiz-adv-x="1572" d="M51 797q0 129 37 247q41 129 102 218q134 197 338 282q125 49 258 49q178 0 336.5 -88.5t261.5 -242.5q65 -100 103 -218q35 -122 35 -247q0 -161 -58.5 -308.5t-157 -254.5t-235 -170.5t-285.5 -63.5t-285.5 63.5t-235 170.5t-156.5 254.5t-58 308.5zM285 797 q0 -233 149 -398q71 -78 162.5 -120.5t189.5 -42.5q100 0 192 42.5t163 120.5q147 162 147 398q0 136 -55 258q-201 -162 -447 -162q-128 0 -258 51q-102 42 -186 111q-57 -123 -57 -258zM483 1243q136 -117 303 -117q171 0 304 117q-130 115 -304 115q-170 0 -303 -115z " />
<glyph unicode="P" horiz-adv-x="1200" d="M123 0v1108q9 92 50.5 182t105.5 154q147 141 352 141q102 0 195.5 -38t164.5 -109q72 -72 110 -165.5t38 -195.5q0 -100 -38 -193t-110 -165t-165.5 -111t-194.5 -39q-144 0 -269 78v-647h-239zM365 1075q0 -109 78.5 -187.5t187.5 -78.5q110 0 190 80q78 78 78 188 q0 114 -78 189q-77 77 -190 77q-112 0 -187 -75q-79 -79 -79 -189v-4z" />
<glyph unicode="Q" horiz-adv-x="1695" d="M100 797q0 162 58.5 309.5t157 254t234.5 169.5t286 63q25 0 75 -4q98 -12 183 -47q209 -83 346 -287q133 -204 133 -458t-133 -455q81 -75 186 -123l29 -12l-94 -219l-29 12q-132 57 -248 164q-83 -69 -194 -115q-122 -49 -254 -49q-146 0 -287 63q-131 61 -234 173 q-103 113 -159 258t-56 303zM336 797q0 -152 67.5 -282t182.5 -206t250 -76q163 0 297 109q-140 211 -201 512q-45 213 -51 502q-14 2 -45 2q-135 0 -250 -75t-182.5 -204t-67.5 -282zM1120 1260q12 -226 49 -390q45 -196 115 -325q53 121 53 252q0 164 -73 295 q-55 101 -144 168z" />
<glyph unicode="R" horiz-adv-x="1241" d="M113 0v1100q9 203 155 346q72 69 163.5 106t189.5 37q101 0 194.5 -38.5t165.5 -110.5q71 -71 109 -165t38 -196q0 -111 -41 -200q-36 -83 -96 -146q79 -143 113 -332q24 -159 24 -372v-29h-235v29q0 176 -19 315q-24 147 -79 258q-88 -31 -174 -31q-144 0 -269 78v-649 h-239zM352 1079q0 -108 80 -188q75 -78 189 -78q110 0 188 78t78 188q0 113 -78 191t-188 78q-111 0 -189 -78q-80 -80 -80 -191z" />
<glyph unicode="S" horiz-adv-x="1220" d="M113 0v238h755v129q0 133 -92 213q-150 135 -538 135h-119v280l-2 105q0 200 145 348q146 143 348 143q199 0 342 -137q144 -141 150 -336v-2v-47h-234v31q0 107 -75 182q-76 76 -183 76q-106 0 -182 -76q-76 -79 -76 -182v-148q126 -5 251 -39t224 -92 q138 -78 209.5 -190.5t71.5 -249.5v-381h-995z" />
<glyph unicode="T" horiz-adv-x="1146" d="M82 1167v420h983v-239h-367v-1348h-239v1348h-156v-181h-221z" />
<glyph unicode="U" horiz-adv-x="1253" d="M115 498v1091h241v-1075q0 -92 62 -170q60 -72 151 -94q36 -8 60 -8h272v1347h244v-1589h-520q-135 2 -250.5 68.5t-185 180t-74.5 249.5z" />
<glyph unicode="V" horiz-adv-x="1316" d="M102 0v1591h240v-1343q135 20 248 100q120 89 201 250q80 164 120 403q41 226 41 560v30h240v-30q0 -396 -59 -674q-58 -290 -181 -488q-246 -399 -731 -399h-119z" />
<glyph unicode="W" horiz-adv-x="1927" d="M113 0v1591h239v-1343q135 20 248 100q120 89 201 250q84 173 123 403q41 243 41 560v30h239v-30q0 -393 -61 -680q-62 -290 -182 -484v-149q138 21 247 100q122 88 203 250q84 173 123 403q41 243 41 560v30h240v-30q0 -377 -60 -674q-62 -294 -182 -488 q-243 -399 -731 -399h-121v139q-82 -57 -195 -94q-128 -45 -295 -45h-118z" />
<glyph unicode="X" horiz-adv-x="1525" d="M117 0v31q0 288 116 538q104 213 273 357q-113 22 -221 22h-119v643h237v-409q201 -18 365 -92q168 74 350 92v409h240v-643h-119q-99 0 -209 -22q81 -72 144 -152q81 -106 135 -227q110 -238 110 -516v-31h-239v31q0 248 -103 452q-56 109 -133 195q-76 82 -174 143 q-187 -115 -297 -313q-57 -109 -86 -223q-31 -124 -31 -254v-31h-239z" />
<glyph unicode="Y" horiz-adv-x="1400" d="M106 963v632h238v-403q182 -15 356 -90q171 73 347 90v403h235v-632h-119q-133 0 -260 -37q-18 -6 -47 -17.5t-35 -13.5v-895h-239v897q-52 21 -82 27v2q-130 37 -275 37h-119z" />
<glyph unicode="Z" horiz-adv-x="1363" d="M115 2v842h147q161 0 289 45q123 43 217 121q93 80 137 174q41 83 47 174h-798v235h1060v-204q0 -136 -50 -267t-142 -233q-113 -129 -277 -201q-169 -78 -395 -96v-354h684v180h219v-416h-1138z" />
<glyph unicode="[" horiz-adv-x="608" d="M115 0v1589h383v-203h-183v-1183h183v-203h-383z" />
<glyph unicode="\" horiz-adv-x="882" d="M109 1610h219l458 -1686l-221 2z" />
<glyph unicode="]" horiz-adv-x="608" d="M111 0v203h182v1183h-182v203h383v-1589h-383z" />
<glyph unicode="^" horiz-adv-x="942" d="M61 1206l408 408l123 -121l287 -287h-287l-123 121l-121 -121h-287z" />
<glyph unicode="_" horiz-adv-x="1200" d="M113 0h977v-186l-977 -2v188z" />
<glyph unicode="`" horiz-adv-x="612" d="M78 1386l121 144l336 -289l-121 -143z" />
<glyph unicode="a" horiz-adv-x="937" d="M100 -2v340q0 158 103 250q101 96 262 96q93 0 160 -33v213h-439v205h643v-1071h-729zM305 203h320v57q0 142 -66 193q-32 26 -94 26q-58 0 -100 -24q-60 -35 -60 -117v-135z" />
<glyph unicode="b" horiz-adv-x="974" d="M113 0v1464h219v-469q155 88 418 88h110v-454q0 -74 -2.5 -120.5t-21.5 -126.5t-56 -140q-67 -113 -194 -172q-143 -70 -365 -70h-108zM332 223q190 21 256 123q27 40 40 103t13 180v231q-79 -7 -136.5 -25.5t-90 -42t-51.5 -57t-25 -63.5t-6 -68v-381z" />
<glyph unicode="c" horiz-adv-x="903" d="M113 0v723q0 159 104 260q99 102 262 102q113 0 193 -45q84 -46 131 -135l14 -26l-196 -101l-13 29q-33 59 -129 59q-68 0 -108 -37q-39 -39 -39 -106v-504h456v-219h-675z" />
<glyph unicode="d" horiz-adv-x="995" d="M106 0v1079h568v385h219v-950q0 -99 -27 -178q-37 -101 -104 -168q-171 -168 -545 -168h-111zM326 223q206 18 288 109q60 60 60 182v352h-348v-643z" />
<glyph unicode="e" horiz-adv-x="937" d="M102 0v715q0 106 51 190.5t140 128.5q80 47 178 47q118 0 215 -69q49 -34 84 -86q66 -101 66 -215q0 -152 -107 -262q-106 -109 -258 -109q-77 0 -152 35v-158h496v-217h-713zM324 711q0 -63 43.5 -108.5t103.5 -45.5q61 0 104 45.5t43 108.5q0 64 -42.5 108.5 t-104.5 44.5q-60 0 -103.5 -44.5t-43.5 -108.5z" />
<glyph unicode="f" horiz-adv-x="645" d="M172 0v1094q0 160 109 266q105 102 266 102q115 0 198 -45q82 -45 134 -137l14 -27l-197 -100l-14 29q-34 63 -135 63q-71 0 -113.5 -40.5t-42.5 -110.5v-244h201v-219h-201v-631h-219z" />
<glyph unicode="g" horiz-adv-x="968" d="M113 66v1013h747v-1384h-745v219h526v240q-155 -88 -418 -88h-110zM332 289q179 15 256 92q53 59 53 166v313h-309v-571z" />
<glyph unicode="h" horiz-adv-x="976" d="M117 0v1464h217v-469q77 44 176 64q108 24 242 24h110v-1083h-219v860q-78 -8 -135.5 -27t-90 -42.5t-52 -57t-25.5 -63.5t-6 -68v-602h-217z" />
<glyph unicode="i" horiz-adv-x="448" d="M113 0v1079h223v-1079h-223zM113 1262v237h223v-237h-223z" />
<glyph unicode="j" horiz-adv-x="446" d="M-367 -109l191 103l14 -27q33 -61 131 -61q68 0 107 37.5t39 103.5v1030h219v-1030q0 -156 -105 -258q-102 -102 -260 -102q-113 0 -195.5 46t-125.5 132zM115 1253v234h219v-234h-219z" />
<glyph unicode="k" horiz-adv-x="962" d="M113 0v1462h217v-811q65 29 151 29q67 0 109 39q39 39 39 104v181h219v-181q0 -142 -92 -245q96 -99 96 -250v-328h-217v328q0 80 -55 110q-40 23 -99 23q-57 0 -90 -23q-61 -46 -61 -188v-250h-217z" />
<glyph unicode="l" horiz-adv-x="698" d="M106 0v1458h220v-1241h280v-217h-500z" />
<glyph unicode="m" horiz-adv-x="1558" d="M115 0v1071h217v-86q169 96 448 96h109v-96q169 96 448 96h109v-1081h-217v860q-201 -15 -281 -98q-59 -62 -59 -180v-582h-217v860q-201 -15 -281 -98q-59 -62 -59 -180v-582h-217z" />
<glyph unicode="n" horiz-adv-x="1003" d="M115 0v1071h217v-86q169 96 448 96h109v-1081h-217v860q-201 -15 -281 -98q-59 -62 -59 -180v-582h-217z" />
<glyph unicode="o" horiz-adv-x="1132" d="M29 537q0 108 40.5 206.5t116.5 174.5t174.5 116.5t206.5 40.5q109 0 208 -42.5t171.5 -114.5t115 -172t42.5 -209t-42.5 -208.5t-115 -171.5t-171.5 -114.5t-208 -42.5q-146 0 -270 72t-196 195.5t-72 269.5zM246 537q0 -132 94 -226t227 -94q135 0 226 94q94 91 94 226 q0 133 -94 227t-226 94q-133 0 -227 -94t-94 -227z" />
<glyph unicode="p" horiz-adv-x="952" d="M104 -303v1382h748v-676q0 -174 -115 -294h-2q-110 -107 -258 -107q-81 0 -153 35v-340h-220zM324 401q0 -92 45.5 -136t107.5 -44t105 43h2q49 49 49 139v457h-309v-459z" />
<glyph unicode="q" horiz-adv-x="962" d="M82 606v479h111q372 0 542 -167q68 -65 105 -166q26 -79 26 -179v-878h-219v311q-159 9 -266 51q-113 42 -184 125q-60 70 -87.5 172t-27.5 252zM301 606q0 -105 11 -168t44 -106q74 -94 291 -109v350q0 118 -59 183q-82 88 -287 106v-256z" />
<glyph unicode="r" horiz-adv-x="813" d="M109 0v1077h219v-51q65 33 145 33q111 0 194.5 -45.5t127.5 -132.5l14 -27l-195 -102l-12 28q-34 60 -129 60q-64 0 -104 -60q-41 -59 -41 -143v-637h-219z" />
<glyph unicode="s" horiz-adv-x="956" d="M117 0v219h506v35q0 44 -14 70t-46 43q-87 43 -332 43h-108v311q0 158 103 260t261 102q112 0 195 -47q82 -46 129 -133l51 -96l-194 -100l-52 96q-31 61 -129 61q-67 0 -106 -39q-41 -38 -41 -104v-94q200 -8 315 -62q185 -89 185 -311v-254h-723z" />
<glyph unicode="t" horiz-adv-x="643" d="M115 0v1460h219v-444q69 40 141 57l105 33l61 -213l-106 -27q-105 -34 -154 -94q-47 -62 -47 -166v-389h258v-217h-477z" />
<glyph unicode="u" horiz-adv-x="1003" d="M106 0v1077h220v-850q122 19 206 74q136 89 136 262v514h219v-1077h-219v127q-68 -50 -154 -80q-130 -47 -299 -47h-109z" />
<glyph unicode="v" horiz-adv-x="1044" d="M113 0v1079h217v-852q109 18 182 76q80 59 125 164q74 165 74 504v108h219v-108q0 -494 -172 -729q-86 -121 -223 -183q-133 -59 -314 -59h-108z" />
<glyph unicode="w" horiz-adv-x="1476" d="M111 0v1077h219v-850q105 14 184 74q75 58 125 164q72 171 72 504v108h217v-108q0 -488 -170 -725v-17q105 14 184 74q75 58 125 164q72 171 72 504v108h217v-108q0 -490 -170 -727q-90 -123 -223 -183q-133 -59 -314 -59h-108v63q-138 -63 -320 -63h-110z" />
<glyph unicode="x" horiz-adv-x="1024" d="M80 0v109q0 160 57 299q41 97 115 180h-33h-110v495h219v-282q91 -11 182 -43q89 31 176 43v282h217v-495h-108h-29q79 -89 121 -195q53 -126 53 -284v-109h-217v109q0 127 -53 233q-57 114 -160 174q-102 -62 -156.5 -166.5t-54.5 -240.5v-109h-219z" />
<glyph unicode="y" horiz-adv-x="976" d="M109 -98h534v209q-81 -33 -158 -33q-146 0 -254 94q-118 106 -118 279v626h219v-626q0 -71 47 -115q40 -37 106 -37q64 0 111 39t47 121v618h219v-1394h-753v219z" />
<glyph unicode="z" horiz-adv-x="1042" d="M109 362v275h110q256 0 365 68q75 49 75 124v37h-505v217h725v-254q0 -152 -107 -254q-141 -135 -444 -153v-60q0 -56 54 -99.5t142 -43.5q70 0 135 23t78 39l15 26l192 -100l-14 -27q-42 -83 -182 -139q-115 -41 -224 -41q-175 0 -295 105t-120 257z" />
<glyph unicode="{" horiz-adv-x="780" d="M102 612l134 222v667h423v-219h-204v-510l-97 -160l97 -159v-508h204v-219h-423v665z" />
<glyph unicode="|" horiz-adv-x="425" d="M102 -133v1782h203v-1782h-203z" />
<glyph unicode="}" horiz-adv-x="780" d="M129 -55h205v510l98 159l-98 160v508h-205v219h424v-665l135 -222l-135 -221v-667h-424v219z" />
<glyph unicode="~" horiz-adv-x="1218" d="M106 756l351 168l295 -142l292 142l60 -228l-352 -168l-295 142l-291 -142z" />
<glyph unicode="&#xa8;" horiz-adv-x="991" d="M125 1366v258h258v-258h-258zM604 1366v258h258v-258h-258z" />
<glyph unicode="&#xab;" horiz-adv-x="1404" d="M104 545l127 145l342 393h301l-468 -540l473 -543h-304zM559 545l127 145l342 393h301l-469 -540l473 -543h-303z" />
<glyph unicode="&#xb4;" horiz-adv-x="663" d="M88 1321l332 293l125 -144l-332 -292z" />
<glyph unicode="&#xb8;" horiz-adv-x="1122" d="M500 4h121v-184h-121v184z" />
<glyph unicode="&#xbb;" horiz-adv-x="1398" d="M82 1083h303l471 -544l-127 -146l-342 -393h-301l469 541zM537 1083h303l471 -544l-127 -146l-342 -393h-301l469 541z" />
<glyph unicode="&#xc0;" d="M115 0v1110q0 98 41.5 188.5t115.5 161.5q72 69 164.5 106.5t192.5 37.5q99 0 191.5 -37.5t164.5 -106.5q150 -144 156 -352v-1108h-240v653q-126 -75 -272 -75q-152 0 -271 75v-653h-243zM358 1092q0 -113 80 -193q79 -82 191 -82q113 0 192 82q80 80 80 193 q0 112 -80 192q-81 78 -192 78q-110 0 -191 -78q-80 -80 -80 -192zM395 1970l121 144l336 -289l-121 -144z" />
<glyph unicode="&#xc1;" d="M115 0v1110q0 98 41.5 188.5t115.5 161.5q72 69 164.5 106.5t192.5 37.5q99 0 191.5 -37.5t164.5 -106.5q150 -144 156 -352v-1108h-240v653q-126 -75 -272 -75q-152 0 -271 75v-653h-243zM358 1092q0 -113 80 -193q79 -82 191 -82q113 0 192 82q80 80 80 193 q0 112 -80 192q-81 78 -192 78q-110 0 -191 -78q-80 -80 -80 -192zM389 1835l332 293l125 -143l-332 -293z" />
<glyph unicode="&#xc2;" d="M115 0v1110q0 98 41.5 188.5t115.5 161.5q72 69 164.5 106.5t192.5 37.5q99 0 191.5 -37.5t164.5 -106.5q150 -144 156 -352v-1108h-240v653q-126 -75 -272 -75q-152 0 -271 75v-653h-243zM213 1782l408 407l122 -121l287 -286h-287l-122 121l-121 -121h-287zM358 1092 q0 -113 80 -193q79 -82 191 -82q113 0 192 82q80 80 80 193q0 112 -80 192q-81 78 -192 78q-110 0 -191 -78q-80 -80 -80 -192z" />
<glyph unicode="&#xc4;" d="M115 0v1110q0 98 41.5 188.5t115.5 161.5q72 69 164.5 106.5t192.5 37.5q99 0 191.5 -37.5t164.5 -106.5q150 -144 156 -352v-1108h-240v653q-126 -75 -272 -75q-152 0 -271 75v-653h-243zM268 1782v258h258v-258h-258zM358 1092q0 -113 80 -193q79 -82 191 -82 q113 0 192 82q80 80 80 193q0 112 -80 192q-81 78 -192 78q-110 0 -191 -78q-80 -80 -80 -192zM748 1782v258h258v-258h-258z" />
<glyph unicode="&#xc5;" d="M115 0v1110q0 98 41.5 188.5t115.5 161.5q72 69 164.5 106.5t192.5 37.5q99 0 191.5 -37.5t164.5 -106.5q150 -144 156 -352v-1108h-240v653q-126 -75 -272 -75q-152 0 -271 75v-653h-243zM358 1092q0 -113 80 -193q79 -82 191 -82q113 0 192 82q80 80 80 193 q0 112 -80 192q-81 78 -192 78q-110 0 -191 -78q-80 -80 -80 -192z" />
<glyph unicode="&#xc6;" horiz-adv-x="1939" d="M92 0v1110q5 100 45.5 190.5t112.5 159.5t164.5 106.5t191.5 37.5q100 0 192.5 -37.5t164.5 -106.5q29 -29 41 -43q25 28 53 53q140 121 323 121h6q191 0 324 -118q87 -72 135 -177l15 -30l-226 -82l-12 24q-47 96 -156 133q-50 13 -82 13q-74 0 -129 -35 q-53 -27 -94 -88q-43 -70 -43 -144v-278h428v-244h-428v-329h729v-236h-729h-237h-2v653q-126 -75 -273 -75q-151 0 -270 75v-653h-244zM336 1092q0 -113 80 -193q79 -82 190 -82q114 0 193 82q80 80 80 193q0 112 -80 192q-81 78 -193 78q-109 0 -190 -78q-80 -80 -80 -192 z" />
<glyph unicode="&#xc7;" horiz-adv-x="1185" d="M113 0v1110q0 124 48.5 210.5t129.5 156.5q142 120 327 120q190 0 328 -120q92 -79 135 -181l15 -28l-226 -80l-12 22q-31 64 -98.5 106t-141.5 42q-68 0 -127.5 -33.5t-97.5 -93.5q-41 -62 -41 -141v-857h510v158h221v-391h-970zM532 4h121v-184h-121v184z" />
<glyph unicode="&#xc8;" horiz-adv-x="1200" d="M127 0v1106q0 98 48 197t128 167q140 121 330 121q149 0 271 -79t188 -216l14 -30l-225 -82l-13 24q-31 65 -96.5 105.5t-140.5 40.5q-74 0 -129 -35q-53 -27 -94 -88q-43 -70 -43 -144v-278h428v-244h-428v-329h729v-236h-967zM371 1960l121 143l335 -288l-120 -144z " />
<glyph unicode="&#xc9;" horiz-adv-x="1200" d="M127 0v1106q0 98 48 197t128 167q140 121 330 121q149 0 271 -79t188 -216l14 -30l-225 -82l-13 24q-31 65 -96.5 105.5t-140.5 40.5q-74 0 -129 -35q-53 -27 -94 -88q-43 -70 -43 -144v-278h428v-244h-428v-329h729v-236h-967zM365 1812l331 293l125 -143l-332 -293z " />
<glyph unicode="&#xca;" horiz-adv-x="1200" d="M127 0v1106q0 98 48 197t128 167q140 121 330 121q149 0 271 -79t188 -216l14 -30l-225 -82l-13 24q-31 65 -96.5 105.5t-140.5 40.5q-74 0 -129 -35q-53 -27 -94 -88q-43 -70 -43 -144v-278h428v-244h-428v-329h729v-236h-967zM188 1806l408 408l123 -121l287 -287h-287 l-123 121l-121 -121h-287z" />
<glyph unicode="&#xcb;" horiz-adv-x="1200" d="M127 0v1106q0 98 48 197t128 167q140 121 330 121q149 0 271 -79t188 -216l14 -30l-225 -82l-13 24q-31 65 -96.5 105.5t-140.5 40.5q-74 0 -129 -35q-53 -27 -94 -88q-43 -70 -43 -144v-278h428v-244h-428v-329h729v-236h-967zM244 1755v258h258v-258h-258zM723 1755 v258h258v-258h-258z" />
<glyph unicode="&#xcc;" horiz-adv-x="462" d="M4 1993l121 143l336 -289l-121 -143zM109 0v1591h233v-1591h-233z" />
<glyph unicode="&#xcd;" horiz-adv-x="462" d="M-4 1829l332 293l125 -144l-332 -292zM109 0v1591h233v-1591h-233z" />
<glyph unicode="&#xce;" horiz-adv-x="462" d="M-180 1853l407 408l123 -121l287 -287h-287l-123 121l-121 -121h-286zM109 0v1591h233v-1591h-233z" />
<glyph unicode="&#xcf;" horiz-adv-x="462" d="M-145 1774v258h258v-258h-258zM109 0v1591h233v-1591h-233zM334 1774v258h258v-258h-258z" />
<glyph unicode="&#xd2;" horiz-adv-x="1693" d="M117 797q0 129 37 247q41 129 102 218q134 197 338 282q125 49 258 49q178 0 336.5 -88.5t261.5 -242.5q63 -97 102 -218q35 -122 35 -247q0 -161 -58 -308.5t-156.5 -254.5t-235 -170.5t-285.5 -63.5t-285.5 63.5t-235 170.5t-156.5 254.5t-58 308.5zM350 797 q0 -112 39 -215t111 -183q71 -78 162.5 -120.5t189.5 -42.5q100 0 191.5 42.5t162.5 120.5q72 79 110 182t38 216q0 134 -56 258q-201 -162 -446 -162q-128 0 -258 51q-102 42 -186 111q-58 -125 -58 -258zM549 1243q136 -117 303 -117q170 0 303 117q-130 115 -303 115 q-170 0 -303 -115zM618 1968l121 143l336 -288l-121 -144z" />
<glyph unicode="&#xd3;" horiz-adv-x="1693" d="M117 797q0 129 37 247q41 129 102 218q134 197 338 282q125 49 258 49q178 0 336.5 -88.5t261.5 -242.5q63 -97 102 -218q35 -122 35 -247q0 -161 -58 -308.5t-156.5 -254.5t-235 -170.5t-285.5 -63.5t-285.5 63.5t-235 170.5t-156.5 254.5t-58 308.5zM350 797 q0 -112 39 -215t111 -183q71 -78 162.5 -120.5t189.5 -42.5q100 0 191.5 42.5t162.5 120.5q72 79 110 182t38 216q0 134 -56 258q-201 -162 -446 -162q-128 0 -258 51q-102 42 -186 111q-58 -125 -58 -258zM549 1243q136 -117 303 -117q170 0 303 117q-130 115 -303 115 q-170 0 -303 -115zM610 1884l332 293l125 -143l-332 -293z" />
<glyph unicode="&#xd4;" horiz-adv-x="1693" d="M117 797q0 129 37 247q41 129 102 218q134 197 338 282q125 49 258 49q178 0 336.5 -88.5t261.5 -242.5q63 -97 102 -218q35 -122 35 -247q0 -161 -58 -308.5t-156.5 -254.5t-235 -170.5t-285.5 -63.5t-285.5 63.5t-235 170.5t-156.5 254.5t-58 308.5zM350 797 q0 -112 39 -215t111 -183q71 -78 162.5 -120.5t189.5 -42.5q100 0 191.5 42.5t162.5 120.5q72 79 110 182t38 216q0 134 -56 258q-201 -162 -446 -162q-128 0 -258 51q-102 42 -186 111q-58 -125 -58 -258zM434 1823l408 407l123 -121l286 -286h-286l-123 121l-121 -121 h-287zM549 1243q136 -117 303 -117q170 0 303 117q-130 115 -303 115q-170 0 -303 -115z" />
<glyph unicode="&#xd6;" horiz-adv-x="1693" d="M117 797q0 129 37 247q41 129 102 218q134 197 338 282q125 49 258 49q178 0 336.5 -88.5t261.5 -242.5q63 -97 102 -218q35 -122 35 -247q0 -161 -58 -308.5t-156.5 -254.5t-235 -170.5t-285.5 -63.5t-285.5 63.5t-235 170.5t-156.5 254.5t-58 308.5zM350 797 q0 -112 39 -215t111 -183q71 -78 162.5 -120.5t189.5 -42.5q100 0 191.5 42.5t162.5 120.5q72 79 110 182t38 216q0 134 -56 258q-201 -162 -446 -162q-128 0 -258 51q-102 42 -186 111q-58 -125 -58 -258zM489 1778v258h259v-258h-259zM549 1243q136 -117 303 -117 q170 0 303 117q-130 115 -303 115q-170 0 -303 -115zM969 1778v258h258v-258h-258z" />
<glyph unicode="&#xd9;" horiz-adv-x="1253" d="M115 498v1091h241v-1075q0 -92 62 -170q60 -72 151 -94q36 -8 60 -8h272v1347h244v-1589h-520q-135 2 -250.5 68.5t-185 180t-74.5 249.5zM397 1974l121 144l336 -289l-121 -143z" />
<glyph unicode="&#xda;" horiz-adv-x="1253" d="M115 498v1091h241v-1075q0 -92 62 -170q60 -72 151 -94q36 -8 60 -8h272v1347h244v-1589h-520q-135 2 -250.5 68.5t-185 180t-74.5 249.5zM391 1866l332 293l125 -144l-332 -293z" />
<glyph unicode="&#xdb;" horiz-adv-x="1253" d="M115 498v1091h241v-1075q0 -92 62 -170q60 -72 151 -94q36 -8 60 -8h272v1347h244v-1589h-520q-135 2 -250.5 68.5t-185 180t-74.5 249.5zM215 1855l408 408l122 -121l287 -287h-287l-122 121l-121 -121h-287z" />
<glyph unicode="&#xdc;" horiz-adv-x="1253" d="M115 498v1091h241v-1075q0 -92 62 -170q60 -72 151 -94q36 -8 60 -8h272v1347h244v-1589h-520q-135 2 -250.5 68.5t-185 180t-74.5 249.5zM270 1829v258h258v-258h-258zM750 1829v258h258v-258h-258z" />
<glyph unicode="&#xe0;" horiz-adv-x="970" d="M111 0v348q0 155 104 256q104 96 266 96q84 0 154 -28v51q0 63 -39 102q-42 39 -109 39q-101 0 -131 -59l-14 -27l-195 101l17 26q46 85 130 131.5t193 46.5q160 0 263.5 -101.5t103.5 -258.5v-723h-743zM256 1446l121 143l336 -289l-121 -143zM330 217h305v51 q0 61 -12.5 104.5t-28 64.5t-40.5 32t-38.5 12.5t-34.5 1.5q-57 0 -96 -22q-55 -34 -55 -113v-131z" />
<glyph unicode="&#xe1;" horiz-adv-x="970" d="M111 0v348q0 155 104 256q104 96 266 96q84 0 154 -28v51q0 63 -39 102q-42 39 -109 39q-101 0 -131 -59l-14 -27l-195 101l17 26q46 85 130 131.5t193 46.5q160 0 263.5 -101.5t103.5 -258.5v-723h-743zM250 1300l332 293l125 -143l-332 -293zM330 217h305v51 q0 61 -12.5 104.5t-28 64.5t-40.5 32t-38.5 12.5t-34.5 1.5q-57 0 -96 -22q-55 -34 -55 -113v-131z" />
<glyph unicode="&#xe2;" horiz-adv-x="970" d="M74 1157l407 408l123 -121l287 -287h-287l-123 121l-121 -121h-286zM111 0v348q0 155 104 256q104 96 266 96q84 0 154 -28v51q0 63 -39 102q-42 39 -109 39q-101 0 -131 -59l-14 -27l-195 101l17 26q46 85 130 131.5t193 46.5q160 0 263.5 -101.5t103.5 -258.5v-723 h-743zM330 217h305v51q0 61 -12.5 104.5t-28 64.5t-40.5 32t-38.5 12.5t-34.5 1.5q-57 0 -96 -22q-55 -34 -55 -113v-131z" />
<glyph unicode="&#xe3;" horiz-adv-x="970" d="M111 0v348q0 155 104 256q104 96 266 96q84 0 154 -28v51q0 63 -39 102q-42 39 -109 39q-101 0 -131 -59l-14 -27l-195 101l17 26q46 85 130 131.5t193 46.5q160 0 263.5 -101.5t103.5 -258.5v-723h-743zM330 217h305v51q0 61 -12.5 104.5t-28 64.5t-40.5 32t-38.5 12.5 t-34.5 1.5q-57 0 -96 -22q-55 -34 -55 -113v-131z" />
<glyph unicode="&#xe4;" horiz-adv-x="970" d="M111 0v348q0 155 104 256q104 96 266 96q84 0 154 -28v51q0 63 -39 102q-42 39 -109 39q-101 0 -131 -59l-14 -27l-195 101l17 26q46 85 130 131.5t193 46.5q160 0 263.5 -101.5t103.5 -258.5v-723h-743zM129 1268v258h258v-258h-258zM330 217h305v51q0 61 -12.5 104.5 t-28 64.5t-40.5 32t-38.5 12.5t-34.5 1.5q-57 0 -96 -22q-55 -34 -55 -113v-131zM608 1268v258h258v-258h-258z" />
<glyph unicode="&#xe5;" horiz-adv-x="970" d="M111 0v348q0 155 104 256q104 96 266 96q84 0 154 -28v51q0 63 -39 102q-42 39 -109 39q-101 0 -131 -59l-14 -27l-195 101l17 26q46 85 130 131.5t193 46.5q160 0 263.5 -101.5t103.5 -258.5v-723h-743zM330 217h305v51q0 61 -12.5 104.5t-28 64.5t-40.5 32t-38.5 12.5 t-34.5 1.5q-57 0 -96 -22q-55 -34 -55 -113v-131z" />
<glyph unicode="&#xe6;" horiz-adv-x="1406" d="M80 0v348q0 155 104 256q104 96 267 96q83 0 153 -28v51q0 63 -39 102q-42 39 -108 39q-101 0 -131 -59l-15 -27l-194 101l16 26q46 85 130.5 131.5t193.5 46.5q155 0 262 -102q40 34 78 53q80 47 178 47q118 0 215 -69q49 -34 84 -86q65 -100 65 -215q0 -153 -106 -262 t-258 -109q-77 0 -152 35v-158h496v-217h-496h-743zM299 217h305v51q0 51 -7.5 90t-22.5 61.5t-29 36.5t-35 19.5t-31.5 6.5t-27.5 1q-59 0 -97 -22q-55 -34 -55 -113v-131zM827 711q0 -63 44 -108.5t104 -45.5q61 0 104 45.5t43 108.5q0 64 -42.5 108.5t-104.5 44.5 q-61 0 -104.5 -44.5t-43.5 -108.5z" />
<glyph unicode="&#xe7;" horiz-adv-x="903" d="M113 0v723q0 159 104 260q99 102 262 102q113 0 193 -45q84 -46 131 -135l14 -26l-196 -101l-13 29q-33 59 -129 59q-68 0 -108 -37q-39 -39 -39 -106v-504h456v-219h-675zM391 4h121v-184h-121v184z" />
<glyph unicode="&#xe8;" horiz-adv-x="960" d="M125 0v715q0 106 50.5 190.5t139.5 128.5q80 47 179 47q118 0 215 -69q49 -34 84 -86q65 -100 65 -215q0 -153 -106 -262t-258 -109q-77 0 -152 35v-158h496v-217h-713zM252 1446l121 143l336 -289l-121 -143zM346 711q0 -63 44 -108.5t104 -45.5q61 0 104 45.5t43 108.5 q0 64 -42.5 108.5t-104.5 44.5q-61 0 -104.5 -44.5t-43.5 -108.5z" />
<glyph unicode="&#xe9;" horiz-adv-x="960" d="M125 0v715q0 106 50.5 190.5t139.5 128.5q80 47 179 47q118 0 215 -69q49 -34 84 -86q65 -100 65 -215q0 -153 -106 -262t-258 -109q-77 0 -152 35v-158h496v-217h-713zM244 1298l331 293l125 -143l-331 -293zM346 711q0 -63 44 -108.5t104 -45.5q61 0 104 45.5t43 108.5 q0 64 -42.5 108.5t-104.5 44.5q-61 0 -104.5 -44.5t-43.5 -108.5z" />
<glyph unicode="&#xea;" horiz-adv-x="960" d="M70 1155l407 408l123 -121l287 -287h-287l-123 121l-121 -121h-286zM125 0v715q0 106 50.5 190.5t139.5 128.5q80 47 179 47q118 0 215 -69q49 -34 84 -86q65 -100 65 -215q0 -153 -106 -262t-258 -109q-77 0 -152 35v-158h496v-217h-713zM346 711q0 -63 44 -108.5 t104 -45.5q61 0 104 45.5t43 108.5q0 64 -42.5 108.5t-104.5 44.5q-61 0 -104.5 -44.5t-43.5 -108.5z" />
<glyph unicode="&#xeb;" horiz-adv-x="960" d="M125 0v715q0 106 50.5 190.5t139.5 128.5q80 47 179 47q118 0 215 -69q49 -34 84 -86q65 -100 65 -215q0 -153 -106 -262t-258 -109q-77 0 -152 35v-158h496v-217h-713zM125 1266v258h258v-258h-258zM346 711q0 -63 44 -108.5t104 -45.5q61 0 104 45.5t43 108.5 q0 64 -42.5 108.5t-104.5 44.5q-61 0 -104.5 -44.5t-43.5 -108.5zM604 1266v258h258v-258h-258z" />
<glyph unicode="&#xec;" horiz-adv-x="448" d="M-4 1444l121 143l336 -289l-121 -143zM113 0v1085h223v-1085h-223z" />
<glyph unicode="&#xed;" horiz-adv-x="448" d="M-10 1300l332 293l124 -143l-331 -293zM113 0v1085h223v-1085h-223z" />
<glyph unicode="&#xee;" horiz-adv-x="448" d="M-186 1157l407 408l123 -121l287 -287h-287l-123 121l-121 -121h-286zM113 0v1085h223v-1085h-223z" />
<glyph unicode="&#xef;" horiz-adv-x="448" d="M-131 1266v258h258v-258h-258zM113 0v1085h223v-1085h-223zM348 1266v258h258v-258h-258z" />
<glyph unicode="&#xf1;" horiz-adv-x="1003" d="M115 0v1071h217v-86q169 96 448 96h109v-1081h-217v860q-201 -15 -281 -98q-59 -62 -59 -180v-582h-217z" />
<glyph unicode="&#xf2;" horiz-adv-x="1132" d="M29 537q0 108 40.5 206.5t116.5 174.5t174.5 116.5t206.5 40.5q109 0 208 -42.5t171.5 -114.5t115 -172t42.5 -209t-42.5 -208.5t-115 -171.5t-171.5 -114.5t-208 -42.5q-146 0 -270 72t-196 195.5t-72 269.5zM246 537q0 -132 94 -226t227 -94q135 0 226 94q94 91 94 226 q0 133 -94 227t-226 94q-133 0 -227 -94t-94 -227zM338 1444l121 143l336 -289l-121 -143z" />
<glyph unicode="&#xf3;" horiz-adv-x="1132" d="M29 537q0 108 40.5 206.5t116.5 174.5t174.5 116.5t206.5 40.5q109 0 208 -42.5t171.5 -114.5t115 -172t42.5 -209t-42.5 -208.5t-115 -171.5t-171.5 -114.5t-208 -42.5q-146 0 -270 72t-196 195.5t-72 269.5zM246 537q0 -132 94 -226t227 -94q135 0 226 94q94 91 94 226 q0 133 -94 227t-226 94q-133 0 -227 -94t-94 -227zM330 1300l332 293l124 -143l-331 -293z" />
<glyph unicode="&#xf4;" horiz-adv-x="1132" d="M29 537q0 108 40.5 206.5t116.5 174.5t174.5 116.5t206.5 40.5q109 0 208 -42.5t171.5 -114.5t115 -172t42.5 -209t-42.5 -208.5t-115 -171.5t-171.5 -114.5t-208 -42.5q-146 0 -270 72t-196 195.5t-72 269.5zM154 1157l407 408l123 -121l287 -287h-287l-123 121 l-121 -121h-286zM246 537q0 -132 94 -226t227 -94q135 0 226 94q94 91 94 226q0 133 -94 227t-226 94q-133 0 -227 -94t-94 -227z" />
<glyph unicode="&#xf5;" horiz-adv-x="1132" d="M29 537q0 108 40.5 206.5t116.5 174.5t174.5 116.5t206.5 40.5q109 0 208 -42.5t171.5 -114.5t115 -172t42.5 -209t-42.5 -208.5t-115 -171.5t-171.5 -114.5t-208 -42.5q-146 0 -270 72t-196 195.5t-72 269.5zM246 537q0 -132 94 -226t227 -94q135 0 226 94q94 91 94 226 q0 133 -94 227t-226 94q-133 0 -227 -94t-94 -227z" />
<glyph unicode="&#xf6;" horiz-adv-x="1132" d="M29 537q0 108 40.5 206.5t116.5 174.5t174.5 116.5t206.5 40.5q109 0 208 -42.5t171.5 -114.5t115 -172t42.5 -209t-42.5 -208.5t-115 -171.5t-171.5 -114.5t-208 -42.5q-146 0 -270 72t-196 195.5t-72 269.5zM209 1268v258h258v-258h-258zM246 537q0 -132 94 -226 t227 -94q135 0 226 94q94 91 94 226q0 133 -94 227t-226 94q-133 0 -227 -94t-94 -227zM688 1268v258h258v-258h-258z" />
<glyph unicode="&#xf9;" horiz-adv-x="1003" d="M106 0v1077h220v-850q122 19 206 74q136 89 136 262v514h219v-1077h-219v127q-68 -50 -154 -80q-130 -47 -299 -47h-109zM272 1444l121 143l336 -289l-121 -143z" />
<glyph unicode="&#xfa;" horiz-adv-x="1003" d="M106 0v1077h220v-850q122 19 206 74q136 89 136 262v514h219v-1077h-219v127q-68 -50 -154 -80q-130 -47 -299 -47h-109zM266 1300l332 293l125 -143l-332 -293z" />
<glyph unicode="&#xfb;" horiz-adv-x="1003" d="M90 1157l408 408l123 -121l286 -287h-286l-123 121l-121 -121h-287zM106 0v1077h220v-850q122 19 206 74q136 89 136 262v514h219v-1077h-219v127q-68 -50 -154 -80q-130 -47 -299 -47h-109z" />
<glyph unicode="&#xfc;" horiz-adv-x="1003" d="M106 0v1077h220v-850q122 19 206 74q136 89 136 262v514h219v-1077h-219v127q-68 -50 -154 -80q-130 -47 -299 -47h-109zM145 1268v258h258v-258h-258zM625 1268v258h258v-258h-258z" />
<glyph unicode="&#x152;" horiz-adv-x="2398" d="M98 795q0 129 37 247q40 126 103 218q54 80 120 143v2q96 86 217 137q125 49 259 49q131 0 254.5 -48t222.5 -138v-2q41 -37 78 -84q44 87 120 151q140 121 324 121h6q191 0 324 -118q87 -72 135 -177l14 -30l-225 -82l-12 24q-47 96 -156 133q-50 13 -82 13 q-74 0 -129 -35q-53 -27 -94 -88q-43 -70 -43 -144v-278h428v-244h-428v-329h729v-236h-967v211q-101 -101 -229 -157t-270 -56q-149 0 -285.5 63.5t-235 170.5t-157 254.5t-58.5 308.5zM332 795q0 -233 149 -398q71 -78 163 -121t190 -43q99 0 191 43t163 121 q130 145 145 344v107q-9 105 -53 205q-201 -162 -446 -162q-129 0 -259 51q-102 42 -186 111q-57 -123 -57 -258zM530 1241q136 -117 304 -117q170 0 303 117q-130 115 -303 115q-171 0 -304 -115z" />
<glyph unicode="&#x153;" horiz-adv-x="1730" d="M70 541q0 108 40.5 206.5t116.5 174.5t174.5 116.5t206.5 40.5t207 -42t174 -117q50 74 131 114q80 47 178 47q118 0 215 -69q49 -34 84 -86q66 -101 66 -215q0 -152 -107 -262q-106 -109 -258 -109q-76 0 -151 35v-158h495v-217h-712v111q-142 -107 -322 -107 q-146 0 -270 72t-196 195.5t-72 269.5zM287 541q0 -132 94 -226t227 -94q135 0 226 94q94 91 94 226q0 133 -94 227t-226 94q-134 0 -227.5 -94t-93.5 -227zM1151 711q0 -63 43.5 -108.5t103.5 -45.5q61 0 104.5 45.5t43.5 108.5q0 64 -43 108.5t-105 44.5 q-60 0 -103.5 -44.5t-43.5 -108.5z" />
<glyph unicode="&#x2c6;" horiz-adv-x="956" d="M70 1204l407 408l123 -121l287 -287h-287l-123 121l-121 -121h-286z" />
<glyph unicode="&#x201c;" horiz-adv-x="704" d="M92 1534h209l39 -324v-53l-12 -104h-129zM340 1534h211l39 -324v-53l-17 -104h-127z" />
<glyph unicode="&#x201d;" horiz-adv-x="718" d="M119 1161v53l39 320h211l-109 -477h-127zM365 1161v53l41 320h208l-108 -477h-123z" />
<glyph unicode="&#x2026;" horiz-adv-x="1423" d="M115 0v250h250v-250h-250zM590 0v250h250v-250h-250zM1065 0v250h250v-250h-250z" />
<glyph unicode="&#x25fc;" horiz-adv-x="1085" d="M0 0v1085h1085v-1085h-1085z" />
<glyph unicode="&#xe000;" horiz-adv-x="0" />
<glyph unicode="&#xe009;" horiz-adv-x="937" d="M100 -2v340q0 158 103 250q101 96 262 96q93 0 160 -33v213h-439v205h643v-1071h-729zM305 203h320v57q0 142 -66 193q-32 26 -94 26q-58 0 -100 -24q-60 -35 -60 -117v-135z" />
<glyph unicode="&#xe00a;" horiz-adv-x="952" d="M104 -303v1382h748v-676q0 -174 -115 -294h-2q-110 -107 -258 -107q-81 0 -153 35v-340h-220zM324 401q0 -92 45.5 -136t107.5 -44t105 43h2q49 49 49 139v457h-309v-459z" />
<glyph unicode="&#xe00b;" horiz-adv-x="962" d="M82 606v479h111q372 0 542 -167q68 -65 105 -166q26 -79 26 -179v-878h-219v311q-159 9 -266 51q-113 42 -184 125q-60 70 -87.5 172t-27.5 252zM301 606q0 -105 11 -168t44 -106q74 -94 291 -109v350q0 118 -59 183q-82 88 -287 106v-256z" />
<glyph unicode="&#xe00c;" horiz-adv-x="1234" d="M123 -2v500v610v254v233h239h265h245h222v-233v-272v-586v-6q-1 -127 -41 -225t-106 -157t-147.5 -88.5t-172.5 -29.5h-504zM362 238h265q60 0 114 27t92.5 89.5t38.5 149.5v586v272h-510v-275v-589v-260z" />
<glyph unicode="&#xe00d;" horiz-adv-x="1196" d="M111 500v1091h970v-1110l-8 -63q-31 -183 -170 -303q-143 -121 -325 -121q-92 0 -174 30t-148.5 89.5t-105.5 159t-39 227.5zM332 500q0 -66 22.5 -119t58.5 -84t78.5 -47.5t86.5 -16.5q67 0 126 33.5t97 93.5q41 62 41 142v856h-510v-858z" />
<glyph unicode="&#xe00e;" horiz-adv-x="813" d="M109 0v1077h219v-51q65 33 145 33q111 0 194.5 -45.5t127.5 -132.5l14 -27l-195 -102l-12 28q-34 60 -129 60q-64 0 -104 -60q-41 -59 -41 -143v-637h-219z" />
</font>
</defs>
</svg>
